<?xml version="1.0" encoding="UTF-8"?>
<svg xmlns="http://www.w3.org/2000/svg" class="isom-map" viewBox="0 0 4917.15 5122.91" width="491.71mm" height="512.29mm" data-meta='{"bbox":{"south":59.79122347747748,"north":59.83626852252252,"west":10.369822923306415,"east":10.459409076693586},"utmBbox":{"minE":576882.8265180711,"minN":6628954.897738419,"maxE":581799.9733845863,"maxN":6634077.809742244},"widthM":4917.146866515162,"heightM":5122.912003825419,"scaleDenom":10000,"equidistance":50,"elevationRange":{"min":43,"max":327},"isomVersion":"2017-2-derived","source":"Stub — venter på CI-generert OSM-data (men inkluderer syntetisk DEM-konturer)","generated":"2026-05-07T07:23:18.661Z"}'>
  <defs><pattern id="iso-pat-myr" patternUnits="userSpaceOnUse" width="1.5mm" height="1.2mm"><line x1="0mm" y1="0.6mm" x2="1.5mm" y2="0.6mm" stroke="#0099cc" stroke-width="0.18mm"/></pattern><pattern id="iso-pat-myr-utrygg" patternUnits="userSpaceOnUse" width="1mm" height="0.6mm"><line x1="0mm" y1="0.3mm" x2="1mm" y2="0.3mm" stroke="#0099cc" stroke-width="0.18mm"/></pattern><pattern id="iso-pat-kratt" patternUnits="userSpaceOnUse" width="2mm" height="2mm"><rect width="2mm" height="2mm" fill="#94d473"/><circle cx="0.5mm" cy="0.5mm" r="0.18mm" fill="#3e8c2c"/><circle cx="1.4mm" cy="1.5mm" r="0.18mm" fill="#3e8c2c"/></pattern><pattern id="iso-pat-halv-aapen" patternUnits="userSpaceOnUse" width="2.5mm" height="2.5mm"><rect width="2.5mm" height="2.5mm" fill="#ffd966"/><circle cx="1.25mm" cy="1.25mm" r="0.18mm" fill="#cae8a3"/></pattern><pattern id="iso-pat-hugst" patternUnits="userSpaceOnUse" width="2mm" height="2mm"><rect width="2mm" height="2mm" fill="#cae8a3"/><line x1="0.5mm" y1="0.3mm" x2="0.7mm" y2="1.7mm" stroke="#5cb348" stroke-width="0.2mm"/></pattern><pattern id="iso-pat-blokkmark" patternUnits="userSpaceOnUse" width="2.5mm" height="2.5mm"><polygon points="1.25mm,0.7mm 1.7mm,1.5mm 0.8mm,1.5mm" fill="#000"/></pattern><pattern id="iso-pat-bebyggelse" patternUnits="userSpaceOnUse" width="1.5mm" height="1.5mm"><rect width="1.5mm" height="1.5mm" fill="#d9b89a"/><rect x="0.2mm" y="0.2mm" width="1.1mm" height="1.1mm" fill="#7a5a3a"/></pattern><symbol id="iso-sym-knaus" viewBox="-1 -1 2 2"><path d="M-0.6 0.4 A0.6 0.4 0 0 0 0.6 0.4" fill="none" stroke="#7f4f24" stroke-width="0.14mm"/></symbol><symbol id="iso-sym-stein" viewBox="-1 -1 2 2"><polygon points="0,-0.6 0.6,0.5 -0.6,0.5" fill="#000"/></symbol><symbol id="iso-sym-brønn" viewBox="-1 -1 2 2"><circle cx="0" cy="0" r="0.6" fill="none" stroke="#0099cc" stroke-width="0.18mm"/><line x1="-0.6" y1="0" x2="0.6" y2="0" stroke="#0099cc" stroke-width="0.18mm" /><line x1="0" y1="-0.6" x2="0" y2="0.6" stroke="#0099cc" stroke-width="0.18mm" /></symbol><symbol id="iso-sym-bro" viewBox="-1 -1 2 2"><line x1="-0.6" y1="-0.3" x2="0.6" y2="-0.3" stroke="#000" stroke-width="0.2mm" /><line x1="-0.6" y1="0.3" x2="0.6" y2="0.3" stroke="#000" stroke-width="0.2mm" /></symbol><symbol id="iso-sym-peak" viewBox="-1 -1 2 2"><circle cx="0" cy="0" r="0.5" fill="#7f4f24" /></symbol></defs>
  <style>.isom-map { background: var(--bg, #fefae0); font-family: ui-sans-serif, system-ui, sans-serif; } .isom-map [data-layer] path { vector-effect: non-scaling-stroke; } .isom-map [data-iso="401"] { fill: var(--iso-401-fill, #ffd966) } .isom-map [data-iso="403"] { fill: url(#iso-pat-halv-aapen) } .isom-map [data-iso="404"] { fill: url(#iso-pat-hugst) } .isom-map [data-iso="405"] { fill: var(--iso-405-fill, #ffffff) } .isom-map [data-iso="406"] { fill: var(--iso-406-fill, #cae8a3) } .isom-map [data-iso="407"] { fill: var(--iso-407-fill, #94d473) } .isom-map [data-iso="408"] { fill: var(--iso-408-fill, #5cb348) } .isom-map [data-iso="409"] { fill: url(#iso-pat-kratt) } .isom-map [data-iso="301"] { fill: var(--iso-301-fill, #a8d4e8); stroke: var(--iso-301-stroke, #0099cc); stroke-width: 0.18mm } .isom-map [data-iso="302"] { fill: var(--iso-302-fill, #a8d4e8); stroke: var(--iso-302-stroke, #0099cc); stroke-width: 0.18mm } .isom-map [data-iso="304"] { stroke: var(--iso-304-stroke, #0099cc); stroke-width: 0.25mm; stroke-linecap: round; fill: none } .isom-map [data-iso="305"] { stroke: var(--iso-305-stroke, #0099cc); stroke-width: 0.18mm; stroke-dasharray: 1.5mm 0.6mm; fill: none } .isom-map [data-iso="308"] { fill: url(#iso-pat-myr) } .isom-map [data-iso="309"] { fill: url(#iso-pat-myr-utrygg) } .isom-map [data-iso="310"] { fill: none } .isom-map [data-iso="201"] { stroke: var(--iso-201-stroke, #000); stroke-width: 0.35mm; stroke-linecap: round; fill: none } .isom-map [data-iso="203"] { stroke: var(--iso-203-stroke, #000); stroke-width: 0.5mm; stroke-linecap: round; fill: none } .isom-map [data-iso="210"] { fill: url(#iso-pat-blokkmark) } .isom-map [data-iso="212"] { fill: none } .isom-map [data-iso="213"] { fill: none } .isom-map [data-iso="101"] { stroke: var(--iso-101-stroke, #dc2626); stroke-width: 0.1mm; fill: none } .isom-map [data-iso="102"] { stroke: var(--iso-102-stroke, #dc2626); stroke-width: 0.16mm; fill: none } .isom-map [data-iso="103"] { stroke: var(--iso-103-stroke, #dc2626); stroke-width: 0.1mm; stroke-dasharray: 1.5mm 1mm; fill: none } .isom-map [data-iso="104"] { stroke: var(--iso-104-stroke, #dc2626); stroke-width: 0.1mm; stroke-linecap: round; fill: none } .isom-map [data-iso="501"] { stroke: var(--iso-501-stroke, #d97a5a); stroke-width: 0.6mm; fill: none } .isom-map [data-iso="502"] { stroke: var(--iso-502-stroke, #d97a5a); stroke-width: 0.5mm; fill: none } .isom-map [data-iso="503"] { stroke: var(--iso-503-stroke, #d4b08a); stroke-width: 0.35mm; fill: none } .isom-map [data-iso="504"] { stroke: var(--iso-504-stroke, #000); stroke-width: 0.25mm; stroke-dasharray: 2mm 0.8mm; fill: none } .isom-map [data-iso="505"] { stroke: var(--iso-505-stroke, #000); stroke-width: 0.18mm; stroke-dasharray: 1.5mm 0.6mm; fill: none } .isom-map [data-iso="506"] { stroke: var(--iso-506-stroke, #000); stroke-width: 0.14mm; stroke-dasharray: 0.8mm 0.6mm; fill: none } .isom-map [data-iso="507"] { stroke: var(--iso-507-stroke, #000); stroke-width: 0.14mm; stroke-dasharray: 0.4mm 0.8mm; fill: none } .isom-map [data-iso="509"] { fill: none } .isom-map [data-iso="521"] { fill: var(--iso-521-fill, #7a5a3a); stroke: var(--iso-521-stroke, #000); stroke-width: 0.15mm } .isom-map [data-iso="522"] { fill: url(#iso-pat-bebyggelse) } .isom-map [data-iso="525"] { stroke: var(--iso-525-stroke, #000); stroke-width: 0.15mm; stroke-dasharray: 1mm 0.5mm; fill: none } .isom-map [data-iso="528"] { stroke: var(--iso-528-stroke, #000); stroke-width: 0.18mm; fill: none } .isom-map [data-label] { font-size: 2.5mm; fill: #2a2a2a; paint-order: stroke; stroke: #fff; stroke-width: 0.5mm; stroke-linejoin: round; } .isom-map [data-label="peak"] { font-size: 2.8mm; fill: #7f4f24; font-weight: 600; } .isom-map [data-label="kontur-tall"] { font-size: 1.6mm; fill: #dc2626; font-style: italic; }</style>
  <g id="bakgrunn"><rect width="4917.15" height="5122.91" fill="#fefae0"/></g>
  <g data-layer="aapen" data-iso="401"></g>
  <g data-layer="aapen" data-iso="403"></g>
  <g data-layer="aker" data-iso="404"></g>
  <g data-layer="skog" data-iso="406"></g>
  <g data-layer="skog" data-iso="407"></g>
  <g data-layer="skog" data-iso="408"></g>
  <g data-layer="skog" data-iso="409"></g>
  <g data-layer="stein" data-iso="210"></g>
  <g data-layer="myr" data-iso="308"></g>
  <g data-layer="myr" data-iso="309"></g>
  <g data-layer="vann" data-iso="301"></g>
  <g data-layer="vann" data-iso="302"></g>
  <g data-layer="bekk" data-iso="304"></g>
  <g data-layer="bekk" data-iso="305"></g>
  <g data-layer="kontur" data-iso="101"></g>
  <g data-layer="kontur" data-iso="103"></g>
  <g data-layer="kontur" data-iso="104"></g>
  <g data-layer="kontur" data-iso="102"></g>
  <g data-layer="vei-stor" data-iso="501"></g>
  <g data-layer="vei-stor" data-iso="502"></g>
  <g data-layer="vei-liten" data-iso="503"></g>
  <g data-layer="vei-liten" data-iso="504"></g>
  <g data-layer="sti" data-iso="505"></g>
  <g data-layer="sti" data-iso="506"></g>
  <g data-layer="sti" data-iso="507"></g>
  <g data-layer="bygning" data-iso="521"></g>
  <g data-layer="bygning" data-iso="522"></g>
  <g data-layer="linje" data-iso="525"></g>
  <g data-layer="linje" data-iso="528"></g>
  <g data-layer="stupkant" data-iso="201"></g>
  <g data-layer="stupkant" data-iso="203"></g>
  <g data-layer="navn"></g>
  <g data-layer="kontur">
    <g data-iso="101"><path d="M4223.15,5100.41L4219.76,5113.54L4214.44,5119.16L4195,5122.91L4176.54,5122.29L4164.23,5119.16L4155.08,5109.79L4152.98,5100.41L4155.55,5091.19L4163.26,5082.99L4185,5076.74L4210.11,5079.42L4223.93,5092.91L4223.54,5096.66Z M136.77,5047.91L135.61,5072.29L132.6,5079.17L128.8,5080.99L115,5082.59L89.19,5080.38L78.97,5076.33L73.5,5065.98L72.48,5047.91L75.82,5032.69L79.1,5027.48L89.23,5021.06L115,5017.68L128.75,5020.26L132.5,5023.12L136.68,5032.91L136.72,5040.41Z M262.44,5047.91L260.28,5072.24L254.75,5079L243.29,5082.02L216.72,5081.94L205.3,5078.91L199.83,5072.21L197.57,5057.91L198.46,5039.47L202.35,5027.24L210.2,5020.61L235,5017.67L249.81,5020.48L262.3,5032.91L262.37,5040.41Z M388.66,5047.91L387.73,5066.03L381.9,5076.59L377.14,5079.05L345,5083.62L331.01,5081.95L325.03,5077.13L322.63,5066.11L322.89,5039.33L325.32,5026.41L331.09,5018.95L345,5016.3L370.96,5020.27L388.43,5032.91L388.54,5040.41Z M4660.88,5047.91L4659.01,5072.3L4656.95,5076.69L4649.58,5081.09L4616.57,5082.21L4604.39,5079.09L4597.88,5072.26L4595.23,5057.91L4596.35,5039.44L4600.96,5027.1L4609.79,5020.3L4635,5017.24L4649.51,5020.12L4660.73,5032.91L4660.8,5040.41Z M4785.74,5047.91L4782.91,5072.16L4775.96,5078.73L4745,5082.65L4730.8,5080.99L4724.34,5076.66L4721.58,5066.04L4721.76,5039.43L4724.54,5027.04L4730.86,5020.25L4745,5017.6L4770.43,5020.88L4785.65,5032.91L4785.7,5040.41Z M4920,5035.41L4918.13,5071.83L4916.25,5078.25L4910.63,5084.14L4857.31,5083.51L4848.85,5080.34L4848.85,5036.53L4851.93,5025.86L4857.31,5019.06L4865,5016.15L4891.25,5016.86L4913.75,5011.58L4920,5012.91L4920,5024.16Z M200.03,4987.91L199.89,5005.88L196.75,5015.72L194.05,5017.59L183.18,5019.81L156.51,5019.44L144.08,5017.18L137.24,5011.69L134.58,4997.91L135.94,4979.3L140.75,4966.24L149.72,4958.39L175,4954.56L189.29,4957.79L193.59,4961.24L199.57,4972.91L199.8,4980.41Z M326.08,4987.91L325.85,5005.88L320.81,5015.7L316.49,5017.55L303.58,5019.97L276.78,5020.23L265.71,5017.85L260.79,5011.89L259.11,4997.91L260.38,4979.21L263.78,4965.69L270.63,4957.31L285,4953.9L310.38,4957.75L325.36,4972.91L325.72,4980.41Z M4723.68,4987.91L4723.34,5005.86L4719.05,5015.62L4715.43,5017.42L4703.4,5019.75L4676.67,5019.97L4665.02,5017.66L4659.32,5011.84L4657.33,4997.91L4658.77,4979.23L4662.72,4965.85L4670.31,4957.64L4685,4954.27L4709.98,4958L4723.2,4972.91L4723.44,4980.41Z M4848.81,4987.91L4847.99,5005.83L4842.1,5015.39L4805,5020.51L4791.18,5019.46L4785.62,5015.98L4783.63,5005.92L4784.23,4979.18L4787.77,4960.64L4791.39,4957.09L4805,4954.07L4830.97,4958.55L4848.48,4972.91L4848.65,4980.41Z M266.28,4787.91L261.13,4814.12L255,4825.28L250,4828.97L235,4832.56L216.68,4831.17L210.05,4828.69L201.84,4820.18L197.09,4806.62L194.7,4787.91L195.07,4779.86L199.6,4769.59L216.46,4764.51L250.88,4765.34L268.05,4772.91L267.16,4780.41Z M202.35,4727.91L199.1,4753.73L194.14,4763.97L189.57,4767.19L175,4770L156.5,4768.28L144.01,4762.96L136.92,4753.43L133.42,4737.91L133.8,4719.73L139,4708.81L143.4,4706.07L165,4701.2L189.96,4702.48L203.13,4712.91L202.74,4720.41Z M4726.05,4727.91L4722.1,4753.6L4715.52,4763.55L4710.26,4766.8L4695,4770.29L4676.65,4769.59L4664.91,4764.15L4658.79,4753.78L4655.37,4737.91L4655.18,4719.58L4659.78,4707.9L4663.87,4704.56L4685,4700L4710.66,4702.97L4726.85,4712.91L4726.45,4720.41Z M139.2,4667.91L137.25,4693.52L133.33,4703.28L129.17,4706.17L115,4708.2L88.9,4703.78L77.99,4697.83L71.9,4686.23L70.53,4667.91L74.08,4652.94L77.73,4647.97L88.82,4641.91L115,4636.91L129.26,4638.83L133.52,4641.86L139.4,4652.91L139.3,4660.41Z M266.18,4667.91L262.8,4693.33L255.88,4702.64L250.44,4705.52L235,4708.26L216.57,4707.07L204.42,4702.28L197.88,4693.22L194.9,4677.91L195.61,4659.44L200.33,4647.07L209.6,4640.2L235,4636.85L250.59,4639.68L266.48,4652.91L266.33,4660.41Z M4788.28,4667.91L4786.93,4686.28L4781.22,4698.11L4776.73,4701.57L4763.62,4706.41L4745,4708.45L4730.32,4706.19L4722.74,4699.12L4718.98,4686.45L4718.6,4659.31L4722.32,4646.3L4730.19,4638.8L4745,4636.59L4770.96,4641.21L4788.47,4652.91L4788.38,4660.41Z M199.08,1967.91L200.06,1993.75L198.03,1999.58L191.16,2007.04L182.5,2008.76L152.64,2005.72L143.33,2001.62L135.86,1993.02L135.31,1967.91L139.26,1953.43L145.19,1946.32L165,1943.06L188.78,1945.74L196.83,1952.91L197.96,1960.41Z M130.21,380.41L132.77,391.15L131.59,412.82L122.77,423.67L115,426.56L96.56,427.6L89.67,426.12L80.57,419.14L76.7,397.91L77.89,387.91L81.79,380.41L88.4,375.41L97.71,372.91L127.78,372.91L129,376.66Z M70.23,330.92L68.82,352.34L62.5,363.44L47.5,367.2L32.58,366.7L22.97,362.11L14.83,353.17L11.92,327.91L13.22,320.03L18.95,310.64L36.46,308.37L70.37,312.91L70.3,321.92Z M195.13,327.91L195.02,352.57L192.37,360.11L188.69,362.4L175,365.17L156.74,365.19L150.22,363.75L142.41,357.97L138.46,337.91L139.83,320.09L143.42,310.98L157.5,307.58L179.15,309.39L194.41,312.91L194.77,320.41Z M318.47,327.91L319.12,346.14L313.87,360.24L295,364.09L277.13,362.81L267.79,359.33L264.95,346.05L265.68,327.91L270.85,314.48L281.23,309.79L300.26,309.79L317.37,312.91L317.92,320.41Z M134.2,267.91L133.5,292.17L131.62,298.78L128.31,300.7L96.53,303.62L84.19,300.36L77.41,292.65L74.59,267.91L80.41,249.67L97.5,244.22L122.5,245.42L131.55,248.71L134.13,252.91L134.17,260.41Z M258.51,267.91L257.05,292.31L253.26,299.23L243.04,302.46L225,303.28L210.75,301.44L204.18,296.86L201.31,286.07L200.84,267.91L202.61,253.99L206.6,248.17L225,245.44L249.07,246.98L258.4,252.91L258.46,260.41Z M382.45,267.91L381.86,286.04L380.32,292.28L374.78,299.15L363.3,301.52L345,300.4L331.69,294.29L328.37,289.16L326.75,276.29L328.37,257.9L337.23,249.8L355,246.92L369.8,247.28L382.28,252.91L382.37,260.41Z M1266.25,267.91L1262.7,292.58L1255.83,300.15L1243.47,302.77L1225,301.16L1211.6,294.57L1208.2,289.32L1206.4,276.21L1208.2,256.67L1217.2,247.92L1235,244.84L1250.63,245.54L1266.68,252.91L1266.47,260.41Z M4662.62,267.91L4660.04,293.64L4654.62,303.68L4649.81,306.87L4635,309.91L4616.47,308.61L4603.81,303.3L4596.55,293.53L4593.26,277.91L4594.06,259.65L4596.12,253.12L4603.58,245.27L4625,240.51L4649.9,242.63L4662.8,252.91L4662.71,260.41Z M4786.91,267.91L4783.59,293.21L4780.44,298.5L4770.63,305.15L4755,308.59L4736.87,308.43L4730.62,306.57L4723.72,299.28L4720.5,286.47L4719.7,267.91L4721.53,253.07L4726.08,245.11L4745,241.01L4770.69,243.95L4787.03,252.91L4786.97,260.41Z M71.42,210.27L67.93,230.75L62.64,236.99L55,240.55L36.31,241.5L22.88,239.09L18.13,236.62L12.14,226.03L11.97,199.68L17.95,188.53L22.77,185.62L45,182.26L67.93,185.47L70.85,187.32L72.27,192.91L71.85,201.59Z M197.09,207.91L195.52,231.95L192.53,238.02L188.77,239.62L156.72,241.37L145.31,238.68L139.81,232.14L137.33,217.91L137.94,199.71L139.5,193.31L145.14,185.92L165,182.02L188.87,184.41L197.3,192.91L197.19,200.41Z M321.5,207.91L318.97,231.97L314.12,238.09L285,240.71L271.29,239.06L265.98,235.73L263.14,207.91L264.26,193.56L267.33,186.73L285,182.8L309.72,184.43L321.81,192.91L321.66,200.41Z M446.07,207.91L442.46,231.92L439.52,235.94L431.61,239.49L417.5,241.18L402.66,238.15L397.77,236.06L391.57,225.42L391.33,197.68L397.5,187.23L412.5,182.89L427.29,183.19L446.56,192.91L446.31,200.41Z M1202.29,207.91L1199.41,231.97L1194.3,238.12L1183.22,240.26L1165,239.71L1146.76,235.12L1143.79,207.91L1144.56,193.61L1147.44,186.92L1165,182.67L1189.9,183.82L1202.77,192.91L1202.53,200.41Z M4724.06,207.91L4721.66,232.77L4719,237.62L4710.2,243.17L4695,245.74L4676.68,245.22L4665.06,241.21L4659.35,232.9L4657.09,217.91L4658.17,199.52L4662.2,187.55L4670.16,181.32L4685,178.81L4710.1,181.7L4723.85,192.91L4723.96,200.41Z M4849.07,207.91L4848.03,226.13L4845.66,232.56L4837.24,240.09L4823.71,244.21L4805,246.18L4791.2,244.39L4787.4,241.88L4783.58,226.31L4783.83,199.47L4785.95,187.24L4791.28,180.76L4805,178.62L4831.05,182.29L4848.93,192.91L4849,200.41Z M135.01,147.91L131.68,176.6L96.52,179.46L84.13,177.45L77.24,171.77L74.1,157.91L74.82,139.52L76.78,132.72L83.88,123.95L105,118.94L128.5,122.01L131.99,124.58L135.32,132.91L135.16,140.41Z M259.74,147.91L257.35,171.59L253.36,176.84L216.9,178.97L206.43,176.98L202.19,171.63L200.29,139.55L203.39,127.74L210.52,121.72L225,119.18L249.42,121.83L260.22,132.91L259.98,140.41Z M384.38,147.91L380.8,171.58L374.93,176.8L352.5,179.33L333.55,177.22L327.96,174.44L326.13,133.17L328.17,125.45L331.58,123.11L355,119.95L370.33,121.98L385.12,132.91L384.75,140.41Z M509.68,147.91L507.25,165.79L504.64,171.54L496.67,176.66L482.5,178.9L468.32,177.76L460.23,175.15L454.86,165.78L452.75,147.91L455.36,132.9L458.61,127.89L467.83,122.03L482.5,119.5L497.5,122.89L510.31,130.18L510.25,140.41Z M636.13,140.41L634.04,161.32L628.71,171.28L615,176.21L590.85,176.62L584.51,174.69L580.06,157.91L579.46,139.63L582.59,128.23L585.55,125.11L596.76,121.55L622.87,122.56L632.22,126.23L636.03,136.66Z M759.29,147.91L755.9,165.74L746.78,174.9L733.63,176.89L715.91,174.9L708.19,165.74L706.09,157.91L705.2,133.44L707.68,126.35L711.34,124.3L743.17,122.05L754.03,125.5L760.75,132.91L760.02,140.41Z M1011.81,147.91L1008.92,165.75L1002.14,174.92L978.65,176.25L965.16,171.41L960.87,165.75L958.21,157.91L957.31,139.62L961.03,128.18L964.62,125.02L985,121.68L1002.7,123.86L1011.22,127.34L1012.53,140.41Z M1139.27,147.91L1137.87,165.75L1132.99,176.31L1107.5,178.93L1085.48,174.73L1081.72,157.91L1081.12,139.59L1086.24,124.71L1105,119.57L1129.38,121.8L1140.05,132.91L1139.66,140.41Z M1268.53,147.91L1267.74,165.95L1265.47,172.03L1257.17,178.3L1225,180.74L1211.37,178.97L1206.25,175.67L1203.79,139.4L1205.77,126.83L1211.23,119.74L1225,116.7L1250.91,119.75L1268.18,132.91L1268.36,140.41Z M4661.54,147.91L4660.06,172.38L4657.81,176.84L4649.84,181.4L4616.45,182.45L4603.72,179.22L4596.52,172.31L4594,157.91L4595.79,139.38L4600.77,126.7L4609.73,119.43L4635,116.15L4649.56,119.22L4660.97,132.91L4661.26,140.41Z M4786.19,147.91L4785.59,165.98L4780.52,176.29L4776.31,178.55L4745,182.74L4730.59,181.21L4723.62,176.78L4720.67,166.06L4721.39,139.37L4724.42,126.63L4730.83,119.37L4745,116.56L4770.46,120.08L4785.81,132.91L4786,140.41Z M4920,135.41L4918.13,172.68L4916.25,179.94L4910.63,187.5L4906.88,188.56L4883.75,183.05L4857.26,184.98L4848.56,181.65L4848.56,135.7L4851.78,124.8L4857.26,117.89L4865,114.97L4897.26,115.87L4911.83,109.97L4920,112.91L4920,124.16Z M71.76,89.03L68.03,107.95L62.68,113.56L55,116.6L22.91,115.96L18.18,114.74L12.12,105.72L10.58,87.91L14.02,72.14L17.67,66.36L28.8,58.8L45,55.97L68.03,59.77L71.06,62.87L72.29,80.97Z M197.55,87.91L195.21,105.71L186.62,114.68L179.97,115.86L149.77,114.68L143.62,111.3L137.16,97.91L137.46,79.34L141.48,66.46L144.89,62.15L156.65,56.85L175,55.95L189.02,59.23L193.05,62.41L198.12,72.91L197.83,80.41Z M322.2,87.91L319.25,105.69L309.2,114.59L294.12,116.27L273.62,114.59L268.58,111.25L263.05,97.91L264.9,66.71L266.94,62.58L276.99,57.35L295,56.18L309.96,59.24L323.09,72.91L322.65,80.41Z M447.19,87.91L443.39,105.67L431.79,114.44L415.34,115.98L398,114.44L391.85,103.24L390.3,79.84L392.65,69.67L397.55,62.58L405,58.55L423.66,57.91L436.97,62.43L448.59,72.91L447.89,80.41Z M572.71,87.91L569.52,105.65L562.46,114.31L530.29,114.31L519.65,105.65L516.9,97.91L516.05,79.39L517.49,72.33L524.1,62.65L529.55,59.74L545,57.49L568.32,61.57L571.64,64.32L574.38,72.91L573.54,80.41Z M697.45,87.91L693.66,105.63L685.12,114.22L654.33,114.22L649.32,111.07L643.07,97.91L642.18,72.5L646.25,63.2L650.62,60.3L665,57.45L683.09,58.49L693.53,63.32L699.41,72.91L698.43,80.41Z M824.7,80.41L820.95,105.41L813.67,112.27L800.75,114.95L782.5,114.51L773.46,111.41L768.25,104.69L766.51,94.37L768.25,72.15L777.21,61.26L795,57.98L810.25,60.12L824.67,72.91L824.68,76.66Z M950.75,84.37L949.13,103.32L944.97,111.34L935.61,114.95L917.91,114.95L903.41,112.27L895.37,105.41L891.43,80.41L898.41,66.79L907.77,59.65L917.5,56.55L932.5,57.99L946.33,63.55L950.45,67.68L950.98,78.64Z M1076.38,87.91L1073.42,105.66L1065.2,114.4L1031.96,114.4L1022.12,105.66L1019.5,97.91L1018.43,79.37L1019.54,72.3L1025.04,62.53L1036.67,57.36L1055,56.38L1062.98,57.44L1072.85,62.61L1077.61,72.91L1077,80.41Z M1204.63,87.91L1204.04,105.75L1199.46,114.95L1183.45,117.81L1157.02,117.26L1147.13,115.69L1143.7,111.25L1141.47,87.91L1142.72,72.02L1146.6,61.59L1150.8,58.16L1175,54.47L1190.19,57.8L1204.33,72.91L1204.48,80.41Z M4723.78,87.91L4722.15,111.64L4715.67,117L4676.62,119.39L4664.71,117.29L4658.71,111.73L4656.92,97.91L4658.83,79.21L4662.89,65.72L4670.37,57.36L4685,53.88L4709.93,57.61L4722.98,72.91L4723.38,80.41Z M4848.88,87.91L4848.29,105.78L4842.38,115.1L4805,119.91L4791.08,119.05L4785.27,115.8L4783.25,105.89L4784.27,79.18L4787.84,60.59L4791.42,56.98L4805,53.75L4830.94,58.01L4848.33,72.91L4848.61,80.41Z M134.79,27.91L134.18,37.91L130.1,45.41L122.56,50.41L111.55,52.91L86.1,50.41L78.62,45.41L74.62,37.91L76.6,13.54L79.59,9.16L89.38,4.79L105,2.91L128.57,4.79L135.72,12.91L135.26,20.41Z M259.42,27.91L258.47,37.91L254.33,45.41L246.98,50.41L222.68,52.91L212.18,50.41L204.91,45.41L200.89,37.91L200.21,19.79L203.08,9.16L205.85,6.66L216.81,3.54L235,2.91L254.06,6.66L260.83,12.91L260.12,20.41Z M383.89,27.91L382.43,37.91L378.14,45.41L371.03,50.41L348.34,52.91L338.46,50.41L331.48,45.41L327.38,37.91L325.71,13.54L327.88,6.66L331.44,4.79L363.5,3.54L376.03,6.66L386.08,12.91L384.98,20.41Z M511.34,26.07L509.15,41.81L502.5,50.34L491.77,52.98L470.15,53.41L463.72,51.91L455.39,45.41L450.57,20.41L454.2,12.29L462.7,6.66L485,2.91L507.9,4.79L510.81,6.66L511.75,19.49Z M1141.54,27.91L1141.72,37.91L1138.09,45.41L1130.64,50.41L1119.37,52.91L1092.77,50.41L1084.82,45.41L1080.44,37.91L1080.78,13.54L1082.75,9.16L1090.33,4.79L1105,2.91L1129.61,4.79L1141.26,12.91L1141.4,20.41Z M4662.54,27.91L4664.05,37.91L4661.66,45.65L4655.37,51.12L4645.19,54.33L4619.82,56.99L4605.57,62.77L4600.6,72.37L4600.14,105.96L4597.17,116.21L4583.22,120.84L4549.95,122.51L4541.51,128.06L4537.72,139.6L4537.02,173.65L4533.31,183.72L4526.8,187.74L4502.5,183L4488.51,185.06L4478.04,192.36L4474.81,200.41L4474.31,210.41L4475.65,225.41L4481.72,235.7L4497.5,240.56L4512.46,239.37L4522.36,235.91L4526.14,231.91L4530.21,217.91L4531.9,199.51L4534.43,192.72L4542.85,183.92L4556.31,179.05L4575,177.26L4589.29,179.7L4593.57,182.65L4597.79,192.33L4599.84,207.91L4599.56,226.42L4596.47,238.94L4593.88,242.95L4583.15,247.47L4556.83,247.2L4543.31,250.43L4539.82,260L4539.4,286.01L4540.74,292.2L4545.7,298.87L4556.78,301.25L4583.36,300.71L4590.09,302.02L4598.65,307.79L4602.36,319.56L4602.53,352.56L4606.46,360.07L4610.73,362.18L4635,363.91L4652.5,359.61L4655.73,346.08L4655.41,319.77L4657.08,313.47L4663.95,306.44L4676.49,303.37L4695,303.1L4710.63,305.15L4720.42,309.36L4723.41,313.63L4725.86,327.91L4724.02,346.62L4719.08,360.13L4710.22,368.64L4677.01,374.42L4667.06,380.74L4662.37,400.41L4663.07,409.98L4667.27,421.1L4677.04,425.46L4695,426.91L4713.61,422L4719.79,405.41L4719.5,395.41L4715.18,380.41L4716.05,372.48L4729.17,365.79L4763.31,365.17L4774.86,361.4L4778.09,358.01L4781.79,346.26L4782.01,319.68L4784.44,308.55L4790.83,303.68L4823.52,303.37L4840.16,297.36L4845.95,283.01L4848.6,257.44L4853.52,240.92L4857.5,238.59L4872.5,242.25L4887.5,241.83L4913.75,230.62L4916.25,231.53L4919.38,247.68L4919.38,298.92L4918.13,310.93L4913.75,322.98L4910.33,325L4907.56,315.56L4896.91,309.18L4875.36,309.18L4858.19,314.29L4853.11,320.04L4848.48,346.5L4842.12,359.47L4824.34,369.77L4807.09,371.97L4794.37,376.5L4789.13,385.41L4787.66,397.47L4788.73,412.27L4793.54,423.07L4807.5,428.76L4827.25,428.68L4836.01,423.4L4842.71,413.56L4843.03,372.45L4846.64,363.05L4853.19,360.07L4872.5,366.91L4887.48,366.67L4906.03,354.88L4910.57,343.46L4916.25,348.19L4920,1987.91L4919.38,3896.63L4916.25,4720.24L4910.31,4727.57L4907.48,4716.12L4901.44,4710.17L4882.5,4705.63L4862.91,4708.38L4854.55,4714.05L4848.6,4746.38L4845.97,4753.32L4837.32,4762.61L4823.72,4768.19L4805,4770.87L4797.05,4770.39L4787.29,4765.05L4782.09,4737.91L4781.86,4719.46L4784.34,4707.2L4786.61,4703.38L4796.93,4699.56L4823.45,4701.11L4839.49,4696.57L4845.02,4677.91L4842,4653.72L4839.21,4649.52L4827.17,4644.39L4812.5,4644.06L4793.12,4647.46L4786.22,4643.36L4781.9,4633.55L4780.27,4599.78L4777.01,4589.12L4763.2,4584.19L4729.01,4584L4718.35,4578.15L4713.92,4570.03L4718.08,4550.41L4716.18,4532.32L4710.16,4524.77L4697.5,4521.51L4682.5,4522.35L4668.19,4528.16L4664.63,4540.41L4664.97,4555.08L4667.64,4564.32L4673.36,4570.88L4687.5,4574.72L4707.28,4575.2L4720.34,4585.67L4725.79,4599.2L4727.46,4617.91L4726.61,4626.24L4721.25,4637.85L4703.63,4645.53L4685,4646.98L4669.14,4644.68L4658.81,4638.39L4653.98,4630.07L4653.88,4603.34L4646.64,4588.2L4632.5,4584.22L4617.5,4585.1L4607.62,4588.72L4603.57,4596.24L4602.15,4615.41L4606.48,4629.5L4620.95,4636.33L4647.18,4636.63L4659.34,4646.13L4663.87,4659.28L4664.46,4677.91L4661.56,4693.58L4655.31,4703.46L4650.16,4706.58L4635,4709.5L4616.32,4708.16L4602.89,4702.98L4592.69,4690.17L4592.71,4670.41L4589.4,4656.22L4577.49,4648.54L4562.5,4646.58L4547.25,4649.65L4542.35,4656.34L4539.31,4675.41L4541.43,4689.57L4546.8,4696.95L4562.5,4700.34L4587.13,4696.97L4595.29,4701.5L4601.26,4711.99L4602.04,4746.05L4606.57,4759.27L4616.93,4762.32L4650.59,4764.41L4660.3,4768.97L4664.57,4779.75L4663.63,4812.97L4666.92,4821.43L4670.96,4824.04L4695,4827.07L4713.9,4821.96L4718.99,4806.32L4719.18,4773.5L4724.89,4766.52L4736.65,4763.77L4755,4764.15L4782.19,4769.95L4785.65,4773.93L4788.32,4787.91L4785.93,4806.58L4780.22,4819.89L4776.13,4824.54L4763.52,4830.72L4745,4832.74L4731.28,4836.99L4725.93,4845.62L4723.5,4865.41L4727.56,4883.56L4731.28,4886.85L4745,4890.56L4770.09,4887.99L4778.63,4879.92L4783.81,4865.41L4779.11,4836.18L4781.89,4830.04L4796.69,4826.38L4823.53,4827.05L4830.6,4825.51L4840.35,4818.82L4845.01,4806.4L4845.16,4772.25L4850.09,4759.84L4857.5,4759.77L4877.5,4765.97L4892.42,4763.55L4905.94,4754.19L4911.85,4738.75L4916.25,4745.83L4919.38,4766.73L4919.38,4818.75L4916.25,4837.96L4909.79,4843L4907.23,4837.96L4896.26,4833.75L4873.63,4832.91L4856.57,4836.66L4852.3,4840.41L4850.85,4845.41L4849.18,4865.05L4853.67,4884.57L4862.5,4889.64L4882.5,4892.28L4906.88,4882.47L4910.63,4882.55L4916.25,4887.75L4919.38,4903.3L4920,4930.41L4918.13,4951.53L4913.75,4960.81L4906.88,4963.1L4891.25,4958.65L4857.12,4960.13L4847.7,4958.33L4844.85,4945.95L4845.37,4919.23L4840.64,4905.82L4830.69,4897.73L4815,4895.05L4797.24,4897.28L4788.43,4902.84L4786.83,4912.39L4788.08,4937.91L4785.05,4945.75L4778.07,4951.44L4767.15,4954.96L4724.92,4956.33L4719.28,4951.44L4719.5,4919.3L4714.15,4901.77L4703.19,4896.32L4676.94,4896.71L4670.81,4898.94L4664.37,4906.48L4662.56,4919.34L4664.35,4945.76L4660.24,4955.02L4650.57,4957.45L4616.78,4959.16L4605.7,4963.7L4599.61,4979.49L4599.47,5005.98L4596.56,5016.33L4583.16,5021.17L4549.88,5022.97L4541.27,5028.28L4537.02,5039.64L4536.12,5066.26L4532.49,5081.36L4522.92,5084.93L4496.47,5084.22L4483.79,5086.68L4476.34,5092.92L4471.29,5111.66L4466.9,5117.29L4447.5,5122.91L4420.96,5121.04L4412.87,5117.29L4408.23,5111.66L4402.72,5093.01L4395.73,5087L4383.46,5085.03L4356.92,5086.71L4346.51,5082.76L4342.51,5073.37L4340.87,5039.74L4337.39,5028.9L4323.24,5023.56L4289.27,5023.19L4279.24,5017.76L4275.1,5009.97L4278.74,4990.41L4276.76,4972.14L4270.29,4964.01L4252.5,4960.58L4237.5,4962.52L4227.94,4967.39L4224.04,4980.41L4225.77,5000.27L4231.23,5008.96L4245,5013.18L4263.5,5015.1L4270.51,5017.65L4280.04,5025.92L4285.3,5039.25L4286.85,5057.91L4283.99,5072.7L4280.82,5077.49L4270.75,5082.89L4255,5085.54L4236.48,5085.22L4223.9,5081.26L4215.36,5070L4216.38,5045.41L4211.98,5028.37L4195,5025.29L4171.07,5026.3L4167.14,5027.78L4163.9,5033.87L4162.91,5066.47L4155.3,5083.51L4147.13,5087.84L4127.5,5085.27L4109.46,5087.23L4102.06,5092.87L4092.79,5119.16L4067.5,5122.91L4052.5,5122.91L4032.48,5117.29L4027.46,5111.66L4023.67,5098.12L4018.27,5090.41L4002.5,5086.3L3982.11,5090.47L3976.78,5098.13L3972.77,5111.66L3967.63,5117.29L3947.5,5122.91L3920.65,5122.29L3906.4,5119.16L3894.75,5096.31L3885.88,5090.8L3873.8,5088.69L3864.19,5089.39L3857,5093.11L3847.95,5109.79L3841.13,5116.66L3830.84,5121.04L3815,5122.91L3796.49,5122.29L3783.93,5119.16L3773.23,5109.79L3762.98,5093.38L3751.62,5089.85L3733.38,5094.42L3721.85,5113.62L3715.3,5119.16L3687.5,5122.91L3660,5120.92L3650,5116.94L3642.5,5110.96L3632.5,5097.13L3622.5,5091.76L3609.56,5096.59L3594.11,5119.16L3567.5,5122.91L3540.48,5122.29L3525.35,5119.16L3510.18,5099.74L3497.5,5095.1L3487.5,5099.6L3477.5,5112.07L3470,5117.49L3447.5,5122.91L3418.75,5121.28L3406.25,5118.01L3376.25,5103.31L3368.75,5103.31L3362.5,5106.57L3357.5,5113.11L3348.75,5118.01L3320,5122.91L3300,5122.91L3271.25,5118.89L3247.53,5104.95L3233.89,5111.39L3230.07,5119.16L3200,5122.91L3151.25,5120.29L3122.5,5109.31L3112.5,5110.58L3088.75,5120.48L3060,5122.91L3011.25,5120.48L2992.5,5113.18L2968.75,5120.48L2940,5122.91L2891.25,5120.89L2872.5,5114.84L2857.5,5118.88L2801.25,5120.89L2325,5122.91L2058.75,5120.53L2002.5,5118.16L1992.5,5113.4L1968.75,5120.53L1920,5122.91L1891.25,5120.22L1872.85,5111.52L1864.61,5110.19L1846.05,5121.04L1800,5122.91L1771.25,5120.35L1737.5,5106.39L1727.5,5108.39L1717.5,5116.08L1708.75,5119.5L1660,5122.91L1629.8,5119.16L1625.84,5110.81L1617.3,5103.81L1612.4,5102.61L1607.47,5103.86L1597.5,5113.7L1588.75,5118.31L1576.25,5121.38L1540,5122.91L1511.25,5117.56L1502.5,5112.21L1492.5,5100.28L1482.5,5097.76L1470.56,5104.63L1466,5111.76L1456.12,5119.16L1439.77,5122.29L1412.5,5122.91L1390,5117.21L1382.5,5111.52L1372.47,5098.25L1362.32,5092.67L1352.14,5094.71L1329.91,5117.29L1307.5,5122.91L1292.5,5122.91L1265.69,5119.16L1260.19,5113.54L1251.03,5096.45L1243.07,5091.66L1233.34,5090.4L1226.51,5090.82L1221.78,5094.16L1214.01,5111.66L1208.26,5117.29L1187.5,5122.91L1172.5,5122.91L1144.42,5119.16L1137.52,5113.54L1125.77,5093.18L1107.43,5088.79L1093.34,5092.38L1081.36,5113.47L1075.06,5119.16L1063.34,5122.29L1045,5122.91L1028.96,5121.04L1018.19,5116.66L1011.24,5109.79L1002.95,5092.96L995.82,5088.91L982.5,5086.84L964.51,5090.84L952.6,5119.16L939.18,5122.29L912.5,5122.91L892.3,5117.29L887.09,5111.66L882.94,5098.09L877.66,5090.26L867.02,5086.17L857.5,5085.48L843.65,5088.13L836.02,5092.73L828.95,5109.79L822.19,5116.66L803.72,5122.29L785,5122.91L766.73,5119.16L761.37,5109.79L757.36,5092.79L753.33,5088.35L716.59,5085.84L709.77,5084.26L700.91,5078.19L696.63,5066.29L695.49,5033.8L692.58,5027.54L688.79,5025.89L665,5023.85L647.02,5027.07L643.62,5033.66L640.73,5072.9L634.99,5081.2L629.99,5083.55L605,5084.88L589.08,5082.13L578.61,5077.11L573.11,5066.11L572.16,5057.91L573.68,5039.33L579.25,5026.44L589.27,5018.7L596.42,5016.18L622.85,5012.04L628.56,5009.19L633.54,5000.34L635.01,4980.41L631.73,4967.29L622.5,4962.15L602.5,4959.66L589.21,4962.68L581.12,4971.82L578.56,4985.41L581.68,5010L575.07,5021.29L563.34,5024.54L529.8,5023.81L521,5028.57L516.67,5039.69L515.24,5073.83L509.97,5087.23L502.5,5088.09L482.5,5082.97L467.88,5084.84L455.25,5092.92L450.75,5111.66L446.63,5117.29L438.88,5121.04L412.5,5122.91L400.94,5121.04L392.81,5117.29L388.13,5111.66L386.26,5097.45L388.13,5082.01L397.19,5077.48L423.55,5079L440.47,5075.71L443.66,5071.81L447.05,5057.91L444.19,5033.09L436.57,5025.18L427.35,5021.28L412.5,5020.76L393.27,5024.53L387.14,5021.44L383.31,5006.26L383.41,4979.48L381.86,4972.63L375.54,4963.63L363.42,4959.45L336.61,4959.57L321.11,4955.76L317.91,4949.64L322.29,4920.41L319.93,4910.89L314.57,4902L309.79,4898.78L295,4895.78L271.1,4899.37L267.21,4902.53L264.28,4912.3L265.82,4945.73L261.22,4954.8L243.62,4957.58L216.46,4957.44L199.64,4954.7L196.79,4951.31L194.97,4937.91L195.88,4912.16L192.83,4902.07L182.97,4896.43L165,4894.84L150.03,4897.95L141.77,4905.97L138.32,4919.26L139.05,4945.75L136.47,4954.97L129.44,4957.27L96.49,4958.15L89.46,4959.97L79.86,4966.89L74.95,4979.41L71.73,5018.37L62.79,5020.67L28.84,5022.04L17.81,5027.83L14.16,5032.87L10.56,5047.91L14.28,5071.99L17.91,5076.06L28.87,5079.63L68.19,5082.14L72.32,5087.89L71.39,5111.66L66.94,5117.29L47.5,5122.91L20.63,5122.29L6.25,5119.16L3.75,5116.66L1.88,4917.29L0,3137.91L1.88,2544.65L5.63,2148.12L11.25,1948.32L35.63,1942.17L55,1943.1L62.93,1946.85L68.8,1953.38L72.6,1962.69L76.44,1984.29L81.83,1995.58L96.68,1998.82L123.27,1997.75L134.63,2002.29L141.22,2015.6L143.86,2045.41L150.09,2052.73L166.48,2057.19L175.99,2056.48L187.49,2050.68L192.37,2018.38L194.87,2012.29L203.06,2003.73L212.59,1999.46L239.77,1997.31L251.62,1991.73L258.8,1977.91L265.87,1949.98L271.26,1946.47L295,1944.18L314.45,1947.12L320.15,1953.49L333.24,1989.11L342.5,1994.84L353.53,1996.36L365.94,1994.73L371.62,1990.99L380.94,1975.91L388.53,1955.71L397.5,1945.43L408.75,1943.14L435,1943.98L448.56,1950.22L457.98,1974.56L464.62,1984.17L472.85,1989.59L487.09,1988.96L495.04,1983.47L501.03,1974.83L504.08,1965.41L503.87,1955.93L499.46,1948.51L491.59,1943.3L468.62,1938.71L458.6,1932.98L455.94,1925.41L456.36,1915.41L460.47,1900.41L465.76,1891.26L482.5,1887.95L496.27,1890.93L512.91,1925.67L516.65,1931.19L524.26,1935.51L542.23,1935.51L565.39,1930.75L569.35,1926.08L584.85,1890.21L602.5,1883.61L617.5,1882.99L630.53,1885.61L638.36,1892.86L646.06,1908.95L653.09,1917.87L662.5,1921.55L675.96,1919.43L685.83,1909.81L688.65,1895.67L683.06,1886.98L655.95,1871.63L651.17,1865.13L650.66,1849.75L653.96,1841.99L661.68,1833.13L669.12,1830.16L678.87,1831.54L712.14,1867.6L717.5,1870L732.5,1868.98L747.5,1862.17L762.5,1838.55L776.25,1824.06L803.67,1813.34L817,1805.13L828.94,1790.38L838.46,1772.1L844.9,1766.05L865,1760.5L883.75,1760.23L897.5,1766.53L906.97,1775.87L914.34,1777.69L917.23,1775.78L916.62,1769.64L903.34,1755.41L899.33,1745.41L903.59,1723.67L913.11,1708.7L922.5,1704.56L937.5,1704.61L947.5,1708.47L962.5,1720.5L972.5,1725.09L989.48,1719.12L992.92,1713.25L991.46,1703.14L970.67,1670.68L971.46,1660.41L976.13,1652.57L988.12,1646.39L997.5,1646.65L1007.5,1650.36L1032.5,1666.21L1050.08,1661.53L1055.67,1653.58L1055.99,1640.41L1051.95,1630.41L1038.18,1610.41L1037.67,1600.41L1042.64,1589.5L1053.01,1584.86L1062.5,1585.42L1092.5,1602.03L1109.99,1599.39L1115.36,1593.11L1116.33,1580.41L1112.9,1570.41L1099.55,1550.41L1098.02,1540.41L1102.28,1527.62L1108.93,1521.27L1122.5,1517.1L1132.5,1519.49L1152.74,1532.17L1163.31,1533.06L1170.03,1529.19L1170.49,1515.41L1157.65,1495.41L1154.27,1485.41L1158.07,1465.41L1168.94,1452.43L1198.91,1436.94L1205.24,1426.08L1214.61,1398.93L1220.33,1390.96L1249.81,1367.6L1256.8,1359L1272.35,1319.14L1286.3,1305.26L1303.21,1295.12L1311.95,1285.17L1313.89,1275.5L1311.95,1262.08L1286,1230.58L1285,1212.33L1290.13,1204.35L1308,1193.6L1322.75,1180.53L1330,1166.8L1337.37,1139.2L1349.33,1125.41L1370.46,1110.41L1378.43,1095.41L1379.57,1085.41L1376.85,1072.45L1370.18,1064.82L1348.06,1049.84L1343.38,1040.41L1342.01,1025.41L1347.93,1009.28L1376.72,994.32L1384.9,985.41L1389.33,965.41L1388.33,950.41L1381.91,935.95L1347.7,918.32L1344.27,909.7L1345.08,892.62L1347.73,887.78L1357.12,883.1L1375,877.65L1382.83,878L1388.48,881.53L1391.96,888.23L1397.67,912.59L1404.46,920.07L1417.5,922.37L1433.45,915.22L1436.18,900.41L1434.11,889.89L1428.75,885.63L1405.18,877.39L1397.9,871.4L1393.26,862.41L1391.27,850.41L1391.92,835.41L1394.73,823.35L1399.7,814.22L1406.81,808.04L1435.44,795.54L1441.37,780.41L1440.27,770.54L1431.18,756.99L1412.65,749.62L1398.98,739.33L1392.09,717.91L1392.92,699.54L1398.52,687.68L1413.83,678.7L1432.12,672.8L1439.85,665.41L1443.66,650.41L1437.94,633.11L1430.5,628.23L1417.5,626.08L1401.11,630.08L1396.54,639.94L1393.21,677.63L1388.46,682.61L1375,682.42L1347.34,675.67L1342.09,669.44L1337.66,655.41L1338.06,640.41L1343.23,629.88L1353.07,624.8L1377.15,618.6L1385.53,612.12L1389.49,587.91L1388.38,579.48L1382.34,567.33L1365.84,557.99L1346.09,552.62L1337.97,545.41L1333.02,530.41L1333.49,515.57L1338.97,506.36L1348.15,498.56L1369.88,492.14L1379.11,485.41L1387.82,470.41L1387.43,455.51L1381.58,445.97L1372.22,437.78L1337.5,427.42L1330.54,415.09L1327.65,392.13L1324.68,382.19L1319.68,375.13L1312.65,370.95L1282.5,364.42L1273.65,360.25L1269.04,355.19L1269.42,325.86L1272.21,317.45L1277.4,311.47L1285,307.9L1303.54,305.13L1320.36,297.45L1325.7,289.92L1327.09,275.41L1325.84,260.41L1319.31,249.99L1303.43,245.66L1277.22,244.55L1268.32,240.7L1265.3,217.91L1266.83,186.12L1270.3,178.48L1273.43,176.77L1302.5,178.83L1318.06,175.03L1323.91,157.91L1322.51,133.11L1315.85,125.23L1307.23,121.27L1292.5,120.46L1273.19,124.05L1266.65,121.09L1262.26,106.23L1262.91,79.42L1259.03,66.95L1255.42,62.97L1243.4,58.17L1201.98,54.77L1199.18,37.91L1202,19.79L1207.2,6.66L1225,2.91L1243.63,3.54L1256.81,6.66L1261.35,9.16L1267.37,18.23L1269.31,32.71L1273.63,44.21L1282.5,49.92L1297.5,52.88L1307.28,51.37L1320.32,40.25L1326.14,28.51L1328.69,14.16L1333.1,8.54L1352.5,2.91L1379.16,3.54L1392.49,6.66L1396.23,16.04L1397.48,30.21L1401.66,39.2L1412.92,48.74L1422.5,50.05L1437.5,44.48L1446.28,36.35L1451.65,16.39L1457.83,9.16L1468.85,4.79L1485,2.91L1503.41,3.54L1519.08,9.16L1523.64,16.04L1528,38.91L1537.5,44.37L1547.5,46.03L1557.5,44.38L1566.45,39.11L1573.67,17.22L1579.52,9.16L1590.61,4.79L1612.5,2.91L1627.5,2.91L1647.15,8.54L1651.8,14.16L1657.36,33.05L1664.3,39.62L1672.8,42.15L1691.73,36.86L1695.83,16.04L1704.36,6.66L1732.5,2.91L1759.64,3.54L1775.37,6.66L1783.52,16.04L1786.79,34.81L1797.5,37.95L1813.22,34.79L1816.52,16.04L1824.65,6.66L1860,2.91L1895.51,3.54L1913.04,6.66L1916.73,12.29L1922.04,32.19L1928.46,35.01L1932.59,33.96L1935.91,16.04L1944.44,6.66L1980,2.91L2016.2,3.54L2037.18,6.66L2048.12,14.31L2049.91,20.99L2052.08,14.31L2062.91,6.66L2135.21,4.79L2965,3.77L3177.5,8.06L3182.5,11.5L3192.5,13.22L3211.25,5.49L3260,2.91L3294.11,6.66L3300.62,16.04L3303.99,32.27L3309.03,35.34L3315.18,32.27L3318.24,16.04L3325.41,6.66L3344.23,3.54L3380,2.91L3414.11,6.66L3420.45,16.04L3423.38,32.73L3426.97,36.47L3433.25,37.27L3446.31,33.08L3450.39,25.71L3452.03,16.12L3462.89,6.66L3480.06,3.54L3507.5,2.91L3534.65,6.66L3541.75,16.04L3545.65,35.52L3553.32,39.53L3562.5,40.18L3574.88,35.71L3579.04,16.04L3585.66,6.66L3600.53,3.54L3627.5,2.91L3655.47,6.66L3663.77,16.04L3668.14,37.26L3677.5,41.56L3687.31,42.82L3696.34,40.08L3703.92,33.19L3708.84,14.16L3713.17,8.54L3732.5,2.91L3747.5,2.91L3769.52,4.79L3780.92,9.16L3786.85,16.91L3793.59,37.77L3802.5,43.37L3812.5,45.33L3822.5,43.73L3831.99,38.51L3836.48,16.04L3844.61,6.66L3860.35,3.54L3887.5,2.91L3906.61,8.54L3910.73,14.16L3912.71,28.25L3918.71,38.72L3927.86,45.43L3937.5,48.06L3951.05,44.83L3957.68,38.39L3961.57,30.07L3963.93,12.29L3967.21,6.66L3980.78,3.54L4007.5,2.91L4032.32,6.66L4035.84,16.04L4037.21,30.18L4041.5,39.04L4048.7,46.25L4062.5,49.93L4072.5,47.25L4086.28,35.94L4091.6,16.29L4097.8,9.16L4108.84,4.79L4135,2.91L4153.87,6.66L4159.7,16.04L4161.04,30.19L4166.43,43.22L4173.15,48.85L4187.5,51.24L4202.5,49.73L4210.05,45.72L4215.64,34.57L4217.84,16.04L4225.15,6.66L4236.69,3.54L4255,2.91L4270.24,4.79L4279.13,9.16L4284.71,18.9L4287.98,34.96L4293.41,46.87L4297.5,49.96L4317.5,52.57L4331.19,48.51L4338.13,40.09L4347.41,6.66L4357.07,3.54L4375,2.91L4397.38,6.66L4406.01,12.45L4412.87,37.33L4424.06,49.68L4434.63,53.13L4449.51,53.34L4455.43,51.77L4464.42,40.41L4468.89,28.54L4469.89,14.16L4473.7,8.54L4492.5,2.91L4527.25,4.79L4532,6.66L4534.33,12.29L4541.42,53.26L4530.27,59.55L4489.35,60.16L4479.5,66.89L4475.25,79.41L4476.55,97.91L4479.52,105.64L4490.35,114.25L4505.35,115.43L4517.5,114.18L4526.42,109.15L4535.77,71.65L4543.51,60.9L4556.42,54.62L4582.88,51.31L4592.28,45L4596.97,16.04L4604.79,6.66L4625,2.91L4649.43,4.79L4660.28,12.91L4661.41,20.41Z M4442.5,5020.82L4422.82,5025.38L4414.5,5033.15L4412.24,5039.66L4412.82,5065.86L4415.21,5071.77L4423.21,5077.43L4447.37,5079.73L4461.21,5075.64L4464.62,5071.78L4468.47,5047.91L4465.22,5033.14L4461.75,5028.37L4450,5020.79L4446.25,5020.8Z M742.5,4962.01L717.5,4963.45L710.21,4970.15L705.83,4988.87L706.53,4999.73L710.21,5007.98L722.5,5013.96L747.43,5015.16L757.08,5020.82L767.31,5035.45L768.39,5060.41L774.28,5072.72L788.2,5077.15L813.23,5072.72L819.92,5065.41L821.72,5055.41L821.22,5040.41L818.54,5032.53L813.87,5027.48L806.9,5024.5L792.5,5023.58L772.59,5028.01L758.37,5019.53L754.11,5010.27L758.88,4990.41L757.97,4976.04L750,4962.98L746.25,4962.49Z M55,4896.25L45,4895.23L28.86,4897.57L17.88,4905.71L12.27,4919.21L11.51,4927.91L12.12,4937.91L16.11,4945.41L23.48,4950.41L34.23,4952.91L48.36,4952.91L58.99,4949.47L66.11,4942.57L69.72,4932.23L70,4897.77L62.5,4897.01Z M562.5,4902.39L552.5,4898.36L537.5,4896.97L528.66,4900.11L521.38,4907.02L516.98,4915.68L515.91,4925.41L525.89,4950.37L525.18,4955.29L517.41,4964.99L507.48,4968.45L487.5,4959.34L477.5,4958.49L467.93,4961.19L458.95,4967.5L455.84,4972.71L453.56,4987.91L454.38,4997.91L461.86,5011.21L468.51,5014.51L484.56,5016.11L496.01,5015.58L503.28,5011.21L510.6,4979.16L517.58,4965.43L533.31,4954.19L555.71,4951.32L564.11,4947.61L567.05,4943.6L570,4929.97L570,4905.89L566.25,4904.14Z M4575,4897.45L4549.96,4899.21L4541.53,4906.52L4537.23,4915.6L4536.24,4925.41L4542.33,4949.88L4541.57,4953.81L4535.59,4960.07L4527.18,4962.46L4497.5,4958.27L4488.21,4961.11L4479.85,4967.48L4477.01,4972.7L4474.96,4987.91L4475.76,4997.91L4482.95,5011.28L4497.61,5015.8L4522.23,5014.65L4528.84,5005.7L4535.4,4971.87L4543.34,4961.09L4556.39,4954.78L4582.84,4951.06L4592.05,4944.74L4594.1,4927.63L4590,4898.41L4582.5,4897.93Z M4622.5,4832.25L4609.18,4836.74L4603.11,4845.49L4598.98,4860.41L4601.05,4874.91L4605.87,4883.73L4610.43,4886.94L4625,4890.04L4643,4888.78L4649,4886.61L4654.98,4879.22L4657.97,4865.41L4656.48,4850.57L4652.99,4840.93L4646.75,4834.56L4626.25,4831.99Z M36.15,4769.85L26.92,4771.07L19.86,4774.49L14.98,4780.11L11.75,4797.91L12.55,4806.42L18.1,4818.96L28.93,4825.7L36.31,4827.09L63.07,4825.52L73.44,4827.36L77.13,4833.75L75.95,4866.61L79.98,4880.08L83.99,4884.87L96.5,4890.45L115,4890.71L122.81,4888L128.43,4883.11L131.86,4876.04L133.73,4858.64L131.86,4840.78L122.81,4834.24L96.38,4830.34L83.25,4824.22L75.23,4813.8L72.67,4806.54L70.45,4787.91L66.01,4774.49L62.19,4771.07L50,4768.01L43.08,4768.93Z M4882.5,4581.05L4862.83,4585.54L4858.05,4588.49L4852.28,4599.67L4852.91,4625.87L4855.3,4631.77L4863.25,4637.45L4887.35,4639.77L4900.99,4635.66L4904.35,4631.79L4908.15,4607.91L4904.96,4593.18L4901.55,4588.45L4890,4581.02L4886.25,4581.04Z M182.5,4522.74L157.5,4520.41L146.08,4525.4L139.18,4540.41L142.26,4570.04L138.88,4578.17L130.16,4583.97L96.62,4583.35L89.87,4584.1L81.23,4588.69L77.03,4599.71L76.33,4626.58L72.61,4644.6L66.68,4648.88L37.5,4643.23L18.98,4649.28L13.41,4659.81L13.21,4686.05L18.76,4696.76L32.63,4702.53L47.5,4702.72L62.5,4698.61L69.91,4699.52L74.93,4712.22L75.98,4746.21L80.48,4757.69L96.55,4764.29L123.15,4763.86L133.9,4766.5L138.27,4773.49L138.72,4806.37L142.09,4818.65L145.26,4822.47L156.71,4826.98L190.81,4828.03L201.03,4830.62L205.08,4836.28L199.85,4865.41L206.19,4884.16L216.87,4889.71L235,4890.68L249.32,4887.27L253.64,4883.94L257.88,4874.97L259.7,4860.41L254.1,4840.41L254.91,4832.84L268.89,4827.26L303.2,4825.85L314.21,4821.67L319.15,4814.29L321.38,4805.41L317.68,4775.75L321.04,4767.46L332.85,4760.39L357.5,4763.93L374.47,4759.41L381.43,4749.81L382.19,4730.41L378.48,4716.4L373,4710.32L357.5,4708.04L338.38,4710.92L331.87,4720.08L324.59,4753.7L316.63,4763.88L303.6,4769.59L285,4771.21L270.3,4768.07L265.6,4764.63L260.31,4753.93L257.34,4737.91L257.15,4719.52L261.12,4707.53L264.67,4703.94L276.61,4699.75L313.15,4697.4L319.25,4685.41L319.46,4665.41L317.61,4656.28L312.81,4649.14L276.53,4647.31L264.17,4642.73L260.28,4638.8L256.1,4630.14L256.12,4596.19L253.84,4590.09L248.65,4586.74L225,4584.84L207.31,4587.66L204.27,4593.84L201.53,4633.07L195.36,4641.77L190.18,4644.27L165,4645.58L149.03,4642.62L138.44,4637.33L135.04,4632.62L131.92,4617.91L133.5,4599.32L139.14,4586.36L149.24,4578.5L182.84,4571.45L192.06,4564.84L193.43,4542.31L190,4524.63L186.25,4523.69Z M122.5,4462.38L107.5,4457.4L97.5,4457.1L88.69,4460.21L81.46,4467.07L77.1,4475.69L76.04,4485.41L85.46,4510.33L84.72,4515.17L77.18,4524.61L67.45,4528.02L47.5,4519.44L37.5,4518.63L27.96,4521.31L19.05,4527.56L14.17,4539.52L13.68,4547.91L17.22,4565.69L21.91,4571.23L28.54,4574.56L44.57,4576.2L56.06,4575.65L63.38,4571.23L70.72,4539.17L77.66,4525.47L93.45,4514.29L116.22,4511.35L124.36,4507.67L127.18,4503.68L130,4489.99L130,4465.77L126.25,4464.08Z M4786.86,27.91L4787.87,37.91L4784.92,45.66L4778,51.15L4767.12,54.38L4740.29,55.85L4724.95,55.36L4719.37,51.15L4718.44,37.91L4721.2,19.79L4724.77,9.16L4730.93,4.79L4745,2.91L4770.38,4.79L4785.35,12.91L4786.11,20.41Z M4920,27.91L4918.13,52.19L4916.25,56.47L4910.63,60.19L4883.75,56.71L4851.36,57.84L4846.21,55.29L4847.72,21.66L4852.61,12.29L4860.87,6.04L4872.5,2.91L4908.13,4.79L4913.75,6.66L4920,12.91L4920,20.41Z M2574.32,1099.53L2600.54,1107.22L2622.5,1110.27L2663.75,1097.87L2682.5,1095.93L2715,1108.1L2738.75,1114.14L2793.75,1118.5L2873.12,1133.8L2910.93,1151.26L2938.07,1159.67L2981.25,1160.61L2993.75,1163.44L3035,1185.3L3065,1195.82L3118.75,1229.51L3170,1249.75L3188.75,1265.18L3205,1270.06L3223.75,1271.42L3242.5,1276.16L3269.7,1300.21L3326.38,1336.61L3347.85,1358.49L3383.86,1382.39L3417.58,1415.93L3445.33,1436.52L3484.91,1478.03L3530.18,1517.36L3548.26,1541.41L3588.55,1578.62L3613.85,1613.77L3640.97,1639.13L3659.8,1667.91L3703.21,1717.91L3724.82,1755.35L3752.27,1784.37L3757.79,1817.91L3764.51,1837.43L3784.73,1865.99L3804.35,1917.2L3825.46,1946.47L3847.69,1996.76L3868.8,2029.01L3873.66,2040.41L3871.36,2087.91L3878.39,2107.91L3895.94,2141.66L3908.2,2184.16L3925.43,2227.91L3926.37,2247.91L3922.57,2266.66L3921.95,2285.41L3948.35,2345.41L3939.48,2404.16L3942.56,2427.91L3953.68,2454.16L3956.85,2470.41L3956.8,2485.41L3947.89,2517.91L3945.97,2537.91L3954.76,2577.91L3956.45,2597.91L3953.91,2617.91L3941.04,2654.16L3939.37,2665.41L3951.21,2714.16L3951.69,2725.41L3926.01,2785.41L3930.85,2830.41L3929.77,2856.66L3910.35,2901.66L3894.48,2952.91L3880.58,2980.41L3880.82,3040.41L3871.64,3058.17L3853.96,3083.93L3831.41,3135.54L3808.38,3166.12L3806.43,3179.73L3807.07,3206.66L3804.25,3220.41L3779.92,3251.66L3759.11,3300.41L3730.63,3331.66L3710.04,3367.74L3668.69,3415.4L3651.85,3444.32L3618.05,3479.01L3596.92,3517.11L3562.9,3540.41L3551.91,3555.41L3540.02,3579.67L3527.25,3591.09L3512.58,3597.43L3498.33,3607.23L3491.1,3615.72L3478.69,3639.4L3470.11,3648.09L3436.25,3666.8L3403.75,3701.7L3375.68,3717.9L3333.18,3756.25L3297.72,3778.36L3254.57,3814.72L3215.11,3837L3187.97,3861.04L3171.25,3867.77L3136.25,3873.11L3128.75,3876.34L3110,3891.42L3046.25,3912.87L3014.38,3934.14L2967.53,3951.72L2931.88,3970.7L2920.63,3972.89L2878.75,3972.89L2866.25,3975.43L2817.5,3999.9L2750,4006.68L2730,4012.01L2678.75,4019.51L2617.5,4038.86L2557.5,4027.14L2498.75,4042.95L2475,4041.7L2448.75,4031.75L2427.5,4028.55L2411.25,4030.49L2385,4039.01L2361.25,4039.51L2317.5,4027.22L2302.5,4025.02L2246.25,4024.13L2205,4013.46L2168.75,4007.74L2151.25,4002.51L2125,3989.19L2105,3983.87L2057.5,3988.18L2043.75,3982.72L2001.25,3958.54L1950,3938.36L1922.5,3921.45L1863.43,3918.44L1831.24,3894.12L1789.26,3874.41L1744.52,3841.11L1715,3827.22L1675,3795.52L1655,3786.6L1624.78,3779.22L1615.32,3769.79L1604.67,3751.97L1596.52,3745.61L1555.86,3731.47L1540.16,3717.5L1526.09,3699.04L1517.63,3691.62L1488.37,3674.16L1450.29,3631.66L1425.12,3614.16L1391.81,3571.66L1355.49,3542.33L1334.75,3502.09L1302.58,3477.57L1289.12,3433.82L1275.58,3414.5L1258.22,3396.89L1252.34,3387.57L1237.3,3349L1215.03,3322.26L1192.93,3279L1170.52,3247.91L1158.51,3227.07L1150.04,3194.52L1128.48,3147.63L1123.89,3100.41L1095.54,3051.66L1091.63,3040.41L1089.25,2972.91L1082.24,2952.91L1073.96,2901.66L1062.71,2856.66L1063.68,2830.41L1070.58,2784.73L1063.73,2747.23L1062.78,2727.8L1078.7,2641.66L1091.3,2596.66L1095.48,2540.41L1105.6,2510.41L1124.85,2469.16L1130.71,2437.91L1151.94,2387.91L1157.61,2359.16L1163.86,2340.41L1186.99,2309.72L1207.85,2268.37L1232.17,2234.51L1255.26,2182.91L1276.69,2152.91L1306.31,2091.65L1332.04,2060.27L1348.3,2031.26L1385.01,1987.46L1408.81,1951.27L1435.98,1921.43L1471.87,1873.21L1490.29,1854.27L1520.31,1809.41L1544.71,1784.38L1575.06,1737.84L1598.48,1715.58L1628.79,1667.91L1663.88,1631.66L1681.81,1600.41L1712.81,1574.16L1743.93,1531.63L1765.98,1514.03L1793.77,1478.98L1835.42,1442.79L1865,1409.65L1903.75,1381.79L1929.03,1353.38L1937.08,1347.56L1968.31,1333.35L2015.28,1293.56L2053.04,1277.76L2077.15,1257.1L2123.04,1232.61L2175,1196.64L2205,1185L2245,1162.66L2265,1159.15L2291.25,1161.26L2302.5,1159.92L2335,1142.06L2358.75,1131.95L2400,1123.37L2431.25,1114.04L2497.68,1111.07L2526.09,1105.03L2552.9,1092.91L2563.61,1096.22Z M2725.24,1458.24L2746.32,1464.36L2801.25,1467.17L2825,1473.6L2858.75,1489.18L2910,1506.94L2930,1517.03L2967.5,1525.78L2993.75,1534.72L3035,1560.54L3075,1582.02L3104.99,1606.25L3154.93,1638.68L3183.73,1664.31L3208.75,1681.37L3244.97,1717.68L3283.35,1749.47L3308.36,1780.33L3347.38,1818.63L3365.39,1846.66L3394.79,1879.16L3413.57,1907.91L3452.35,1958.03L3468.32,1988.4L3488.84,2018.15L3500.11,2039.03L3509.4,2072.33L3531.87,2123.34L3545.09,2164.49L3567.22,2209.16L3573.95,2235.41L3580.14,2276.66L3611.97,2409.16L3610.14,2465.41L3619.79,2525.41L3620.01,2540.41L3609.58,2605.41L3617.58,2660.41L3601.77,2721.66L3586.21,2822.91L3575.64,2859.16L3550.47,2920.41L3539.08,2972.91L3511.34,3039.99L3475.52,3097.56L3460.16,3127.44L3428.03,3172.01L3412.21,3204.35L3383.62,3239.09L3361.18,3280.41L3331.88,3306.74L3295.49,3353.75L3271.59,3371.66L3231.82,3414.16L3203.76,3431.24L3164.26,3467.02L3126.16,3486.66L3089.66,3514.76L3056.16,3531.38L3005,3567L2975,3581.4L2933.75,3606.26L2866.25,3624.43L2825,3641L2795,3649.43L2742.5,3673.24L2693.75,3672.73L2652.5,3683.05L2600,3690.83L2477.5,3697L2387.5,3695.98L2345,3691.88L2286.25,3681.44L2237.5,3680.6L2182.5,3656.59L2125,3648.42L2054.46,3623.64L1994.83,3591.19L1948.61,3570.84L1926.57,3555.74L1868.9,3533.01L1836.73,3508.37L1788.8,3477.64L1767.55,3456.8L1726.16,3425.44L1702.08,3398.86L1665.42,3366.66L1643.02,3338.85L1613.12,3309.11L1577.93,3261.96L1552.62,3233.47L1526.7,3179.62L1509.39,3154.9L1491.12,3105.43L1459.82,3048.23L1448.6,3017.91L1433.96,2987.91L1427.16,2964.16L1421.53,2905.41L1404.48,2845.41L1402.27,2785.41L1397.91,2739.16L1402.49,2617.91L1408.6,2577.91L1422.08,2536.66L1429.71,2469.16L1447.47,2427.91L1457.56,2397.91L1477.52,2356.66L1498.7,2289.16L1521.77,2247.91L1535.47,2217.91L1569.34,2167.91L1592.3,2127.91L1621.51,2087.91L1637.88,2058.24L1671.86,2012.73L1687.91,1983.8L1719.19,1946.97L1743.84,1910.27L1765.63,1888.59L1798.33,1847.45L1829.13,1817.91L1862.89,1779.16L1900.04,1746.66L1925.21,1719.16L1965.72,1688.41L1987.37,1666.69L2035,1636.28L2065,1612.36L2115,1587.96L2145,1566.17L2195,1540.36L2225,1520.67L2306.25,1488.01L2362.5,1478.01L2422.5,1457.73L2437.5,1454.92L2497.5,1453.3L2542.5,1445.83L2673.82,1447.26L2717.81,1455.58Z M2722.6,1719.53L2744.43,1727.4L2804.3,1738.53L2858.14,1759.73L2949,1811.05L2986.59,1839.3L3043.78,1877.03L3075.73,1908.04L3103.75,1929.39L3135.15,1967.85L3159.01,1990.09L3188.21,2035.16L3214.04,2066.89L3274.87,2165.41L3301.41,2220.41L3309.35,2247.91L3315.03,2281.66L3342.78,2362.91L3351.36,2401.66L3355.11,2465.41L3364.86,2525.41L3363.85,2555.41L3358.07,2600.41L3359.84,2660.41L3341.64,2740.41L3326.44,2789.16L3315.92,2844.38L3306.26,2869.22L3287.88,2903L3272.42,2938.43L3246.54,2981.08L3226.57,3027.3L3208.9,3050.26L3180.97,3097.21L3148.54,3132.72L3131.25,3156.45L3086.12,3198.83L3060.19,3226.78L3017.5,3257.51L2993.34,3279.26L2945,3304.48L2905,3330.29L2864.05,3348.08L2813.72,3376.98L2742.5,3406.95L2673.93,3416.55L2618.4,3435.27L2572.5,3436.57L2497.5,3442.93L2415,3442.26L2366.25,3437.75L2302.5,3424.36L2237.5,3418.47L2195,3398.51L2145,3379.83L2115,3363.86L2057.5,3346.05L1971.48,3290.61L1951.62,3272.47L1907.68,3239.27L1886.98,3216.92L1847.61,3181.29L1784.43,3107.91L1737.28,3037.91L1717.89,2987.91L1702.64,2957.88L1689.9,2916.26L1666.61,2860.31L1660.22,2830.41L1658.15,2801.66L1650.07,2751.66L1647.17,2665.41L1648.2,2597.91L1661.03,2536.66L1664.93,2495.41L1670.35,2467.37L1742,2280.41L1773.57,2225.41L1814.69,2167.91L1832.9,2138.03L1864.67,2099.74L1894.44,2057.36L1916.42,2035.56L1954.46,1989.06L1983.45,1963.76L2008.75,1936.13L2053.84,1902.03L2088.43,1871.28L2114.95,1854.98L2155.61,1823.73L2233.04,1776.78L2294.64,1751.45L2331.61,1739.63L2366.25,1732.31L2422.5,1712.55L2452.5,1708.63L2497.5,1707.71L2527.5,1702.42L2561.25,1700.43L2632.5,1706.54L2674.28,1706.08L2714.38,1716.22Z M2611.8,2240.2L2653.68,2257.27L2685,2279.63L2715,2292.07L2731.25,2303.27L2748.73,2331.84L2782.75,2368.74L2788.82,2378.19L2803.89,2419.89L2824.77,2458.33L2830.02,2473.33L2836.62,2506.87L2839.15,2543.57L2838.01,2582.91L2833.76,2625.41L2814.14,2677.91L2810.51,2720.41L2805.56,2730.41L2786.15,2752.46L2754.17,2797.49L2691.92,2856.75L2613.75,2899.21L2601.25,2902.66L2546.25,2908.62L2508.75,2923.79L2492.5,2926.92L2477.5,2925.56L2433.75,2910.99L2378.75,2910.62L2366.25,2907.87L2295.54,2869.36L2255.17,2831.38L2233.36,2814.16L2177.09,2739.16L2169.13,2725.41L2166.88,2706.66L2168.07,2677.91L2154.97,2627.91L2151.39,2591.66L2153.54,2574.16L2165.14,2536.66L2167.59,2495.41L2172.9,2469.16L2214.06,2398.39L2251.59,2356.82L2269.48,2333.51L2355.73,2264.14L2415,2235.3L2438.75,2229.25L2497.5,2229.95L2540,2219.61L2557.5,2217.84L2600.35,2236.56Z" /></g>
    <g data-iso="102"><path d="M4920,1925.41L4919.38,4157.29L4918.13,4796.04L4916.25,5116.66L4913.75,5119.16L3991.88,5122.29L1847.5,5122.91L314.38,5121.04L6.25,5119.16L3.75,5116.66L0.63,4157.29L0,1925.41L1.88,329.79L3.75,9.16L6.25,6.66L1847.5,2.91L3991.88,3.54L4913.75,6.66L4920,12.91L4920,969.16Z M2697.09,1962.56L2723.88,1975.01L2790,1999.67L2809.27,2012.25L2852.01,2031.89L2937.77,2099.16L2959.87,2126.69L2992.19,2159.52L3008.48,2188L3035.78,2227.91L3057.08,2281.66L3087.87,2344.16L3108.02,2401.66L3111.35,2419.16L3114.57,2480.41L3124.64,2525.41L3123.8,2555.41L3117.34,2600.41L3119.69,2660.41L3099.3,2718.82L3090.75,2751.53L3070.07,2801.96L3058.26,2843.85L3047.05,2866.04L3002.54,2933.85L2953.76,2991.89L2891.25,3052.8L2809.02,3114.62L2735,3152.58L2693.75,3162.1L2636.25,3183.64L2600,3192.97L2532.5,3201.71L2475,3204.59L2422.16,3203.52L2378.87,3197.94L2342.4,3189.79L2298.41,3175.63L2251.25,3167.1L2212.5,3149.88L2151.69,3115.09L2120.51,3090.6L2094.43,3074.13L2050.71,3031.66L2028.99,3014.16L1960.5,2927.91L1918.39,2855.41L1906.47,2822.91L1895.69,2780.41L1879.33,2697.91L1874.23,2652.91L1885.97,2522.91L1895.47,2482.91L1906.23,2450.41L1921.9,2416.66L1939.26,2359.16L1955.74,2322.91L1985.64,2272.46L2012.09,2239.42L2028.67,2214.42L2104.1,2131.66L2171.73,2071.66L2229.59,2028.97L2260,2011.14L2298.75,1992.41L2332.5,1981.24L2373.75,1971.14L2422.5,1950.41L2505,1943.28L2566.38,1943.02L2677.34,1952.91L2687.22,1957.73Z" /></g>
    <g data-label="kontur-tall">
      <text x="0.63" y="4157.29" text-anchor="middle">0</text>
      <text x="2342.4" y="3189.79" text-anchor="middle">250</text>
    </g>
  </g>
  <g data-layer="stein" data-iso="213">
    <use href="#iso-sym-knaus" x="2359.4mm" y="3542.31mm" width="1.2mm" height="1.2mm"/>
    <use href="#iso-sym-knaus" x="2479.4mm" y="3542.31mm" width="1.2mm" height="1.2mm"/>
    <use href="#iso-sym-knaus" x="2039.4mm" y="3482.31mm" width="1.2mm" height="1.2mm"/>
    <use href="#iso-sym-knaus" x="2159.4mm" y="3482.31mm" width="1.2mm" height="1.2mm"/>
    <use href="#iso-sym-knaus" x="2299.4mm" y="3482.31mm" width="1.2mm" height="1.2mm"/>
    <use href="#iso-sym-knaus" x="2419.4mm" y="3482.31mm" width="1.2mm" height="1.2mm"/>
    <use href="#iso-sym-knaus" x="2539.4mm" y="3482.31mm" width="1.2mm" height="1.2mm"/>
    <use href="#iso-sym-knaus" x="2679.4mm" y="3482.31mm" width="1.2mm" height="1.2mm"/>
    <use href="#iso-sym-knaus" x="2799.4mm" y="3482.31mm" width="1.2mm" height="1.2mm"/>
    <use href="#iso-sym-knaus" x="2919.4mm" y="3482.31mm" width="1.2mm" height="1.2mm"/>
    <use href="#iso-sym-knaus" x="1859.4mm" y="3422.31mm" width="1.2mm" height="1.2mm"/>
    <use href="#iso-sym-knaus" x="1979.4mm" y="3422.31mm" width="1.2mm" height="1.2mm"/>
    <use href="#iso-sym-knaus" x="2099.4mm" y="3422.31mm" width="1.2mm" height="1.2mm"/>
    <use href="#iso-sym-knaus" x="2239.4mm" y="3422.31mm" width="1.2mm" height="1.2mm"/>
    <use href="#iso-sym-knaus" x="2359.4mm" y="3422.31mm" width="1.2mm" height="1.2mm"/>
    <use href="#iso-sym-knaus" x="2479.4mm" y="3422.31mm" width="1.2mm" height="1.2mm"/>
    <use href="#iso-sym-knaus" x="2599.4mm" y="3422.31mm" width="1.2mm" height="1.2mm"/>
    <use href="#iso-sym-knaus" x="2739.4mm" y="3422.31mm" width="1.2mm" height="1.2mm"/>
    <use href="#iso-sym-knaus" x="2859.4mm" y="3422.31mm" width="1.2mm" height="1.2mm"/>
    <use href="#iso-sym-knaus" x="2979.4mm" y="3422.31mm" width="1.2mm" height="1.2mm"/>
    <use href="#iso-sym-knaus" x="1919.4mm" y="3362.31mm" width="1.2mm" height="1.2mm"/>
    <use href="#iso-sym-knaus" x="2039.4mm" y="3362.31mm" width="1.2mm" height="1.2mm"/>
    <use href="#iso-sym-knaus" x="2159.4mm" y="3362.31mm" width="1.2mm" height="1.2mm"/>
    <use href="#iso-sym-knaus" x="2299.4mm" y="3362.31mm" width="1.2mm" height="1.2mm"/>
    <use href="#iso-sym-knaus" x="2419.4mm" y="3362.31mm" width="1.2mm" height="1.2mm"/>
    <use href="#iso-sym-knaus" x="2539.4mm" y="3362.31mm" width="1.2mm" height="1.2mm"/>
    <use href="#iso-sym-knaus" x="2679.4mm" y="3362.31mm" width="1.2mm" height="1.2mm"/>
    <use href="#iso-sym-knaus" x="2799.4mm" y="3362.31mm" width="1.2mm" height="1.2mm"/>
    <use href="#iso-sym-knaus" x="2919.4mm" y="3362.31mm" width="1.2mm" height="1.2mm"/>
    <use href="#iso-sym-knaus" x="3039.4mm" y="3362.31mm" width="1.2mm" height="1.2mm"/>
    <use href="#iso-sym-knaus" x="1859.4mm" y="3302.31mm" width="1.2mm" height="1.2mm"/>
    <use href="#iso-sym-knaus" x="1979.4mm" y="3302.31mm" width="1.2mm" height="1.2mm"/>
    <use href="#iso-sym-knaus" x="2099.4mm" y="3302.31mm" width="1.2mm" height="1.2mm"/>
    <use href="#iso-sym-knaus" x="2239.4mm" y="3302.31mm" width="1.2mm" height="1.2mm"/>
    <use href="#iso-sym-knaus" x="2359.4mm" y="3302.31mm" width="1.2mm" height="1.2mm"/>
    <use href="#iso-sym-knaus" x="2479.4mm" y="3302.31mm" width="1.2mm" height="1.2mm"/>
    <use href="#iso-sym-knaus" x="2599.4mm" y="3302.31mm" width="1.2mm" height="1.2mm"/>
    <use href="#iso-sym-knaus" x="2739.4mm" y="3302.31mm" width="1.2mm" height="1.2mm"/>
    <use href="#iso-sym-knaus" x="2859.4mm" y="3302.31mm" width="1.2mm" height="1.2mm"/>
    <use href="#iso-sym-knaus" x="2979.4mm" y="3302.31mm" width="1.2mm" height="1.2mm"/>
    <use href="#iso-sym-knaus" x="3239.4mm" y="3302.31mm" width="1.2mm" height="1.2mm"/>
    <use href="#iso-sym-knaus" x="1659.4mm" y="3242.31mm" width="1.2mm" height="1.2mm"/>
    <use href="#iso-sym-knaus" x="1799.4mm" y="3242.31mm" width="1.2mm" height="1.2mm"/>
    <use href="#iso-sym-knaus" x="1919.4mm" y="3242.31mm" width="1.2mm" height="1.2mm"/>
    <use href="#iso-sym-knaus" x="2039.4mm" y="3242.31mm" width="1.2mm" height="1.2mm"/>
    <use href="#iso-sym-knaus" x="2159.4mm" y="3242.31mm" width="1.2mm" height="1.2mm"/>
    <use href="#iso-sym-knaus" x="2299.4mm" y="3242.31mm" width="1.2mm" height="1.2mm"/>
    <use href="#iso-sym-knaus" x="2419.4mm" y="3242.31mm" width="1.2mm" height="1.2mm"/>
    <use href="#iso-sym-knaus" x="2539.4mm" y="3242.31mm" width="1.2mm" height="1.2mm"/>
    <use href="#iso-sym-knaus" x="2679.4mm" y="3242.31mm" width="1.2mm" height="1.2mm"/>
    <use href="#iso-sym-knaus" x="2799.4mm" y="3242.31mm" width="1.2mm" height="1.2mm"/>
    <use href="#iso-sym-knaus" x="2919.4mm" y="3242.31mm" width="1.2mm" height="1.2mm"/>
    <use href="#iso-sym-knaus" x="3039.4mm" y="3242.31mm" width="1.2mm" height="1.2mm"/>
    <use href="#iso-sym-knaus" x="3179.4mm" y="3242.31mm" width="1.2mm" height="1.2mm"/>
    <use href="#iso-sym-knaus" x="1719.4mm" y="3182.31mm" width="1.2mm" height="1.2mm"/>
    <use href="#iso-sym-knaus" x="1859.4mm" y="3182.31mm" width="1.2mm" height="1.2mm"/>
    <use href="#iso-sym-knaus" x="1979.4mm" y="3182.31mm" width="1.2mm" height="1.2mm"/>
    <use href="#iso-sym-knaus" x="2099.4mm" y="3182.31mm" width="1.2mm" height="1.2mm"/>
    <use href="#iso-sym-knaus" x="2239.4mm" y="3182.31mm" width="1.2mm" height="1.2mm"/>
    <use href="#iso-sym-knaus" x="2359.4mm" y="3182.31mm" width="1.2mm" height="1.2mm"/>
    <use href="#iso-sym-knaus" x="2479.4mm" y="3182.31mm" width="1.2mm" height="1.2mm"/>
    <use href="#iso-sym-knaus" x="2599.4mm" y="3182.31mm" width="1.2mm" height="1.2mm"/>
    <use href="#iso-sym-knaus" x="2739.4mm" y="3182.31mm" width="1.2mm" height="1.2mm"/>
    <use href="#iso-sym-knaus" x="2859.4mm" y="3182.31mm" width="1.2mm" height="1.2mm"/>
    <use href="#iso-sym-knaus" x="2979.4mm" y="3182.31mm" width="1.2mm" height="1.2mm"/>
    <use href="#iso-sym-knaus" x="3099.4mm" y="3182.31mm" width="1.2mm" height="1.2mm"/>
    <use href="#iso-sym-knaus" x="3239.4mm" y="3182.31mm" width="1.2mm" height="1.2mm"/>
    <use href="#iso-sym-knaus" x="1659.4mm" y="3102.31mm" width="1.2mm" height="1.2mm"/>
    <use href="#iso-sym-knaus" x="1799.4mm" y="3102.31mm" width="1.2mm" height="1.2mm"/>
    <use href="#iso-sym-knaus" x="1919.4mm" y="3102.31mm" width="1.2mm" height="1.2mm"/>
    <use href="#iso-sym-knaus" x="2039.4mm" y="3102.31mm" width="1.2mm" height="1.2mm"/>
    <use href="#iso-sym-knaus" x="2159.4mm" y="3102.31mm" width="1.2mm" height="1.2mm"/>
    <use href="#iso-sym-knaus" x="2299.4mm" y="3102.31mm" width="1.2mm" height="1.2mm"/>
    <use href="#iso-sym-knaus" x="2419.4mm" y="3102.31mm" width="1.2mm" height="1.2mm"/>
    <use href="#iso-sym-knaus" x="2539.4mm" y="3102.31mm" width="1.2mm" height="1.2mm"/>
    <use href="#iso-sym-knaus" x="2679.4mm" y="3102.31mm" width="1.2mm" height="1.2mm"/>
    <use href="#iso-sym-knaus" x="2799.4mm" y="3102.31mm" width="1.2mm" height="1.2mm"/>
    <use href="#iso-sym-knaus" x="2919.4mm" y="3102.31mm" width="1.2mm" height="1.2mm"/>
    <use href="#iso-sym-knaus" x="3039.4mm" y="3102.31mm" width="1.2mm" height="1.2mm"/>
    <use href="#iso-sym-knaus" x="3179.4mm" y="3102.31mm" width="1.2mm" height="1.2mm"/>
    <use href="#iso-sym-knaus" x="1599.4mm" y="3042.31mm" width="1.2mm" height="1.2mm"/>
    <use href="#iso-sym-knaus" x="1719.4mm" y="3042.31mm" width="1.2mm" height="1.2mm"/>
    <use href="#iso-sym-knaus" x="1859.4mm" y="3042.31mm" width="1.2mm" height="1.2mm"/>
    <use href="#iso-sym-knaus" x="1979.4mm" y="3042.31mm" width="1.2mm" height="1.2mm"/>
    <use href="#iso-sym-knaus" x="2099.4mm" y="3042.31mm" width="1.2mm" height="1.2mm"/>
    <use href="#iso-sym-knaus" x="2239.4mm" y="3042.31mm" width="1.2mm" height="1.2mm"/>
    <use href="#iso-sym-knaus" x="2359.4mm" y="3042.31mm" width="1.2mm" height="1.2mm"/>
    <use href="#iso-sym-knaus" x="2479.4mm" y="3042.31mm" width="1.2mm" height="1.2mm"/>
    <use href="#iso-sym-knaus" x="2599.4mm" y="3042.31mm" width="1.2mm" height="1.2mm"/>
    <use href="#iso-sym-knaus" x="2739.4mm" y="3042.31mm" width="1.2mm" height="1.2mm"/>
    <use href="#iso-sym-knaus" x="2859.4mm" y="3042.31mm" width="1.2mm" height="1.2mm"/>
    <use href="#iso-sym-knaus" x="2979.4mm" y="3042.31mm" width="1.2mm" height="1.2mm"/>
    <use href="#iso-sym-knaus" x="3099.4mm" y="3042.31mm" width="1.2mm" height="1.2mm"/>
    <use href="#iso-sym-knaus" x="3239.4mm" y="3042.31mm" width="1.2mm" height="1.2mm"/>
    <use href="#iso-sym-knaus" x="3359.4mm" y="3042.31mm" width="1.2mm" height="1.2mm"/>
    <use href="#iso-sym-knaus" x="1539.4mm" y="2982.31mm" width="1.2mm" height="1.2mm"/>
    <use href="#iso-sym-knaus" x="1659.4mm" y="2982.31mm" width="1.2mm" height="1.2mm"/>
    <use href="#iso-sym-knaus" x="1799.4mm" y="2982.31mm" width="1.2mm" height="1.2mm"/>
    <use href="#iso-sym-knaus" x="1919.4mm" y="2982.31mm" width="1.2mm" height="1.2mm"/>
    <use href="#iso-sym-knaus" x="2039.4mm" y="2982.31mm" width="1.2mm" height="1.2mm"/>
    <use href="#iso-sym-knaus" x="2159.4mm" y="2982.31mm" width="1.2mm" height="1.2mm"/>
    <use href="#iso-sym-knaus" x="2299.4mm" y="2982.31mm" width="1.2mm" height="1.2mm"/>
    <use href="#iso-sym-knaus" x="2419.4mm" y="2982.31mm" width="1.2mm" height="1.2mm"/>
    <use href="#iso-sym-knaus" x="2539.4mm" y="2982.31mm" width="1.2mm" height="1.2mm"/>
    <use href="#iso-sym-knaus" x="2679.4mm" y="2982.31mm" width="1.2mm" height="1.2mm"/>
    <use href="#iso-sym-knaus" x="2799.4mm" y="2982.31mm" width="1.2mm" height="1.2mm"/>
    <use href="#iso-sym-knaus" x="2919.4mm" y="2982.31mm" width="1.2mm" height="1.2mm"/>
    <use href="#iso-sym-knaus" x="3039.4mm" y="2982.31mm" width="1.2mm" height="1.2mm"/>
    <use href="#iso-sym-knaus" x="3179.4mm" y="2982.31mm" width="1.2mm" height="1.2mm"/>
    <use href="#iso-sym-knaus" x="3299.4mm" y="2982.31mm" width="1.2mm" height="1.2mm"/>
    <use href="#iso-sym-knaus" x="3419.4mm" y="2982.31mm" width="1.2mm" height="1.2mm"/>
    <use href="#iso-sym-knaus" x="1479.4mm" y="2922.31mm" width="1.2mm" height="1.2mm"/>
    <use href="#iso-sym-knaus" x="1599.4mm" y="2922.31mm" width="1.2mm" height="1.2mm"/>
    <use href="#iso-sym-knaus" x="1719.4mm" y="2922.31mm" width="1.2mm" height="1.2mm"/>
    <use href="#iso-sym-knaus" x="1859.4mm" y="2922.31mm" width="1.2mm" height="1.2mm"/>
    <use href="#iso-sym-knaus" x="1979.4mm" y="2922.31mm" width="1.2mm" height="1.2mm"/>
    <use href="#iso-sym-knaus" x="2099.4mm" y="2922.31mm" width="1.2mm" height="1.2mm"/>
    <use href="#iso-sym-knaus" x="2239.4mm" y="2922.31mm" width="1.2mm" height="1.2mm"/>
    <use href="#iso-sym-knaus" x="2359.4mm" y="2922.31mm" width="1.2mm" height="1.2mm"/>
    <use href="#iso-sym-knaus" x="2479.4mm" y="2922.31mm" width="1.2mm" height="1.2mm"/>
    <use href="#iso-sym-knaus" x="2599.4mm" y="2922.31mm" width="1.2mm" height="1.2mm"/>
    <use href="#iso-sym-knaus" x="2739.4mm" y="2922.31mm" width="1.2mm" height="1.2mm"/>
    <use href="#iso-sym-knaus" x="2859.4mm" y="2922.31mm" width="1.2mm" height="1.2mm"/>
    <use href="#iso-sym-knaus" x="2979.4mm" y="2922.31mm" width="1.2mm" height="1.2mm"/>
    <use href="#iso-sym-knaus" x="3099.4mm" y="2922.31mm" width="1.2mm" height="1.2mm"/>
    <use href="#iso-sym-knaus" x="3239.4mm" y="2922.31mm" width="1.2mm" height="1.2mm"/>
    <use href="#iso-sym-knaus" x="3359.4mm" y="2922.31mm" width="1.2mm" height="1.2mm"/>
    <use href="#iso-sym-knaus" x="1419.4mm" y="2862.31mm" width="1.2mm" height="1.2mm"/>
    <use href="#iso-sym-knaus" x="1539.4mm" y="2862.31mm" width="1.2mm" height="1.2mm"/>
    <use href="#iso-sym-knaus" x="1659.4mm" y="2862.31mm" width="1.2mm" height="1.2mm"/>
    <use href="#iso-sym-knaus" x="1799.4mm" y="2862.31mm" width="1.2mm" height="1.2mm"/>
    <use href="#iso-sym-knaus" x="1919.4mm" y="2862.31mm" width="1.2mm" height="1.2mm"/>
    <use href="#iso-sym-knaus" x="2039.4mm" y="2862.31mm" width="1.2mm" height="1.2mm"/>
    <use href="#iso-sym-knaus" x="2159.4mm" y="2862.31mm" width="1.2mm" height="1.2mm"/>
    <use href="#iso-sym-knaus" x="2299.4mm" y="2862.31mm" width="1.2mm" height="1.2mm"/>
    <use href="#iso-sym-knaus" x="2419.4mm" y="2862.31mm" width="1.2mm" height="1.2mm"/>
    <use href="#iso-sym-knaus" x="2539.4mm" y="2862.31mm" width="1.2mm" height="1.2mm"/>
    <use href="#iso-sym-knaus" x="2679.4mm" y="2862.31mm" width="1.2mm" height="1.2mm"/>
    <use href="#iso-sym-knaus" x="2799.4mm" y="2862.31mm" width="1.2mm" height="1.2mm"/>
    <use href="#iso-sym-knaus" x="2919.4mm" y="2862.31mm" width="1.2mm" height="1.2mm"/>
    <use href="#iso-sym-knaus" x="3039.4mm" y="2862.31mm" width="1.2mm" height="1.2mm"/>
    <use href="#iso-sym-knaus" x="3179.4mm" y="2862.31mm" width="1.2mm" height="1.2mm"/>
    <use href="#iso-sym-knaus" x="3299.4mm" y="2862.31mm" width="1.2mm" height="1.2mm"/>
    <use href="#iso-sym-knaus" x="3419.4mm" y="2862.31mm" width="1.2mm" height="1.2mm"/>
    <use href="#iso-sym-knaus" x="1479.4mm" y="2802.31mm" width="1.2mm" height="1.2mm"/>
    <use href="#iso-sym-knaus" x="1599.4mm" y="2802.31mm" width="1.2mm" height="1.2mm"/>
    <use href="#iso-sym-knaus" x="1719.4mm" y="2802.31mm" width="1.2mm" height="1.2mm"/>
    <use href="#iso-sym-knaus" x="1859.4mm" y="2802.31mm" width="1.2mm" height="1.2mm"/>
    <use href="#iso-sym-knaus" x="1979.4mm" y="2802.31mm" width="1.2mm" height="1.2mm"/>
    <use href="#iso-sym-knaus" x="2099.4mm" y="2802.31mm" width="1.2mm" height="1.2mm"/>
    <use href="#iso-sym-knaus" x="2239.4mm" y="2802.31mm" width="1.2mm" height="1.2mm"/>
    <use href="#iso-sym-knaus" x="2359.4mm" y="2802.31mm" width="1.2mm" height="1.2mm"/>
    <use href="#iso-sym-knaus" x="2479.4mm" y="2802.31mm" width="1.2mm" height="1.2mm"/>
    <use href="#iso-sym-knaus" x="2599.4mm" y="2802.31mm" width="1.2mm" height="1.2mm"/>
    <use href="#iso-sym-knaus" x="2739.4mm" y="2802.31mm" width="1.2mm" height="1.2mm"/>
    <use href="#iso-sym-knaus" x="2859.4mm" y="2802.31mm" width="1.2mm" height="1.2mm"/>
    <use href="#iso-sym-knaus" x="2979.4mm" y="2802.31mm" width="1.2mm" height="1.2mm"/>
    <use href="#iso-sym-knaus" x="3099.4mm" y="2802.31mm" width="1.2mm" height="1.2mm"/>
    <use href="#iso-sym-knaus" x="3239.4mm" y="2802.31mm" width="1.2mm" height="1.2mm"/>
    <use href="#iso-sym-knaus" x="3359.4mm" y="2802.31mm" width="1.2mm" height="1.2mm"/>
    <use href="#iso-sym-knaus" x="1539.4mm" y="2742.31mm" width="1.2mm" height="1.2mm"/>
    <use href="#iso-sym-knaus" x="1659.4mm" y="2742.31mm" width="1.2mm" height="1.2mm"/>
    <use href="#iso-sym-knaus" x="1799.4mm" y="2742.31mm" width="1.2mm" height="1.2mm"/>
    <use href="#iso-sym-knaus" x="1919.4mm" y="2742.31mm" width="1.2mm" height="1.2mm"/>
    <use href="#iso-sym-knaus" x="2039.4mm" y="2742.31mm" width="1.2mm" height="1.2mm"/>
    <use href="#iso-sym-knaus" x="2159.4mm" y="2742.31mm" width="1.2mm" height="1.2mm"/>
    <use href="#iso-sym-knaus" x="2299.4mm" y="2742.31mm" width="1.2mm" height="1.2mm"/>
    <use href="#iso-sym-knaus" x="2419.4mm" y="2742.31mm" width="1.2mm" height="1.2mm"/>
    <use href="#iso-sym-knaus" x="2539.4mm" y="2742.31mm" width="1.2mm" height="1.2mm"/>
    <use href="#iso-sym-knaus" x="2679.4mm" y="2742.31mm" width="1.2mm" height="1.2mm"/>
    <use href="#iso-sym-knaus" x="2799.4mm" y="2742.31mm" width="1.2mm" height="1.2mm"/>
    <use href="#iso-sym-knaus" x="2919.4mm" y="2742.31mm" width="1.2mm" height="1.2mm"/>
    <use href="#iso-sym-knaus" x="3039.4mm" y="2742.31mm" width="1.2mm" height="1.2mm"/>
    <use href="#iso-sym-knaus" x="3179.4mm" y="2742.31mm" width="1.2mm" height="1.2mm"/>
    <use href="#iso-sym-knaus" x="3299.4mm" y="2742.31mm" width="1.2mm" height="1.2mm"/>
    <use href="#iso-sym-knaus" x="3419.4mm" y="2742.31mm" width="1.2mm" height="1.2mm"/>
    <use href="#iso-sym-knaus" x="1599.4mm" y="2662.31mm" width="1.2mm" height="1.2mm"/>
    <use href="#iso-sym-knaus" x="1719.4mm" y="2662.31mm" width="1.2mm" height="1.2mm"/>
    <use href="#iso-sym-knaus" x="1859.4mm" y="2662.31mm" width="1.2mm" height="1.2mm"/>
    <use href="#iso-sym-knaus" x="1979.4mm" y="2662.31mm" width="1.2mm" height="1.2mm"/>
    <use href="#iso-sym-knaus" x="2099.4mm" y="2662.31mm" width="1.2mm" height="1.2mm"/>
    <use href="#iso-sym-knaus" x="2239.4mm" y="2662.31mm" width="1.2mm" height="1.2mm"/>
    <use href="#iso-sym-knaus" x="2359.4mm" y="2662.31mm" width="1.2mm" height="1.2mm"/>
    <use href="#iso-sym-knaus" x="2479.4mm" y="2662.31mm" width="1.2mm" height="1.2mm"/>
    <use href="#iso-sym-knaus" x="2599.4mm" y="2662.31mm" width="1.2mm" height="1.2mm"/>
    <use href="#iso-sym-knaus" x="2739.4mm" y="2662.31mm" width="1.2mm" height="1.2mm"/>
    <use href="#iso-sym-knaus" x="2859.4mm" y="2662.31mm" width="1.2mm" height="1.2mm"/>
    <use href="#iso-sym-knaus" x="2979.4mm" y="2662.31mm" width="1.2mm" height="1.2mm"/>
    <use href="#iso-sym-knaus" x="3099.4mm" y="2662.31mm" width="1.2mm" height="1.2mm"/>
    <use href="#iso-sym-knaus" x="3239.4mm" y="2662.31mm" width="1.2mm" height="1.2mm"/>
    <use href="#iso-sym-knaus" x="3359.4mm" y="2662.31mm" width="1.2mm" height="1.2mm"/>
    <use href="#iso-sym-knaus" x="1539.4mm" y="2602.31mm" width="1.2mm" height="1.2mm"/>
    <use href="#iso-sym-knaus" x="1659.4mm" y="2602.31mm" width="1.2mm" height="1.2mm"/>
    <use href="#iso-sym-knaus" x="1799.4mm" y="2602.31mm" width="1.2mm" height="1.2mm"/>
    <use href="#iso-sym-knaus" x="1919.4mm" y="2602.31mm" width="1.2mm" height="1.2mm"/>
    <use href="#iso-sym-knaus" x="2039.4mm" y="2602.31mm" width="1.2mm" height="1.2mm"/>
    <use href="#iso-sym-knaus" x="2159.4mm" y="2602.31mm" width="1.2mm" height="1.2mm"/>
    <use href="#iso-sym-knaus" x="2299.4mm" y="2602.31mm" width="1.2mm" height="1.2mm"/>
    <use href="#iso-sym-knaus" x="2419.4mm" y="2602.31mm" width="1.2mm" height="1.2mm"/>
    <use href="#iso-sym-knaus" x="2539.4mm" y="2602.31mm" width="1.2mm" height="1.2mm"/>
    <use href="#iso-sym-knaus" x="2679.4mm" y="2602.31mm" width="1.2mm" height="1.2mm"/>
    <use href="#iso-sym-knaus" x="2799.4mm" y="2602.31mm" width="1.2mm" height="1.2mm"/>
    <use href="#iso-sym-knaus" x="2919.4mm" y="2602.31mm" width="1.2mm" height="1.2mm"/>
    <use href="#iso-sym-knaus" x="3039.4mm" y="2602.31mm" width="1.2mm" height="1.2mm"/>
    <use href="#iso-sym-knaus" x="3179.4mm" y="2602.31mm" width="1.2mm" height="1.2mm"/>
    <use href="#iso-sym-knaus" x="3299.4mm" y="2602.31mm" width="1.2mm" height="1.2mm"/>
    <use href="#iso-sym-knaus" x="3419.4mm" y="2602.31mm" width="1.2mm" height="1.2mm"/>
    <use href="#iso-sym-knaus" x="1479.4mm" y="2542.31mm" width="1.2mm" height="1.2mm"/>
    <use href="#iso-sym-knaus" x="1599.4mm" y="2542.31mm" width="1.2mm" height="1.2mm"/>
    <use href="#iso-sym-knaus" x="1719.4mm" y="2542.31mm" width="1.2mm" height="1.2mm"/>
    <use href="#iso-sym-knaus" x="1859.4mm" y="2542.31mm" width="1.2mm" height="1.2mm"/>
    <use href="#iso-sym-knaus" x="1979.4mm" y="2542.31mm" width="1.2mm" height="1.2mm"/>
    <use href="#iso-sym-knaus" x="2099.4mm" y="2542.31mm" width="1.2mm" height="1.2mm"/>
    <use href="#iso-sym-knaus" x="2239.4mm" y="2542.31mm" width="1.2mm" height="1.2mm"/>
    <use href="#iso-sym-knaus" x="2359.4mm" y="2542.31mm" width="1.2mm" height="1.2mm"/>
    <use href="#iso-sym-knaus" x="2479.4mm" y="2542.31mm" width="1.2mm" height="1.2mm"/>
    <use href="#iso-sym-knaus" x="2599.4mm" y="2542.31mm" width="1.2mm" height="1.2mm"/>
    <use href="#iso-sym-knaus" x="2739.4mm" y="2542.31mm" width="1.2mm" height="1.2mm"/>
    <use href="#iso-sym-knaus" x="2859.4mm" y="2542.31mm" width="1.2mm" height="1.2mm"/>
    <use href="#iso-sym-knaus" x="2979.4mm" y="2542.31mm" width="1.2mm" height="1.2mm"/>
    <use href="#iso-sym-knaus" x="3099.4mm" y="2542.31mm" width="1.2mm" height="1.2mm"/>
    <use href="#iso-sym-knaus" x="3239.4mm" y="2542.31mm" width="1.2mm" height="1.2mm"/>
    <use href="#iso-sym-knaus" x="3359.4mm" y="2542.31mm" width="1.2mm" height="1.2mm"/>
    <use href="#iso-sym-knaus" x="3479.4mm" y="2542.31mm" width="1.2mm" height="1.2mm"/>
    <use href="#iso-sym-knaus" x="1539.4mm" y="2482.31mm" width="1.2mm" height="1.2mm"/>
    <use href="#iso-sym-knaus" x="1659.4mm" y="2482.31mm" width="1.2mm" height="1.2mm"/>
    <use href="#iso-sym-knaus" x="1799.4mm" y="2482.31mm" width="1.2mm" height="1.2mm"/>
    <use href="#iso-sym-knaus" x="1919.4mm" y="2482.31mm" width="1.2mm" height="1.2mm"/>
    <use href="#iso-sym-knaus" x="2039.4mm" y="2482.31mm" width="1.2mm" height="1.2mm"/>
    <use href="#iso-sym-knaus" x="2159.4mm" y="2482.31mm" width="1.2mm" height="1.2mm"/>
    <use href="#iso-sym-knaus" x="2299.4mm" y="2482.31mm" width="1.2mm" height="1.2mm"/>
    <use href="#iso-sym-knaus" x="2419.4mm" y="2482.31mm" width="1.2mm" height="1.2mm"/>
    <use href="#iso-sym-knaus" x="2539.4mm" y="2482.31mm" width="1.2mm" height="1.2mm"/>
    <use href="#iso-sym-knaus" x="2679.4mm" y="2482.31mm" width="1.2mm" height="1.2mm"/>
    <use href="#iso-sym-knaus" x="2799.4mm" y="2482.31mm" width="1.2mm" height="1.2mm"/>
    <use href="#iso-sym-knaus" x="2919.4mm" y="2482.31mm" width="1.2mm" height="1.2mm"/>
    <use href="#iso-sym-knaus" x="3039.4mm" y="2482.31mm" width="1.2mm" height="1.2mm"/>
    <use href="#iso-sym-knaus" x="3179.4mm" y="2482.31mm" width="1.2mm" height="1.2mm"/>
    <use href="#iso-sym-knaus" x="3299.4mm" y="2482.31mm" width="1.2mm" height="1.2mm"/>
    <use href="#iso-sym-knaus" x="3419.4mm" y="2482.31mm" width="1.2mm" height="1.2mm"/>
    <use href="#iso-sym-knaus" x="1479.4mm" y="2422.31mm" width="1.2mm" height="1.2mm"/>
    <use href="#iso-sym-knaus" x="1599.4mm" y="2422.31mm" width="1.2mm" height="1.2mm"/>
    <use href="#iso-sym-knaus" x="1719.4mm" y="2422.31mm" width="1.2mm" height="1.2mm"/>
    <use href="#iso-sym-knaus" x="1859.4mm" y="2422.31mm" width="1.2mm" height="1.2mm"/>
    <use href="#iso-sym-knaus" x="1979.4mm" y="2422.31mm" width="1.2mm" height="1.2mm"/>
    <use href="#iso-sym-knaus" x="2099.4mm" y="2422.31mm" width="1.2mm" height="1.2mm"/>
    <use href="#iso-sym-knaus" x="2239.4mm" y="2422.31mm" width="1.2mm" height="1.2mm"/>
    <use href="#iso-sym-knaus" x="2359.4mm" y="2422.31mm" width="1.2mm" height="1.2mm"/>
    <use href="#iso-sym-knaus" x="2479.4mm" y="2422.31mm" width="1.2mm" height="1.2mm"/>
    <use href="#iso-sym-knaus" x="2599.4mm" y="2422.31mm" width="1.2mm" height="1.2mm"/>
    <use href="#iso-sym-knaus" x="2739.4mm" y="2422.31mm" width="1.2mm" height="1.2mm"/>
    <use href="#iso-sym-knaus" x="2859.4mm" y="2422.31mm" width="1.2mm" height="1.2mm"/>
    <use href="#iso-sym-knaus" x="2979.4mm" y="2422.31mm" width="1.2mm" height="1.2mm"/>
    <use href="#iso-sym-knaus" x="3099.4mm" y="2422.31mm" width="1.2mm" height="1.2mm"/>
    <use href="#iso-sym-knaus" x="3239.4mm" y="2422.31mm" width="1.2mm" height="1.2mm"/>
    <use href="#iso-sym-knaus" x="3359.4mm" y="2422.31mm" width="1.2mm" height="1.2mm"/>
    <use href="#iso-sym-knaus" x="3479.4mm" y="2422.31mm" width="1.2mm" height="1.2mm"/>
    <use href="#iso-sym-knaus" x="1539.4mm" y="2362.31mm" width="1.2mm" height="1.2mm"/>
    <use href="#iso-sym-knaus" x="1659.4mm" y="2362.31mm" width="1.2mm" height="1.2mm"/>
    <use href="#iso-sym-knaus" x="1799.4mm" y="2362.31mm" width="1.2mm" height="1.2mm"/>
    <use href="#iso-sym-knaus" x="1919.4mm" y="2362.31mm" width="1.2mm" height="1.2mm"/>
    <use href="#iso-sym-knaus" x="2039.4mm" y="2362.31mm" width="1.2mm" height="1.2mm"/>
    <use href="#iso-sym-knaus" x="2159.4mm" y="2362.31mm" width="1.2mm" height="1.2mm"/>
    <use href="#iso-sym-knaus" x="2299.4mm" y="2362.31mm" width="1.2mm" height="1.2mm"/>
    <use href="#iso-sym-knaus" x="2419.4mm" y="2362.31mm" width="1.2mm" height="1.2mm"/>
    <use href="#iso-sym-knaus" x="2539.4mm" y="2362.31mm" width="1.2mm" height="1.2mm"/>
    <use href="#iso-sym-knaus" x="2679.4mm" y="2362.31mm" width="1.2mm" height="1.2mm"/>
    <use href="#iso-sym-knaus" x="2799.4mm" y="2362.31mm" width="1.2mm" height="1.2mm"/>
    <use href="#iso-sym-knaus" x="2919.4mm" y="2362.31mm" width="1.2mm" height="1.2mm"/>
    <use href="#iso-sym-knaus" x="3039.4mm" y="2362.31mm" width="1.2mm" height="1.2mm"/>
    <use href="#iso-sym-knaus" x="3179.4mm" y="2362.31mm" width="1.2mm" height="1.2mm"/>
    <use href="#iso-sym-knaus" x="3299.4mm" y="2362.31mm" width="1.2mm" height="1.2mm"/>
    <use href="#iso-sym-knaus" x="3419.4mm" y="2362.31mm" width="1.2mm" height="1.2mm"/>
    <use href="#iso-sym-knaus" x="1599.4mm" y="2302.31mm" width="1.2mm" height="1.2mm"/>
    <use href="#iso-sym-knaus" x="1719.4mm" y="2302.31mm" width="1.2mm" height="1.2mm"/>
    <use href="#iso-sym-knaus" x="1859.4mm" y="2302.31mm" width="1.2mm" height="1.2mm"/>
    <use href="#iso-sym-knaus" x="1979.4mm" y="2302.31mm" width="1.2mm" height="1.2mm"/>
    <use href="#iso-sym-knaus" x="2099.4mm" y="2302.31mm" width="1.2mm" height="1.2mm"/>
    <use href="#iso-sym-knaus" x="2239.4mm" y="2302.31mm" width="1.2mm" height="1.2mm"/>
    <use href="#iso-sym-knaus" x="2359.4mm" y="2302.31mm" width="1.2mm" height="1.2mm"/>
    <use href="#iso-sym-knaus" x="2479.4mm" y="2302.31mm" width="1.2mm" height="1.2mm"/>
    <use href="#iso-sym-knaus" x="2599.4mm" y="2302.31mm" width="1.2mm" height="1.2mm"/>
    <use href="#iso-sym-knaus" x="2739.4mm" y="2302.31mm" width="1.2mm" height="1.2mm"/>
    <use href="#iso-sym-knaus" x="2859.4mm" y="2302.31mm" width="1.2mm" height="1.2mm"/>
    <use href="#iso-sym-knaus" x="2979.4mm" y="2302.31mm" width="1.2mm" height="1.2mm"/>
    <use href="#iso-sym-knaus" x="3099.4mm" y="2302.31mm" width="1.2mm" height="1.2mm"/>
    <use href="#iso-sym-knaus" x="3239.4mm" y="2302.31mm" width="1.2mm" height="1.2mm"/>
    <use href="#iso-sym-knaus" x="3359.4mm" y="2302.31mm" width="1.2mm" height="1.2mm"/>
    <use href="#iso-sym-knaus" x="1799.4mm" y="2242.31mm" width="1.2mm" height="1.2mm"/>
    <use href="#iso-sym-knaus" x="1919.4mm" y="2242.31mm" width="1.2mm" height="1.2mm"/>
    <use href="#iso-sym-knaus" x="2039.4mm" y="2242.31mm" width="1.2mm" height="1.2mm"/>
    <use href="#iso-sym-knaus" x="2159.4mm" y="2242.31mm" width="1.2mm" height="1.2mm"/>
    <use href="#iso-sym-knaus" x="2299.4mm" y="2242.31mm" width="1.2mm" height="1.2mm"/>
    <use href="#iso-sym-knaus" x="2419.4mm" y="2242.31mm" width="1.2mm" height="1.2mm"/>
    <use href="#iso-sym-knaus" x="2539.4mm" y="2242.31mm" width="1.2mm" height="1.2mm"/>
    <use href="#iso-sym-knaus" x="2679.4mm" y="2242.31mm" width="1.2mm" height="1.2mm"/>
    <use href="#iso-sym-knaus" x="2799.4mm" y="2242.31mm" width="1.2mm" height="1.2mm"/>
    <use href="#iso-sym-knaus" x="2919.4mm" y="2242.31mm" width="1.2mm" height="1.2mm"/>
    <use href="#iso-sym-knaus" x="3039.4mm" y="2242.31mm" width="1.2mm" height="1.2mm"/>
    <use href="#iso-sym-knaus" x="3179.4mm" y="2222.31mm" width="1.2mm" height="1.2mm"/>
    <use href="#iso-sym-knaus" x="3299.4mm" y="2222.31mm" width="1.2mm" height="1.2mm"/>
    <use href="#iso-sym-knaus" x="1859.4mm" y="2162.31mm" width="1.2mm" height="1.2mm"/>
    <use href="#iso-sym-knaus" x="1979.4mm" y="2162.31mm" width="1.2mm" height="1.2mm"/>
    <use href="#iso-sym-knaus" x="2099.4mm" y="2162.31mm" width="1.2mm" height="1.2mm"/>
    <use href="#iso-sym-knaus" x="2239.4mm" y="2162.31mm" width="1.2mm" height="1.2mm"/>
    <use href="#iso-sym-knaus" x="2359.4mm" y="2162.31mm" width="1.2mm" height="1.2mm"/>
    <use href="#iso-sym-knaus" x="2479.4mm" y="2162.31mm" width="1.2mm" height="1.2mm"/>
    <use href="#iso-sym-knaus" x="2599.4mm" y="2162.31mm" width="1.2mm" height="1.2mm"/>
    <use href="#iso-sym-knaus" x="2739.4mm" y="2162.31mm" width="1.2mm" height="1.2mm"/>
    <use href="#iso-sym-knaus" x="2859.4mm" y="2162.31mm" width="1.2mm" height="1.2mm"/>
    <use href="#iso-sym-knaus" x="2979.4mm" y="2162.31mm" width="1.2mm" height="1.2mm"/>
    <use href="#iso-sym-knaus" x="3099.4mm" y="2162.31mm" width="1.2mm" height="1.2mm"/>
    <use href="#iso-sym-knaus" x="3239.4mm" y="2162.31mm" width="1.2mm" height="1.2mm"/>
    <use href="#iso-sym-knaus" x="3359.4mm" y="2162.31mm" width="1.2mm" height="1.2mm"/>
    <use href="#iso-sym-knaus" x="1799.4mm" y="2102.31mm" width="1.2mm" height="1.2mm"/>
    <use href="#iso-sym-knaus" x="1919.4mm" y="2102.31mm" width="1.2mm" height="1.2mm"/>
    <use href="#iso-sym-knaus" x="2039.4mm" y="2102.31mm" width="1.2mm" height="1.2mm"/>
    <use href="#iso-sym-knaus" x="2159.4mm" y="2102.31mm" width="1.2mm" height="1.2mm"/>
    <use href="#iso-sym-knaus" x="2299.4mm" y="2102.31mm" width="1.2mm" height="1.2mm"/>
    <use href="#iso-sym-knaus" x="2419.4mm" y="2102.31mm" width="1.2mm" height="1.2mm"/>
    <use href="#iso-sym-knaus" x="2539.4mm" y="2102.31mm" width="1.2mm" height="1.2mm"/>
    <use href="#iso-sym-knaus" x="2679.4mm" y="2102.31mm" width="1.2mm" height="1.2mm"/>
    <use href="#iso-sym-knaus" x="2799.4mm" y="2102.31mm" width="1.2mm" height="1.2mm"/>
    <use href="#iso-sym-knaus" x="2919.4mm" y="2102.31mm" width="1.2mm" height="1.2mm"/>
    <use href="#iso-sym-knaus" x="3039.4mm" y="2102.31mm" width="1.2mm" height="1.2mm"/>
    <use href="#iso-sym-knaus" x="3179.4mm" y="2102.31mm" width="1.2mm" height="1.2mm"/>
    <use href="#iso-sym-knaus" x="3299.4mm" y="2102.31mm" width="1.2mm" height="1.2mm"/>
    <use href="#iso-sym-knaus" x="3419.4mm" y="2102.31mm" width="1.2mm" height="1.2mm"/>
    <use href="#iso-sym-knaus" x="1859.4mm" y="2042.31mm" width="1.2mm" height="1.2mm"/>
    <use href="#iso-sym-knaus" x="1979.4mm" y="2042.31mm" width="1.2mm" height="1.2mm"/>
    <use href="#iso-sym-knaus" x="2099.4mm" y="2042.31mm" width="1.2mm" height="1.2mm"/>
    <use href="#iso-sym-knaus" x="2239.4mm" y="2042.31mm" width="1.2mm" height="1.2mm"/>
    <use href="#iso-sym-knaus" x="2359.4mm" y="2042.31mm" width="1.2mm" height="1.2mm"/>
    <use href="#iso-sym-knaus" x="2479.4mm" y="2042.31mm" width="1.2mm" height="1.2mm"/>
    <use href="#iso-sym-knaus" x="2599.4mm" y="2042.31mm" width="1.2mm" height="1.2mm"/>
    <use href="#iso-sym-knaus" x="2739.4mm" y="2042.31mm" width="1.2mm" height="1.2mm"/>
    <use href="#iso-sym-knaus" x="2859.4mm" y="2042.31mm" width="1.2mm" height="1.2mm"/>
    <use href="#iso-sym-knaus" x="2979.4mm" y="2042.31mm" width="1.2mm" height="1.2mm"/>
    <use href="#iso-sym-knaus" x="3099.4mm" y="2042.31mm" width="1.2mm" height="1.2mm"/>
    <use href="#iso-sym-knaus" x="3239.4mm" y="2042.31mm" width="1.2mm" height="1.2mm"/>
    <use href="#iso-sym-knaus" x="3359.4mm" y="2042.31mm" width="1.2mm" height="1.2mm"/>
    <use href="#iso-sym-knaus" x="1919.4mm" y="1982.31mm" width="1.2mm" height="1.2mm"/>
    <use href="#iso-sym-knaus" x="2039.4mm" y="1982.31mm" width="1.2mm" height="1.2mm"/>
    <use href="#iso-sym-knaus" x="2159.4mm" y="1982.31mm" width="1.2mm" height="1.2mm"/>
    <use href="#iso-sym-knaus" x="2299.4mm" y="1982.31mm" width="1.2mm" height="1.2mm"/>
    <use href="#iso-sym-knaus" x="2419.4mm" y="1982.31mm" width="1.2mm" height="1.2mm"/>
    <use href="#iso-sym-knaus" x="2539.4mm" y="1982.31mm" width="1.2mm" height="1.2mm"/>
    <use href="#iso-sym-knaus" x="2679.4mm" y="1982.31mm" width="1.2mm" height="1.2mm"/>
    <use href="#iso-sym-knaus" x="2799.4mm" y="1982.31mm" width="1.2mm" height="1.2mm"/>
    <use href="#iso-sym-knaus" x="2919.4mm" y="1982.31mm" width="1.2mm" height="1.2mm"/>
    <use href="#iso-sym-knaus" x="3039.4mm" y="1982.31mm" width="1.2mm" height="1.2mm"/>
    <use href="#iso-sym-knaus" x="3179.4mm" y="1982.31mm" width="1.2mm" height="1.2mm"/>
    <use href="#iso-sym-knaus" x="3299.4mm" y="1982.31mm" width="1.2mm" height="1.2mm"/>
    <use href="#iso-sym-knaus" x="1979.4mm" y="1922.31mm" width="1.2mm" height="1.2mm"/>
    <use href="#iso-sym-knaus" x="2099.4mm" y="1922.31mm" width="1.2mm" height="1.2mm"/>
    <use href="#iso-sym-knaus" x="2239.4mm" y="1922.31mm" width="1.2mm" height="1.2mm"/>
    <use href="#iso-sym-knaus" x="2359.4mm" y="1922.31mm" width="1.2mm" height="1.2mm"/>
    <use href="#iso-sym-knaus" x="2479.4mm" y="1922.31mm" width="1.2mm" height="1.2mm"/>
    <use href="#iso-sym-knaus" x="2599.4mm" y="1922.31mm" width="1.2mm" height="1.2mm"/>
    <use href="#iso-sym-knaus" x="2739.4mm" y="1922.31mm" width="1.2mm" height="1.2mm"/>
    <use href="#iso-sym-knaus" x="2859.4mm" y="1922.31mm" width="1.2mm" height="1.2mm"/>
    <use href="#iso-sym-knaus" x="2979.4mm" y="1922.31mm" width="1.2mm" height="1.2mm"/>
    <use href="#iso-sym-knaus" x="3099.4mm" y="1922.31mm" width="1.2mm" height="1.2mm"/>
    <use href="#iso-sym-knaus" x="3239.4mm" y="1922.31mm" width="1.2mm" height="1.2mm"/>
    <use href="#iso-sym-knaus" x="2039.4mm" y="1862.31mm" width="1.2mm" height="1.2mm"/>
    <use href="#iso-sym-knaus" x="2159.4mm" y="1862.31mm" width="1.2mm" height="1.2mm"/>
    <use href="#iso-sym-knaus" x="2299.4mm" y="1862.31mm" width="1.2mm" height="1.2mm"/>
    <use href="#iso-sym-knaus" x="2419.4mm" y="1862.31mm" width="1.2mm" height="1.2mm"/>
    <use href="#iso-sym-knaus" x="2539.4mm" y="1862.31mm" width="1.2mm" height="1.2mm"/>
    <use href="#iso-sym-knaus" x="2679.4mm" y="1862.31mm" width="1.2mm" height="1.2mm"/>
    <use href="#iso-sym-knaus" x="2799.4mm" y="1862.31mm" width="1.2mm" height="1.2mm"/>
    <use href="#iso-sym-knaus" x="2919.4mm" y="1862.31mm" width="1.2mm" height="1.2mm"/>
    <use href="#iso-sym-knaus" x="3039.4mm" y="1862.31mm" width="1.2mm" height="1.2mm"/>
    <use href="#iso-sym-knaus" x="2099.4mm" y="1802.31mm" width="1.2mm" height="1.2mm"/>
    <use href="#iso-sym-knaus" x="2239.4mm" y="1802.31mm" width="1.2mm" height="1.2mm"/>
    <use href="#iso-sym-knaus" x="2359.4mm" y="1802.31mm" width="1.2mm" height="1.2mm"/>
    <use href="#iso-sym-knaus" x="2479.4mm" y="1802.31mm" width="1.2mm" height="1.2mm"/>
    <use href="#iso-sym-knaus" x="2599.4mm" y="1802.31mm" width="1.2mm" height="1.2mm"/>
    <use href="#iso-sym-knaus" x="2739.4mm" y="1802.31mm" width="1.2mm" height="1.2mm"/>
    <use href="#iso-sym-knaus" x="2859.4mm" y="1802.31mm" width="1.2mm" height="1.2mm"/>
    <use href="#iso-sym-knaus" x="2979.4mm" y="1802.31mm" width="1.2mm" height="1.2mm"/>
    <use href="#iso-sym-knaus" x="2159.4mm" y="1722.31mm" width="1.2mm" height="1.2mm"/>
    <use href="#iso-sym-knaus" x="2299.4mm" y="1722.31mm" width="1.2mm" height="1.2mm"/>
    <use href="#iso-sym-knaus" x="2419.4mm" y="1722.31mm" width="1.2mm" height="1.2mm"/>
    <use href="#iso-sym-knaus" x="2539.4mm" y="1722.31mm" width="1.2mm" height="1.2mm"/>
    <use href="#iso-sym-knaus" x="2679.4mm" y="1722.31mm" width="1.2mm" height="1.2mm"/>
    <use href="#iso-sym-knaus" x="2799.4mm" y="1722.31mm" width="1.2mm" height="1.2mm"/>
    <use href="#iso-sym-knaus" x="2919.4mm" y="1722.31mm" width="1.2mm" height="1.2mm"/>
    <use href="#iso-sym-knaus" x="2099.4mm" y="1662.31mm" width="1.2mm" height="1.2mm"/>
    <use href="#iso-sym-knaus" x="2239.4mm" y="1662.31mm" width="1.2mm" height="1.2mm"/>
    <use href="#iso-sym-knaus" x="2359.4mm" y="1662.31mm" width="1.2mm" height="1.2mm"/>
    <use href="#iso-sym-knaus" x="2479.4mm" y="1662.31mm" width="1.2mm" height="1.2mm"/>
    <use href="#iso-sym-knaus" x="2599.4mm" y="1662.31mm" width="1.2mm" height="1.2mm"/>
    <use href="#iso-sym-knaus" x="2739.4mm" y="1662.31mm" width="1.2mm" height="1.2mm"/>
    <use href="#iso-sym-knaus" x="2859.4mm" y="1662.31mm" width="1.2mm" height="1.2mm"/>
    <use href="#iso-sym-knaus" x="2979.4mm" y="1662.31mm" width="1.2mm" height="1.2mm"/>
    <use href="#iso-sym-knaus" x="2299.4mm" y="1602.31mm" width="1.2mm" height="1.2mm"/>
    <use href="#iso-sym-knaus" x="2419.4mm" y="1602.31mm" width="1.2mm" height="1.2mm"/>
    <use href="#iso-sym-knaus" x="2539.4mm" y="1602.31mm" width="1.2mm" height="1.2mm"/>
    <use href="#iso-sym-knaus" x="2679.4mm" y="1602.31mm" width="1.2mm" height="1.2mm"/>
    <use href="#iso-sym-knaus" x="2799.4mm" y="1602.31mm" width="1.2mm" height="1.2mm"/>
    <use href="#iso-sym-knaus" x="2919.4mm" y="1602.31mm" width="1.2mm" height="1.2mm"/>
    <use href="#iso-sym-knaus" x="2359.4mm" y="1542.31mm" width="1.2mm" height="1.2mm"/>
    <use href="#iso-sym-knaus" x="2479.4mm" y="1542.31mm" width="1.2mm" height="1.2mm"/>
    <use href="#iso-sym-knaus" x="2599.4mm" y="1542.31mm" width="1.2mm" height="1.2mm"/>
    <use href="#iso-sym-knaus" x="2739.4mm" y="1542.31mm" width="1.2mm" height="1.2mm"/>
    <use href="#iso-sym-knaus" x="2859.4mm" y="1542.31mm" width="1.2mm" height="1.2mm"/>
    <use href="#iso-sym-knaus" x="2419.4mm" y="1482.31mm" width="1.2mm" height="1.2mm"/>
    <use href="#iso-sym-knaus" x="2539.4mm" y="1482.31mm" width="1.2mm" height="1.2mm"/>
  </g>

  <g data-layer="navn" pointer-events="none">
    <text x="2459" y="2361" text-anchor="middle"
          font-size="120" font-weight="700" fill="#7f4f24" opacity="0.45">
      Kart genereres av CI
    </text>
    <text x="2459" y="2501" text-anchor="middle"
          font-size="60" fill="#7f4f24" opacity="0.4">
      Trigge "Build map and deploy" i GitHub Actions
    </text>
    <text x="2459" y="256120" text-anchor="middle"
          font-size="60" fill="#7f4f24" opacity="0.4">
      eller vent på neste push til feature-branchen
    </text>
    <text x="2459" y="2561200" text-anchor="middle"
          font-size="50" fill="#7f4f24" opacity="0.5" font-weight="600">
      Vardåsen i Asker
    </text>
  </g>
</svg>
