<?xml version="1.0" encoding="UTF-8"?>
<svg xmlns="http://www.w3.org/2000/svg" class="isom-map" viewBox="0 0 4917.15 5122.91" width="491.71mm" height="512.29mm" data-meta='{"bbox":{"south":59.79122347747748,"north":59.83626852252252,"west":10.369822923306415,"east":10.459409076693586},"utmBbox":{"minE":576882.8265180711,"minN":6628954.897738419,"maxE":581799.9733845863,"maxN":6634077.809742244},"widthM":4917.146866515162,"heightM":5122.912003825419,"scaleDenom":10000,"equidistance":20,"elevationRange":{"min":43,"max":327},"demSource":"synthetic (vardasen)","contoursSkipped":null,"isomVersion":"2017-2-derived","source":"Stub — venter på CI-generert OSM-data (men inkluderer syntetisk DEM-konturer)","generated":"2026-05-07T17:35:49.898Z"}'>
  <defs><pattern id="iso-pat-myr" patternUnits="userSpaceOnUse" width="1.5mm" height="1.2mm"><line x1="0mm" y1="0.6mm" x2="1.5mm" y2="0.6mm" stroke="#0099cc" stroke-width="0.18mm"/></pattern><pattern id="iso-pat-myr-utrygg" patternUnits="userSpaceOnUse" width="1mm" height="0.6mm"><line x1="0mm" y1="0.3mm" x2="1mm" y2="0.3mm" stroke="#0099cc" stroke-width="0.18mm"/></pattern><pattern id="iso-pat-kratt" patternUnits="userSpaceOnUse" width="2mm" height="2mm"><rect width="2mm" height="2mm" fill="#94d473"/><circle cx="0.5mm" cy="0.5mm" r="0.18mm" fill="#3e8c2c"/><circle cx="1.4mm" cy="1.5mm" r="0.18mm" fill="#3e8c2c"/></pattern><pattern id="iso-pat-halv-aapen" patternUnits="userSpaceOnUse" width="2.5mm" height="2.5mm"><rect width="2.5mm" height="2.5mm" fill="#ffd966"/><circle cx="1.25mm" cy="1.25mm" r="0.18mm" fill="#cae8a3"/></pattern><pattern id="iso-pat-hugst" patternUnits="userSpaceOnUse" width="2mm" height="2mm"><rect width="2mm" height="2mm" fill="#cae8a3"/><line x1="0.5mm" y1="0.3mm" x2="0.7mm" y2="1.7mm" stroke="#5cb348" stroke-width="0.2mm"/></pattern><pattern id="iso-pat-blokkmark" patternUnits="userSpaceOnUse" width="2.5mm" height="2.5mm"><polygon points="1.25mm,0.7mm 1.7mm,1.5mm 0.8mm,1.5mm" fill="#000"/></pattern><pattern id="iso-pat-bebyggelse" patternUnits="userSpaceOnUse" width="1.5mm" height="1.5mm"><rect width="1.5mm" height="1.5mm" fill="#d9b89a"/><rect x="0.2mm" y="0.2mm" width="1.1mm" height="1.1mm" fill="#7a5a3a"/></pattern><symbol id="iso-sym-knaus" viewBox="-1 -1 2 2"><path d="M-0.6 0.4 A0.6 0.4 0 0 0 0.6 0.4" fill="none" stroke="#7f4f24" stroke-width="0.14mm"/></symbol><symbol id="iso-sym-stein" viewBox="-1 -1 2 2"><polygon points="0,-0.6 0.6,0.5 -0.6,0.5" fill="#000"/></symbol><symbol id="iso-sym-brønn" viewBox="-1 -1 2 2"><circle cx="0" cy="0" r="0.6" fill="none" stroke="#0099cc" stroke-width="0.18mm"/><line x1="-0.6" y1="0" x2="0.6" y2="0" stroke="#0099cc" stroke-width="0.18mm" /><line x1="0" y1="-0.6" x2="0" y2="0.6" stroke="#0099cc" stroke-width="0.18mm" /></symbol><symbol id="iso-sym-bro" viewBox="-1 -1 2 2"><line x1="-0.6" y1="-0.3" x2="0.6" y2="-0.3" stroke="#000" stroke-width="0.2mm" /><line x1="-0.6" y1="0.3" x2="0.6" y2="0.3" stroke="#000" stroke-width="0.2mm" /></symbol><symbol id="iso-sym-peak" viewBox="-1 -1 2 2"><circle cx="0" cy="0" r="0.5" fill="#7f4f24" /></symbol><symbol id="iso-sym-skjaer" viewBox="-1 -1 2 2"><circle cx="0" cy="0" r="0.55" fill="#fff" stroke="#1f5d8a" stroke-width="0.18mm"/><line x1="-0.45" y1="-0.45" x2="0.45" y2="0.45" stroke="#1f5d8a" stroke-width="0.18mm" /><line x1="-0.45" y1="0.45" x2="0.45" y2="-0.45" stroke="#1f5d8a" stroke-width="0.18mm" /></symbol><symbol id="iso-sym-lanterne" viewBox="-1 -1 2 2"><circle cx="0" cy="0" r="0.18" fill="#a23ec3" /><polygon points="0,-0.85 0.18,-0.18 0.85,0 0.18,0.18 0,0.85 -0.18,0.18 -0.85,0 -0.18,-0.18" fill="#a23ec3"/></symbol></defs>
  <style>.isom-map { background: var(--bg, #fefae0); font-family: ui-sans-serif, system-ui, sans-serif; } .isom-map [data-layer] path { vector-effect: non-scaling-stroke; } .isom-map [data-iso="001"] { fill: var(--iso-001-fill, #fefae0) } .isom-map [data-iso="401"] { fill: var(--iso-401-fill, #ffd966) } .isom-map [data-iso="403"] { fill: url(#iso-pat-halv-aapen) } .isom-map [data-iso="404"] { fill: url(#iso-pat-hugst) } .isom-map [data-iso="405"] { fill: var(--iso-405-fill, #ffffff) } .isom-map [data-iso="406"] { fill: var(--iso-406-fill, #cae8a3) } .isom-map [data-iso="407"] { fill: var(--iso-407-fill, #94d473) } .isom-map [data-iso="408"] { fill: var(--iso-408-fill, #5cb348) } .isom-map [data-iso="409"] { fill: url(#iso-pat-kratt) } .isom-map [data-iso="301"] { fill: var(--iso-301-fill, #a8d4e8); stroke: var(--iso-301-stroke, #0099cc); stroke-width: 0.18mm } .isom-map [data-iso="302"] { fill: var(--iso-302-fill, #a8d4e8); stroke: var(--iso-302-stroke, #0099cc); stroke-width: 0.18mm } .isom-map [data-iso="303"] { fill: var(--iso-303-fill, #6fb6da); stroke: var(--iso-303-stroke, #1f7aa3); stroke-width: 0.22mm } .isom-map [data-iso="304"] { stroke: var(--iso-304-stroke, #0099cc); stroke-width: 0.25mm; stroke-linecap: round; fill: none } .isom-map [data-iso="305"] { stroke: var(--iso-305-stroke, #0099cc); stroke-width: 0.18mm; stroke-dasharray: 1.5mm 0.6mm; fill: none } .isom-map [data-iso="306"] { stroke: var(--iso-306-stroke, #3a8db8); stroke-width: 0.12mm; fill: none } .isom-map [data-iso="307"] { fill: var(--iso-307-fill, #9ec9de) } .isom-map [data-iso="308"] { fill: url(#iso-pat-myr) } .isom-map [data-iso="309"] { fill: url(#iso-pat-myr-utrygg) } .isom-map [data-iso="310"] { fill: none } .isom-map [data-iso="201"] { stroke: var(--iso-201-stroke, #000); stroke-width: 0.18mm; stroke-linecap: round; fill: none } .isom-map [data-iso="203"] { stroke: var(--iso-203-stroke, #000); stroke-width: 0.25mm; stroke-linecap: round; fill: none } .isom-map [data-iso="210"] { fill: url(#iso-pat-blokkmark) } .isom-map [data-iso="211"] { fill: none } .isom-map [data-iso="212"] { fill: none } .isom-map [data-iso="213"] { fill: none } .isom-map [data-iso="101"] { stroke: var(--iso-101-stroke, #dc2626); stroke-width: 0.14mm; stroke-linejoin: round; fill: none } .isom-map [data-iso="102"] { stroke: var(--iso-102-stroke, #dc2626); stroke-width: 0.25mm; stroke-linejoin: round; fill: none } .isom-map [data-iso="103"] { stroke: var(--iso-103-stroke, #dc2626); stroke-width: 0.14mm; stroke-linecap: round; stroke-linejoin: round; stroke-dasharray: 2mm 0.8mm; fill: none } .isom-map [data-iso="104"] { stroke: var(--iso-104-stroke, #dc2626); stroke-width: 0.14mm; stroke-linecap: round; fill: none } .isom-map [data-iso="501"] { stroke: var(--iso-501-stroke, #dc6d3a); stroke-width: 0.5mm; stroke-linecap: round; stroke-linejoin: round; fill: none } .isom-map [data-iso="502"] { stroke: var(--iso-502-stroke, #e89570); stroke-width: 0.4mm; stroke-linecap: round; stroke-linejoin: round; fill: none } .isom-map [data-iso="503"] { stroke: var(--iso-503-stroke, #d8b797); stroke-width: 0.3mm; stroke-linecap: round; stroke-linejoin: round; fill: none } .isom-map [data-iso="504"] { stroke: var(--iso-504-stroke, #000); stroke-width: 0.25mm; stroke-linecap: round; stroke-linejoin: round; fill: none } .isom-map [data-iso="505"] { stroke: var(--iso-505-stroke, #000); stroke-width: 0.22mm; stroke-linejoin: round; stroke-dasharray: 1.5mm 0.5mm; fill: none } .isom-map [data-iso="506"] { stroke: var(--iso-506-stroke, #000); stroke-width: 0.18mm; stroke-linejoin: round; stroke-dasharray: 0.7mm 0.4mm; fill: none } .isom-map [data-iso="507"] { stroke: var(--iso-507-stroke, #000); stroke-width: 0.16mm; stroke-linecap: round; stroke-linejoin: round; stroke-dasharray: 0.05mm 0.65mm; fill: none } .isom-map [data-iso="508"] { stroke: var(--iso-508-stroke, #1a1a1a); stroke-width: 0.25mm; stroke-linejoin: round; stroke-dasharray: 3mm 1mm; fill: none } .isom-map [data-iso="509"] { fill: none } .isom-map [data-iso="510"] { stroke: var(--iso-510-stroke, #000); stroke-width: 0.28mm; stroke-linecap: round; stroke-linejoin: round; stroke-dasharray: 2.5mm 0.4mm; fill: none } .isom-map [data-iso="511"] { stroke: var(--iso-511-stroke, #000); stroke-width: 0.18mm; stroke-linejoin: round; stroke-dasharray: 3mm 1.5mm; fill: none } .isom-map [data-iso="512"] { fill: var(--iso-512-fill, #fff5cc); stroke: var(--iso-512-stroke, #d4b06b); stroke-width: 0.18mm; stroke-dasharray: 1mm 0.5mm } .isom-map [data-iso="521"] { fill: var(--iso-521-fill, #7a5a3a); stroke: var(--iso-521-stroke, #000); stroke-width: 0.15mm } .isom-map [data-iso="522"] { fill: url(#iso-pat-bebyggelse) } .isom-map [data-iso="525"] { stroke: var(--iso-525-stroke, #000); stroke-width: 0.15mm; stroke-dasharray: 1mm 0.5mm; fill: none } .isom-map [data-iso="528"] { stroke: var(--iso-528-stroke, #000); stroke-width: 0.18mm; fill: none } .isom-map [data-iso="533"] { fill: none } .isom-map [data-label] { font-size: 2.5mm; fill: #2a2a2a; paint-order: stroke; stroke: #fff; stroke-width: 0.5mm; stroke-linejoin: round; } .isom-map [data-label="peak"] { font-size: 2.8mm; fill: #7f4f24; font-weight: 600; } .isom-map [data-label="kontur-tall"] { font-size: 1.6mm; fill: #dc2626; font-style: italic; } .isom-map [data-label="vann-tall"] { font-size: 1.7mm; fill: #1f7aa3; font-style: italic; stroke: #fff; stroke-width: 0.4mm; } .isom-map [data-label="dybde-tall"] { font-size: 1.4mm; fill: #1f5d8a; stroke: #fff; stroke-width: 0.3mm; }</style>
  <g id="bakgrunn"><rect width="4917.15" height="5122.91" fill="#fefae0"/></g>
  <g data-layer="aapen" data-iso="401"></g>
  <g data-layer="aapen" data-iso="403"></g>
  <g data-layer="aker" data-iso="404"></g>
  <g data-layer="skog" data-iso="406"></g>
  <g data-layer="skog" data-iso="407"></g>
  <g data-layer="skog" data-iso="408"></g>
  <g data-layer="skog" data-iso="409"></g>
  <g data-layer="stein" data-iso="210"></g>
  <g data-layer="myr" data-iso="308"></g>
  <g data-layer="myr" data-iso="309"></g>
  <g data-layer="vann" data-iso="301"></g>
  <g data-layer="vann" data-iso="302"></g>
  <g data-layer="bekk" data-iso="304"></g>
  <g data-layer="bekk" data-iso="305"></g>
  <g data-layer="kontur" data-iso="101"></g>
  <g data-layer="kontur" data-iso="103"></g>
  <g data-layer="kontur" data-iso="104"></g>
  <g data-layer="kontur" data-iso="102"></g>
  <g data-layer="vei-stor" data-iso="501"></g>
  <g data-layer="vei-stor" data-iso="502"></g>
  <g data-layer="vei-liten" data-iso="503"></g>
  <g data-layer="vei-liten" data-iso="504"></g>
  <g data-layer="sti" data-iso="505"></g>
  <g data-layer="sti" data-iso="506"></g>
  <g data-layer="sti" data-iso="507"></g>
  <g data-layer="bygning" data-iso="521"></g>
  <g data-layer="bygning" data-iso="522"></g>
  <g data-layer="linje" data-iso="525"></g>
  <g data-layer="linje" data-iso="528"></g>
  <g data-layer="stupkant" data-iso="201"></g>
  <g data-layer="stupkant" data-iso="203"></g>
  <g data-layer="navn"></g>
  <g data-layer="kontur">
    <g data-iso="101"><path d="M4920,1925.41L4919.38,4157.29L4913.75,5119.16L1847.5,5122.91L314.38,5121.04L3.75,5116.66L0,1925.41L1.88,329.79L6.25,6.66L1847.5,2.91L4913.75,6.66L4920,12.91L4920,969.16Z M2893.71,526.85L2917.5,551.71L2943.3,553.85L2967.86,546.56L2992.22,523.06L3002.5,526.44L3006.93,534.47L3003.94,544.76L2984.57,565.41L2979.5,576.28L2984.43,588.29L2997.5,596.63L3007.5,593.79L3027.5,571.42L3042.5,564.47L3076.99,573.52L3110.77,608.91L3118.61,612.16L3146.33,607.08L3172.5,581.81L3186.84,581.12L3195.91,588.23L3199.89,605.41L3194.45,614.89L3172.59,633.31L3176.57,652.49L3188.25,655.67L3209.26,637.3L3225.43,630.73L3257.5,631.22L3295.83,672.09L3340.88,688.13L3355.06,714.7L3372.62,727.71L3387.5,725.82L3417.5,699.7L3427.5,697.71L3442.5,701.69L3468.75,739L3485,749.01L3504.02,754.66L3542.48,794.2L3577.79,811.95L3616,855.7L3661.29,869.08L3666.43,876.02L3668.76,900.41L3680.29,915.49L3702.5,917.62L3733.74,891.99L3746.63,891.72L3756.67,896.46L3762.14,911.66L3741.57,946.66L3740.3,965.41L3753.28,973.2L3766.23,971.92L3797.5,947.57L3807.5,948.45L3822.5,958.47L3828.75,969.93L3830,984.66L3825.29,997.49L3807.42,1016L3808.08,1026.65L3813.43,1033.22L3827.5,1031.96L3847.5,1011.92L3857.5,1007.04L3882.5,1013.81L3892.94,1030.96L3895.87,1053.32L3890.58,1064.59L3875.57,1076.28L3872.03,1085.41L3873.93,1092.01L3882.41,1094.08L3890.4,1090.56L3905.84,1069.65L3943.17,1077.08L3954.02,1090.12L3956.95,1108.57L3939.08,1145.75L3939.23,1154.94L3948.02,1155.63L3962.5,1141.49L3976.25,1134.4L4003.23,1139.26L4014.37,1151.35L4017.56,1168.94L3997.94,1206.17L3998.13,1217.49L4012.56,1220.14L4032.5,1202.89L4047.5,1197.94L4062.5,1200.06L4070.84,1207.64L4077.08,1229.66L4054.21,1274.16L4063.08,1289.16L4070.73,1292.91L4079.14,1291.11L4112.99,1267.48L4126.21,1269.57L4134.93,1276.11L4136.78,1291L4112.5,1326.25L4112.25,1341.46L4116.22,1348.43L4156.73,1371.98L4163.78,1380.11L4177.28,1419.06L4211.25,1447.34L4236.47,1491.88L4264.62,1512.28L4292.96,1565.83L4319.4,1580.41L4330.12,1595.49L4328.69,1610.72L4304.61,1635.44L4300.18,1655.41L4307.69,1670.41L4339.29,1691.66L4354.12,1727.91L4396.12,1777.91L4398.97,1787.91L4396.99,1806.61L4372.01,1834.84L4372.11,1849.5L4382.93,1857.69L4395.18,1857.69L4412.09,1836.36L4423.5,1829.9L4437.5,1834.92L4450,1849.98L4445.71,1858.65L4426.39,1875.61L4418.38,1891.66L4426.65,1926.66L4458.48,1955.41L4463.63,1970.41L4461.91,1991.82L4437.61,2028.59L4437.5,2042.19L4447.5,2049.78L4462.5,2050.57L4488.44,2022.51L4498.14,2024.24L4505.35,2032.81L4477.25,2074.16L4475.11,2090.41L4479.83,2111.66L4512.37,2146.66L4520.34,2160.41L4518.01,2171.66L4490.78,2206.66L4484.38,2220.41L4492.94,2239.16L4527.51,2280.41L4523.02,2310.41L4500.17,2330.41L4491.7,2345.41L4497.57,2357.96L4522.6,2381.86L4530.99,2396.41L4529.24,2439.53L4504.46,2460.82L4498.69,2475.45L4507.55,2489.47L4526.26,2497.91L4532.4,2507.29L4531.2,2562.91L4526.69,2572.91L4504.65,2590.41L4499.33,2600.41L4502.97,2609.88L4519.51,2620.14L4528.79,2632.83L4532.04,2673.63L4528.05,2690.41L4502.5,2710.41L4493.65,2725.41L4497.2,2735.41L4522.74,2760.41L4529.43,2785.41L4522.85,2810.41L4492.27,2835.41L4486.6,2850.41L4492.01,2870.41L4520.95,2900.41L4521.01,2920.41L4511.38,2935.41L4485.24,2955.41L4477.55,2985.41L4506.85,3026.66L4511.87,3040.41L4505.15,3052.89L4487.39,3057.87L4473.39,3053.04L4458.93,3030.42L4448.87,3027.93L4441.33,3032.92L4442.04,3050.41L4465.62,3079.16L4465.22,3106.66L4457.05,3125.41L4423.41,3155.41L4419.88,3170.41L4426.01,3190.41L4447.85,3210.41L4453.49,3225.41L4445.55,3236.21L4417.48,3256.11L4392.33,3313.18L4363.5,3335.41L4357.32,3345.41L4353.63,3365.41L4380.56,3406.67L4381.38,3420.49L4372.17,3428.76L4362.5,3429.75L4332.5,3405.36L4322.5,3402.9L4313.54,3407.29L4308.76,3416.62L4309,3429.27L4331.64,3459.16L4329.68,3486.87L4288.88,3524.88L4263.82,3570.92L4237.48,3591.11L4217.75,3634.16L4182.94,3655.41L4175.08,3665.41L4174.68,3685.41L4201.81,3720.41L4197.61,3737.91L4187.01,3745.99L4172.5,3747.38L4142.5,3724.66L4125.62,3725.36L4120.45,3735.91L4123,3745.41L4143.01,3770.41L4146.76,3780.41L4138.21,3805.41L4098.54,3831.66L4079.22,3866.66L4036.06,3899.16L4015.48,3934.16L3978.17,3961.68L3944.47,4006.34L3916.25,4023.47L3883.75,4067.18L3848.75,4088.91L3823.75,4125.13L3788.75,4145.68L3763.61,4184.24L3711.95,4209.31L3703.32,4234.6L3696.04,4244.39L3676.44,4252.3L3628.64,4225.61L3613.75,4231.22L3610,4241.04L3611.57,4253.29L3635.98,4280.41L3635.86,4293.74L3630.13,4302.13L3612.5,4305.37L3582.5,4280.34L3557.5,4279.16L3523.75,4321.74L3482.5,4338.93L3450.83,4376.55L3402.93,4399.74L3379.97,4435.48L3357.5,4437.77L3327.5,4410.72L3304.52,4408.71L3296.84,4414.15L3275.86,4445.89L3225.3,4468.64L3182.5,4506.84L3157.5,4501.94L3132.5,4478.4L3122.5,4475.64L3109.79,4485.4L3097.63,4516.27L3037.5,4528.28L3002.5,4566.47L2977.5,4566.34L2947.5,4538.09L2932.5,4534.16L2917.5,4542.71L2897.36,4568.89L2856.53,4581.4L2816.25,4614.57L2802.5,4621.47L2788.29,4614.53L2770.65,4593.11L2745.61,4587.12L2722.65,4593.69L2694.1,4621.83L2677.5,4628.88L2664.77,4622.31L2640.32,4599.53L2619.53,4591.19L2604.09,4597.95L2568.75,4628.79L2552.5,4632.51L2532.5,4625.33L2507.5,4597.39L2492.5,4592.81L2472.5,4600.59L2447.5,4628.3L2427.5,4632.95L2412.5,4628.94L2382.5,4597.58L2362.5,4591.5L2347.5,4598.07L2322.5,4624.81L2302.5,4630.65L2285.84,4622.46L2257.1,4594.15L2229.25,4588.83L2216.7,4593.86L2187.85,4622.5L2177.5,4624.64L2166.93,4618.79L2136.37,4586.65L2076.97,4569.44L2066.52,4549.95L2057.5,4542.81L2043.75,4545.19L2002.5,4572.89L1977.5,4570.19L1948.84,4539.09L1923.8,4528.51L1904.8,4532.93L1876.07,4554.02L1861.43,4558.06L1845.37,4546.44L1830.72,4522.38L1815,4514.03L1782.5,4505.69L1757.5,4477.44L1743.75,4468.19L1716.25,4468.77L1682.5,4495.82L1668.7,4491.89L1659.42,4476.05L1659.22,4465.41L1683.55,4430.67L1672.23,4419.17L1632.5,4445.09L1617.5,4446.3L1602.5,4442.37L1587.5,4430.37L1571.25,4406.43L1525,4381.92L1496.25,4350.71L1482.5,4341.21L1464.6,4346.69L1431.1,4372.91L1422.22,4369.16L1409.41,4355.41L1406.34,4345.41L1412.68,4330.41L1432.98,4310.41L1433.23,4300.41L1428.05,4293.47L1412.87,4291.57L1383.16,4313.64L1363.04,4314.02L1346.17,4305.6L1320.33,4271.66L1285.95,4254.16L1258.59,4219.27L1209.24,4187.75L1182.06,4150.75L1141.24,4126.58L1131.69,4107.91L1117.43,4091.66L1083.7,4074.16L1054.05,4031.66L1020.15,4014.16L1007.59,3997.91L997.52,3968.86L967.15,3956.36L953.61,3945.99L934.56,3904.01L896.27,3881.28L871.5,3840.67L837.11,3814.16L817.75,3779.16L784.56,3754.16L755.26,3707.91L714.99,3671.29L711.34,3664.67L712.34,3652.68L737.4,3611.54L732.31,3596.66L723.74,3592.9L712.87,3594.67L685.81,3617.99L671.87,3616.08L662.21,3609.69L660.44,3594.5L683.77,3563.18L688,3542.42L680.1,3530.52L663.8,3519.64L648.55,3502.68L623.75,3455.81L587.65,3426.09L584.88,3400.41L611.53,3370.41L615.57,3355.99L612.56,3346.16L592.5,3337.49L562.5,3362.93L552.84,3365.26L540.91,3358.41L542.85,3346.64L567.89,3312.91L569.21,3290.52L563.63,3275.31L526.65,3244.34L520.79,3220.41L526.48,3202.44L550.67,3176.02L553.39,3160.41L520.13,3132.91L497.75,3072.91L467.17,3045.41L468.18,3034.16L496.31,2999.16L504.15,2980.41L500.39,2960.41L467.38,2930.41L462.59,2915.41L467.72,2895.41L496.4,2870.41L501.9,2850.41L498.42,2835.31L470.36,2809.21L464.02,2794.74L470.12,2770.97L496.1,2746.29L503.41,2719.16L500.01,2700.41L474.93,2677.55L469.68,2661.48L477.01,2650.59L502.72,2632.91L527.44,2572.91L558.46,2545.41L559.79,2520.41L533.75,2489.9L530.99,2478.69L533.87,2468.35L547.31,2455.92L567.29,2446.41L586.31,2402.22L625.88,2363.61L655.48,2315.72L681.39,2294.86L695.77,2259.16L702.19,2251.66L743.35,2225.41L746.58,2213.78L734.95,2174.85L737.5,2163.07L752.5,2160.38L777.5,2172.71L787.25,2171.54L796.02,2165.36L804.87,2145.41L791.96,2115.41L798.04,2096.48L806.02,2091.07L843.31,2100.68L858.12,2097.07L863.03,2080.41L853.33,2050.41L859.87,2033.16L870.26,2029.26L903.1,2036.43L916.03,2035.17L923.59,1970.4L937.72,1967.89L966.96,1970.41L978.97,1965.41L984.64,1946.66L984.69,1910.03L996.97,1906.43L1023.53,1907.38L1036.16,1903.05L1044.65,1886.43L1043.63,1859.83L1047.15,1847.08L1097.66,1835.96L1107.02,1784.67L1135,1774.52L1151.09,1760.95L1175.6,1712.99L1210.03,1687.33L1231.59,1648.36L1270.86,1610.02L1288.27,1581.79L1317.42,1554.72L1345.46,1511.59L1366.89,1492.61L1401.39,1442.84L1429.94,1412.97L1452.76,1357.28L1472.25,1349.12L1481.67,1340.36L1485.36,1326.65L1479.79,1299.16L1481.46,1280.41L1518.22,1246.23L1536.76,1207.06L1563.75,1180.69L1588.75,1136.48L1629.69,1091.94L1642.06,1060.22L1684.89,1025.41L1684.31,1008.98L1670,977.23L1673.75,962.99L1688.75,955.53L1723.06,967.62L1733.34,965.31L1735.56,950.4L1725.42,926.66L1728.81,899.53L1742.86,887.6L1763.11,882.37L1777.5,884.54L1785.32,889.97L1777.57,866.74L1784.4,839.06L1830.81,803.61L1856.25,763.96L1891.25,744.11L1917.5,702.31L1942.5,695.81L1972.5,718.25L1990.46,719.78L1997.4,713.28L1999.05,700.41L1974.52,665.41L1977.66,651.71L1984.32,644.75L2002.5,642.94L2032.5,667.95L2052.5,668.74L2067.5,659.21L2089.02,628.53L2128.21,611.8L2174.79,571.34L2184.05,569.52L2201.85,573.56L2227.03,594.4L2242.5,598.06L2252.5,589.5L2270,562.7L2329.74,540.8L2351.47,513.94L2361.98,509.32L2382.5,512.28L2412.5,541.84L2427.5,545.11L2447.5,538.27L2472.5,508.43L2492.5,502.97L2507.65,505.65L2534.26,532.81L2552.65,540.71L2567.5,537.15L2592.5,508.56L2612.5,501.64L2636.83,505.92L2667.17,535.62L2677.5,541.04L2693.35,536.04L2719.66,512.88L2744.58,505.67L2762.32,509.29L2787.45,537.59L2802.5,545.42L2827.5,540.02L2855.11,513.57L2883.94,512.91L2888.83,519.88Z M2770.36,902.05L2802.5,919.72L2847.5,910.52L2873.75,910.36L2915,931.23L2955,943.78L2997.5,969.75L3035,961.1L3057.47,963.3L3108.64,993.43L3150.82,1011.99L3177.5,1036.22L3189.42,1038.96L3233.05,1036.65L3251.71,1046.43L3275.67,1067.69L3315,1081.49L3355.56,1115.84L3396.76,1139.3L3433.2,1174.03L3463.25,1190.54L3488.75,1218.54L3535.92,1242.03L3550.57,1270.09L3562.56,1282.18L3603.09,1290.36L3613.54,1304.51L3626.04,1340.21L3676.9,1350.13L3686.9,1401.38L3718.36,1410.49L3734.86,1423.76L3748.09,1462.79L3754.92,1472.54L3789.31,1497.66L3808.24,1537.79L3838.32,1567.91L3862.45,1606.66L3888.37,1631.69L3909.24,1668.03L3943.02,1705.99L3959.08,1747.41L3982,1777.91L3992.08,1797.91L3988.17,1834.16L3991.99,1850.41L4011.62,1872.91L4037.1,1924.16L4066.51,1969.16L4069.16,1981.66L4067.16,2036.01L4091.91,2079.06L4112.41,2132.7L4130.39,2160.41L4113.89,2220.41L4139.13,2267.91L4144.48,2287.91L4143.6,2307.91L4134.18,2347.91L4138.92,2367.91L4149.92,2390.41L4157.15,2422.91L4161.93,2570.41L4166.96,2591.66L4153.33,2684.16L4139.07,2734.16L4146.97,2767.91L4146.42,2789.16L4124.33,2845.41L4122.68,2860.41L4130.58,2904.16L4129.29,2916.66L4106.62,2961.66L4091.48,3015.59L4075.45,3043.63L4077.68,3105.41L4047.35,3148.34L4030.23,3193.09L4005.29,3229.21L4002.74,3247.91L4007.79,3285.41L3975.92,3324.35L3955.49,3365.77L3923.83,3402.91L3901,3442.91L3872.39,3472.91L3853.78,3530.01L3818.68,3547.12L3814.09,3559.45L3816.06,3586.42L3812.85,3603.03L3776.58,3624.04L3748.73,3673.59L3721.69,3691.66L3698.03,3727.15L3649.23,3766.55L3631.25,3794.25L3588.75,3822.6L3562.5,3860.04L3522.96,3870.98L3507.85,3880.09L3493.11,3916.83L3442.5,3916.83L3432.5,3923.67L3417.5,3945.55L3402,3959.25L3357.99,3978.72L3333.25,4002.87L3295,4023.38L3254.55,4055.99L3203.39,4076.65L3182.5,4099.42L3171.25,4102.44L3136.25,4096.51L3117.5,4098.57L3079.32,4127.76L3027.45,4149.72L2994.18,4175.57L2952.5,4168.05L2926.3,4169.17L2893.97,4187.92L2840.05,4203.04L2809.06,4217.79L2731.16,4218.85L2677.5,4242.66L2622.5,4223.04L2611.25,4224.66L2557.5,4250.23L2497.5,4232.8L2482.5,4232.95L2437.5,4245.96L2422.5,4245.74L2377.5,4231.36L2362.5,4230.69L2302.5,4246.13L2237.5,4216.37L2177.5,4233.92L2148.96,4215.98L2098.49,4200.6L2053.75,4177.52L2041.25,4175.75L1998.49,4180.98L1985.47,4178.69L1938.13,4152.62L1888.53,4136.02L1865.16,4118.59L1797.5,4117.81L1770,4094.31L1719.47,4067.32L1683.64,4038.44L1629.47,4020.68L1610,3996.27L1548.67,3983.01L1515.75,3951.48L1473.76,3927.5L1452.3,3902.79L1415.34,3878.33L1370.7,3831.94L1343.99,3814.16L1315.12,3779.16L1274.61,3746.66L1255.5,3719.16L1224.31,3693.69L1184.37,3642.53L1148.75,3609.23L1131.74,3581.33L1097.38,3546.82L1077.23,3507.91L1049.9,3477.91L1044.62,3457.91L1048.13,3439.16L1045.72,3420.41L1010.39,3382.91L994.64,3342.91L971.17,3313.21L951.58,3266.53L928.13,3232.92L925.12,3158.35L904.85,3122L891.64,3076.63L872.03,3035.4L875.71,2980.41L856.32,2920.41L858.44,2890.41L873.2,2845.41L848.62,2785.41L874.49,2731.66L876.28,2720.41L862.51,2679.16L861.04,2660.41L877.19,2632.91L892.45,2581.66L914.76,2536.66L914.09,2481.66L917.03,2469.16L944.21,2427.91L962.47,2387.91L985.94,2356.66L999.54,2302.91L1004.22,2292.91L1028.5,2266.66L1040.06,2220.41L1066.34,2193.53L1088.74,2156.21L1123.65,2117.53L1148.73,2078.22L1191.25,2030.12L1208.11,2002.78L1235.16,1974.98L1254.68,1938.78L1291.39,1898.36L1313.83,1852.53L1342.12,1826.66L1356.04,1797.91L1399.61,1747.91L1422.99,1710.56L1445.3,1689.57L1468.75,1654.81L1511.25,1609.42L1528.75,1582.4L1571.25,1536.74L1588.64,1510.48L1629.88,1467.8L1647.78,1440.44L1675.63,1414.48L1705,1371.66L1728.22,1353.04L1774.33,1294.43L1800.28,1274.54L1823.34,1239.16L1869.46,1206.66L1886.96,1179.49L1931.12,1152.78L1948.75,1129.88L1995,1099.83L2035,1063.66L2064.45,1048.25L2108.37,1012.07L2150.7,993.01L2177.5,968.12L2188.75,966.21L2239.9,974.2L2269.22,952.77L2321.25,932.87L2366.25,909.79L2378.75,908.44L2422.5,915.17L2437.5,913.23L2497.5,888.82L2546.25,906.77L2572.5,902.32L2600,890.2L2622.5,885.47L2682.5,911.78L2732.86,891.47L2758.57,892.91L2764.47,897.48Z M2786.61,1279.22L2818.91,1288.04L2873.75,1290.6L2945,1318.12L2986.25,1340.29L3051.2,1355.02L3074.79,1370.12L3134.15,1398.18L3175,1429.53L3211.61,1451.4L3231.45,1470.53L3290.12,1511.97L3308.81,1531L3345,1551.96L3376.02,1586.66L3418.36,1619.16L3436.38,1646.66L3465.87,1671.66L3496.87,1716.95L3531.3,1753.22L3553.61,1790.52L3573.2,1811.93L3634.75,1899.6L3672.74,1969.75L3689.35,2035.73L3706.21,2064.2L3744.62,2149.16L3752.79,2220.41L3769.9,2266.66L3784.38,2322.91L3791.28,2410.73L3803.88,2466.74L3797.99,2525.41L3805.36,2600.41L3793.83,2660.41L3792.14,2727.91L3778.29,2796.66L3761.2,2849.16L3754.77,2910.41L3698.66,3053.87L3686.11,3106.76L3634.19,3195.03L3607.97,3230.79L3592.15,3262.61L3568.35,3291.48L3550.33,3332.97L3511.35,3378.33L3492.26,3414.16L3471.5,3432.46L3425.18,3487.48L3389.8,3517.12L3371.51,3539.82L3336.25,3563.22L3310.98,3590.72L3261.75,3618.7L3224.73,3649.61L3185,3667.4L3154.96,3690.76L3104.57,3718.06L3074.89,3740.62L2993.75,3781.76L2926.25,3795.41L2882.06,3818.38L2819.13,3842.2L2740.39,3851.01L2674.06,3870.16L2621.8,3870.33L2547.5,3881.23L2452.5,3883.11L2376.25,3875.2L2301.25,3873.76L2237.5,3857.46L2166.25,3853.66L2053.75,3811.64L1985.49,3797.44L1903.37,3755.23L1871.03,3733.35L1810,3711.74L1781.23,3690.43L1734.92,3668.88L1656.43,3608.78L1536.25,3499.21L1511.35,3468.62L1469.45,3427.41L1449.51,3398.2L1408.58,3351.99L1392.16,3322.44L1368.48,3293.51L1347.48,3232.81L1332.53,3212.52L1311.23,3161.56L1268.37,3082.91L1251.4,3026.66L1244.16,2965.41L1227.76,2920.41L1227.41,2845.41L1216.7,2785.41L1222.2,2740.41L1219.66,2679.16L1237.87,2586.66L1240.59,2529.16L1268.96,2452.49L1286.94,2415.31L1298.57,2359.16L1313.03,2322.91L1372.07,2226.25L1393.57,2181.27L1411.7,2155.88L1434.6,2103.48L1488.59,2022.91L1662.41,1802.91L1767.27,1682.11L1797.57,1654.98L1834.37,1612.63L1865.79,1587.53L1887.39,1562.35L1931.25,1529.97L1977.1,1487.58L2075.68,1413.14L2169.38,1355.29L2227.5,1338.99L2372.5,1281.91L2437.5,1277.82L2497.5,1262.62L2557.5,1264.46L2603.75,1258.79L2692.5,1268.41L2735.48,1265.12L2779.6,1276.07Z M2759.67,1400.91L2785.9,1410.89L2859.92,1424.46L2919.25,1442.31L3071.33,1518.66L3120.61,1537.77L3213.75,1605.04L3342.27,1722.83L3422.82,1812.35L3494.13,1909.74L3509.64,1949.82L3533.34,1988.64L3549.36,2030.87L3581.66,2085.66L3606.47,2141.66L3618.78,2205.41L3646.58,2299.16L3675.5,2469.16L3670.89,2525.41L3676.7,2600.41L3666.78,2660.41L3665.55,2707.91L3648.92,2796.66L3630.74,2849.16L3623.1,2909.16L3567.03,3036.66L3548.51,3096.66L3505.22,3174.16L3442.63,3260.41L3353.01,3364.69L3254.62,3461.46L3161.82,3537.55L3068.72,3602.41L2975,3645.26L2925,3661.77L2892.5,3680.45L2840,3701.96L2803.75,3711.99L2738.75,3722.17L2667.5,3742.24L2621.25,3743.05L2547.5,3754.28L2427.5,3755.56L2301.25,3745.89L2237.5,3729.73L2157.63,3719.73L2098.02,3697.78L2052.63,3675.26L2012.5,3667.42L1964.34,3648.04L1859.84,3587.84L1785.2,3534.85L1756.25,3519.55L1731.15,3494.93L1685.55,3466.54L1662.8,3439.16L1622.47,3406.66L1602.79,3377.91L1556.37,3327.91L1534.93,3290.21L1508.08,3258.38L1492.18,3226.6L1463.04,3187.09L1420.5,3111.66L1356.72,2920.41L1353.04,2845.41L1341.91,2785.41L1345.16,2740.41L1342.6,2679.16L1355.72,2604.16L1360.78,2535.41L1367.08,2510.41L1400.31,2416.66L1413.2,2367.91L1428.87,2331.19L1488.8,2222.26L1511.39,2171.22L1527.41,2148.43L1555.12,2094.29L1591.75,2040.41L1671.24,1936.42L1760.56,1831.96L1888.58,1702.44L2016.08,1590.07L2086.82,1537.31L2160,1490.82L2372.5,1410.77L2437.5,1404.81L2497.5,1389.99L2561.25,1392.16L2618.75,1387.2L2695.9,1396.83L2741.48,1392.91L2750.57,1396.91Z M2774.78,1522.15L2817.73,1536.92L2881.25,1548.74L2937.5,1572.82L2985,1602.02L3034.9,1626.28L3064.61,1647.76L3112.43,1669.75L3175.36,1717.43L3285.72,1822.7L3356.97,1909.65L3459.75,2089.16L3497.18,2174.16L3504.25,2214.16L3541.14,2330.41L3549.22,2375.41L3550.79,2420.41L3562.82,2480.41L3557.82,2525.41L3563.85,2600.41L3554.32,2646.66L3550.59,2725.41L3515.82,2856.66L3510.22,2890.41L3494.13,2935.41L3447.09,3029.16L3420.96,3094.16L3389.2,3145.41L3338.6,3215.41L3245.44,3320.41L3176.49,3385.17L3104.53,3442.95L3035,3489.77L3005,3502.06L2965,3525.11L2925,3539.46L2877.5,3567.2L2821.25,3590.9L2738.75,3606.12L2673.75,3624.64L2602.5,3636.1L2516.25,3644.57L2415,3644.48L2320,3635.16L2237.5,3614.89L2173.75,3606.16L2046.25,3553.77L1978.75,3532.25L1920,3498.28L1837.5,3438.13L1730.93,3346.02L1663.07,3273.21L1610.33,3205.71L1544.41,3106.98L1515.65,3043.3L1498.23,2980.2L1473.11,2912.91L1461.16,2845.41L1453.07,2754.16L1454.67,2657.91L1464.02,2566.66L1475.24,2510.41L1490.5,2465.41L1502.6,2401.66L1528.07,2340.41L1614.22,2168.79L1710.18,2030.01L1830.18,1887.91L1910.46,1803.46L2009.96,1714.13L2099.5,1645.64L2186.51,1593.53L2229.75,1579.72L2317.5,1543.36L2398.75,1520.31L2495,1507.06L2591.93,1502.92L2753.65,1512.91L2764.21,1517.53Z M2745.03,1624.79L2847.5,1649.45L2873.75,1659.91L3020,1742.42L3121.5,1810.12L3145.06,1834.38L3169.67,1851.66L3197.66,1886.72L3231.93,1919.98L3248.53,1948.48L3287.39,1997.94L3308.32,2037.91L3363.7,2122.91L3385.21,2174.16L3435.83,2330.41L3457.79,2491.66L3458.96,2575.41L3448.02,2710.41L3424.04,2799.16L3412.17,2862.61L3390.5,2919.21L3330.51,3031.36L3305.68,3087.91L3246.38,3172.08L3130,3294.02L3063.92,3349L2990,3396.51L2806.25,3485.38L2607.5,3534.4L2542.5,3535.55L2497.5,3544.22L2422.5,3536.78L2377.5,3540.29L2200,3506.2L2166.62,3494.95L2117.75,3471.76L2065.96,3454.73L2005,3427.06L1964.79,3402.75L1897.62,3354.03L1826.83,3293.52L1760.2,3225.41L1693.89,3150.41L1648.83,3082.91L1621.92,3026.94L1606.27,2970.26L1589.17,2935.69L1570.32,2882.91L1562.46,2846.66L1558.33,2785.41L1548.74,2739.16L1554.46,2646.66L1553.1,2589.16L1593.09,2430.41L1619.24,2360.41L1676.43,2230.41L1738.46,2132.91L1792.68,2057.77L1873.16,1959.83L1930.83,1897.62L2005.83,1831.31L2120,1741.46L2180,1703.11L2238.75,1673.68L2313.75,1651.68L2362.5,1630.51L2418.75,1615.29L2482.5,1610.54L2557.5,1599.31L2617.5,1606.59L2673.01,1605.49L2725.53,1618.85Z M2688.86,1810.75L2737.31,1822.64L2827.89,1856.19L2910,1902.77L2981.4,1952.43L3036,1999.16L3091.2,2061.66L3155.61,2154.16L3194.32,2218.12L3221.14,2281.66L3235.24,2345.41L3254.63,2405.41L3266.46,2530.41L3261.64,2650.41L3240.78,2740.41L3234.16,2786.66L3206.09,2860.41L3178.37,2907.91L3160.8,2947.79L3108.57,3033.26L3010.58,3141.04L2975,3172.53L2915.52,3215L2870.81,3235.41L2786.66,3284.57L2755.83,3297.1L2675,3321.71L2583.75,3342.34L2551.25,3347.32L2482.5,3346.05L2437.5,3351.56L2310,3332.58L2161.25,3283.76L2115,3263.84L2048.84,3227.87L1963.43,3157.78L1908.62,3106.21L1846.19,3029.95L1808.93,2965.69L1795.71,2921.66L1768.15,2860.41L1749.68,2804.16L1734.95,2664.16L1746.07,2535.59L1798.77,2355.96L1839.14,2277.91L1908.1,2172.91L1964.68,2099.39L2024.52,2034.5L2088.67,1977.15L2157.5,1926.95L2247.5,1870.6L2337.5,1832.22L2422.5,1809.45L2490,1796.88L2558.66,1798.07L2616.17,1792.91L2652.51,1801.83Z M2648.42,1900.41L2774.83,1934.11L2843.88,1971.19L2900.39,2011.17L2958.61,2060.08L3006.05,2108.8L3048.5,2162.91L3099.57,2242.91L3124.82,2295.41L3168.88,2475.41L3171.27,2611.66L3141.63,2762.91L3117.1,2821.66L3072.57,2905.41L3037.32,2965.41L2991.73,3027.72L2920.66,3094.74L2822.27,3157.77L2750,3194.66L2685.31,3221.15L2569.06,3246.32L2482.5,3252.17L2427.5,3251.19L2308.75,3234.17L2235,3207.67L2146.09,3169.51L2101.55,3146.81L2053.08,3112.74L2010.53,3075.33L1962.61,3022.91L1946.45,3002.91L1911.67,2944.16L1858.21,2820.41L1839.54,2755.41L1833.7,2706.66L1830.12,2642.91L1834.47,2562.91L1866.17,2419.16L1879.48,2382.91L1902.62,2337.91L2002.66,2178.77L2068.34,2102.63L2102.29,2070.75L2153.29,2032.31L2286.61,1950.91L2335.81,1926.96L2375.55,1913.66L2422.5,1908.75L2497.5,1892.35L2561.27,1895.45L2630.09,1892.91L2639.26,1896.66Z M2648.47,2006.57L2752.89,2035.22L2776.09,2045.67L2829.1,2081.44L2883.24,2125.51L2928.85,2171.35L2971.14,2223.85L3009.6,2283.01L3036,2341.66L3048.87,2405.41L3069.74,2480.41L3067.84,2525.41L3072.48,2586.66L3056.54,2675.41L3054.07,2711.66L3041.48,2750.41L3013.27,2812.78L2967.05,2893.27L2925.8,2947.91L2852.33,3019.98L2768.7,3074.47L2692.5,3114.8L2660,3126.94L2603.75,3140.48L2512.5,3155.15L2482.5,3157.45L2422.5,3149.27L2376.25,3148.47L2340,3141.39L2301.25,3128.79L2226.25,3093.74L2192.5,3081.97L2123.75,3040.7L2048.75,2970.44L2004.79,2906.36L1957.34,2800.41L1943.3,2761.66L1930.07,2702.91L1924.82,2585.41L1945.32,2476.66L1960.09,2430.41L1988.24,2369.16L2065.38,2239.16L2130.45,2163.71L2187.91,2116.19L2302.5,2050.25L2392.5,2014.72L2437.5,2003.3L2545.79,1988.54L2564.08,1988.17L2618.01,1999.74Z M2583.29,2099.83L2605.74,2108.34L2681.55,2124.45L2721,2139.98L2760.2,2162.01L2797.26,2190.41L2845.09,2235.41L2872.09,2266.66L2910.7,2322.91L2926.86,2355.41L2936.12,2401.66L2956.39,2464.16L2962.58,2502.91L2964.03,2582.91L2945.52,2697.91L2935.53,2729.16L2913.11,2775.41L2864.8,2850.41L2781.99,2935.17L2702.53,2991.06L2623.76,3027.61L2587.5,3034.91L2542.5,3037.31L2497.5,3048.55L2422.5,3038.76L2375,3038.45L2332.5,3025.83L2286.79,3005.1L2191.05,2948.41L2171.69,2926.29L2129.12,2889.08L2106.89,2848.07L2082.39,2814.16L2052.41,2750.41L2037.44,2697.91L2030.73,2604.16L2044.16,2495.41L2049.69,2474.16L2076.81,2412.91L2132.7,2315.84L2188.75,2245.3L2265,2185.05L2362.5,2129.61L2418.75,2107.95L2497.5,2102.85L2556.47,2091.4L2575.27,2096.37Z M2533.22,2419.57L2547.47,2427.76L2575,2434.85L2591.25,2445.4L2608.5,2475.91L2640.09,2512.2L2651.21,2542.91L2654.8,2591.66L2640.99,2612.91L2633.23,2650.41L2623.63,2673.41L2586.84,2701.16L2563.37,2725.94L2541.06,2733.17L2505,2721.24L2485,2719.44L2437.5,2737.51L2423.75,2730.2L2351.45,2665.93L2345.97,2637.67L2349.24,2591.66L2339.2,2566.66L2342.78,2525.41L2347.79,2515.41L2372.12,2493.52L2405.96,2451.18L2425,2437.21L2445,2428.94L2475,2409.15L2493.72,2402.51L2528.18,2416.24Z" /></g>
    <g data-iso="102"><path d="M2574.32,1099.53L2617.68,1106.52L2682.5,1095.93L2738.75,1114.14L2802.97,1119.44L2865.62,1131.66L2938.07,1159.67L2993.75,1163.44L3035,1185.3L3065,1195.82L3118.75,1229.51L3170,1249.75L3190,1265.67L3250,1282.9L3279.1,1306.94L3326.38,1336.61L3347.85,1358.49L3383.86,1382.39L3417.58,1415.93L3445.33,1436.52L3484.91,1478.03L3530.18,1517.36L3548.26,1541.41L3588.55,1578.62L3613.85,1613.77L3640.97,1639.13L3659.8,1667.91L3703.21,1717.91L3724.82,1755.35L3745,1777.66L3764.13,1836.58L3784.73,1865.99L3804.35,1917.2L3825.46,1946.47L3847.69,1996.76L3864.38,2022.62L3870.74,2042.45L3873.75,2096.66L3895.94,2141.66L3925.54,2229.16L3925.71,2285.41L3945.76,2360.41L3940.6,2420.41L3953.41,2480.41L3946.04,2536.66L3956.45,2597.91L3942.35,2680.41L3947.35,2725.41L3928.07,2800.41L3929.77,2856.66L3884.63,2972.91L3877.25,3039.42L3849.33,3092.68L3836.41,3126.24L3814.61,3159.76L3802.42,3217.23L3776.43,3257.91L3764.47,3287.91L3726.38,3337.91L3710.04,3367.74L3676.06,3405.7L3645.56,3452.17L3618.05,3479.01L3596.31,3514.16L3572.94,3532.79L3525.22,3591.43L3489.74,3618.53L3471.5,3644.34L3428.75,3673.03L3403.75,3701.7L3375.68,3717.9L3343.18,3748.45L3287.72,3785.86L3263.62,3808.34L3223.97,3830.94L3191.42,3856.74L3130,3875.87L3110,3891.42L3046.25,3912.87L3014.38,3934.14L2967.53,3951.72L2931.88,3970.7L2877.5,3973.34L2787.5,4003.79L2692.5,4017.78L2617.5,4035.53L2557.5,4030.77L2482.5,4042.86L2422.5,4032.3L2362.5,4039.38L2302.5,4025.02L2256.25,4024.98L2220,4019.98L2181.25,4010.22L2117.5,3986.59L2046.25,3982.22L1930,3926.38L1866.25,3916.12L1823.56,3889.67L1779.26,3868.27L1753.56,3846.88L1705,3820.56L1675,3795.52L1635,3781.47L1585,3742.16L1555.86,3731.47L1526.09,3699.04L1488.37,3674.16L1450.29,3631.66L1425.12,3614.16L1389.07,3568.49L1349.14,3530.72L1325.27,3493.87L1303.6,3474.32L1283.3,3423.82L1258.22,3396.89L1237.3,3349L1215.03,3322.26L1192.93,3279L1158.51,3227.07L1146.19,3184.52L1131.06,3155.82L1117.27,3089.16L1091.63,3040.41L1089.25,2972.91L1062.71,2856.66L1068.07,2800.41L1064.26,2717.91L1076.52,2649.16L1091.3,2596.66L1095.48,2540.41L1124.85,2469.16L1130.71,2437.91L1148.43,2397.91L1159.03,2357.6L1207.85,2268.37L1232.17,2234.51L1255.26,2182.91L1276.69,2152.91L1299.96,2102.49L1332.04,2060.27L1354.89,2022.1L1491.92,1851.66L1520.31,1809.41L1544.71,1784.38L1575.06,1737.84L1598.48,1715.58L1628.79,1667.91L1658.48,1637.91L1691.56,1591.66L1719.34,1566.66L1743.93,1531.63L1765.98,1514.03L1793.77,1478.98L1835.42,1442.79L1865,1409.65L1903.75,1381.79L1929.03,1353.38L1968.31,1333.35L2015.28,1293.56L2053.04,1277.76L2077.15,1257.1L2123.04,1232.61L2175,1196.64L2246.25,1162.42L2313.75,1153.49L2347.5,1135.88L2380,1124.69L2440,1113.45L2513.04,1108.66L2552.9,1092.91L2563.61,1096.22Z M2722.6,1719.53L2744.43,1727.4L2804.3,1738.53L2866.18,1764.73L2977.32,1831.95L3052.32,1884.88L3111.25,1936.85L3128.38,1960.31L3164.29,1997.59L3229.87,2092.91L3284.08,2182.91L3306.55,2235.41L3315.03,2281.66L3347.72,2382.91L3353.69,2419.16L3356.75,2480.41L3364.86,2525.41L3355.52,2665.41L3314.67,2847.48L3298.76,2887.84L3251.54,2971.16L3226.57,3027.3L3203.49,3058.69L3186.65,3089.62L3151.25,3134.95L3054.08,3232.12L2984.45,3285.13L2955,3298.8L2907.5,3328.66L2810,3376.36L2746.81,3401.36L2591.85,3436.74L2505,3443.09L2415,3442.26L2366.25,3437.75L2237.5,3414.36L2056.37,3342.65L2020.74,3323.89L1978.98,3295.51L1926.23,3252.73L1845.65,3178.79L1794.72,3121.57L1752.27,3062.91L1722.13,3004.16L1687.9,2920.41L1656.55,2815.41L1648.81,2732.91L1647.85,2634.16L1669.15,2475.41L1738.46,2290.41L1823.06,2154.16L1905.85,2045.41L1966.7,1979.16L2033.02,1917.91L2103.81,1861.66L2178.74,1810.41L2262.65,1766.93L2357.14,1732.15L2429.11,1712.24L2561.25,1700.43L2632.5,1706.54L2674.28,1706.08L2714.38,1716.22Z M2611.8,2240.2L2653.68,2257.27L2685,2279.63L2715,2292.07L2731.25,2303.27L2748.73,2331.84L2788.82,2378.19L2803.89,2419.89L2824.77,2458.33L2836.62,2506.87L2838.01,2582.91L2832.27,2619.16L2814.41,2676.66L2809.49,2711.21L2773.86,2770.89L2727.5,2826.42L2678.75,2865.62L2621.25,2896.12L2587.5,2904.49L2542.5,2909.26L2497.5,2922.25L2467.5,2920.17L2437.5,2911.66L2392.5,2911.25L2358.75,2904.67L2320,2885.3L2289.13,2864.55L2231.26,2811.66L2192.99,2762.91L2174.51,2726.66L2167.02,2669.16L2152.24,2607.91L2166.78,2525.41L2167.59,2495.41L2176.41,2461.66L2209.82,2403.99L2264.77,2337.86L2320,2289.58L2380,2250.66L2436.25,2230.19L2497.5,2229.95L2541.18,2220.35L2564.58,2222.32L2600.35,2236.56Z" /></g>
    <g data-label="kontur-tall">
      <text x="2557.5" y="4030.77" text-anchor="middle">100</text>
      <text x="2591.85" y="3436.74" text-anchor="middle">200</text>
      <text x="2437.5" y="2911.66" text-anchor="middle">300</text>
    </g>
  </g>
  <g data-layer="stein" data-iso="213">
    <use href="#iso-sym-knaus" x="2359.4mm" y="3542.31mm" width="1.2mm" height="1.2mm"/>
    <use href="#iso-sym-knaus" x="2479.4mm" y="3542.31mm" width="1.2mm" height="1.2mm"/>
    <use href="#iso-sym-knaus" x="2039.4mm" y="3482.31mm" width="1.2mm" height="1.2mm"/>
    <use href="#iso-sym-knaus" x="2159.4mm" y="3482.31mm" width="1.2mm" height="1.2mm"/>
    <use href="#iso-sym-knaus" x="2299.4mm" y="3482.31mm" width="1.2mm" height="1.2mm"/>
    <use href="#iso-sym-knaus" x="2419.4mm" y="3482.31mm" width="1.2mm" height="1.2mm"/>
    <use href="#iso-sym-knaus" x="2539.4mm" y="3482.31mm" width="1.2mm" height="1.2mm"/>
    <use href="#iso-sym-knaus" x="2679.4mm" y="3482.31mm" width="1.2mm" height="1.2mm"/>
    <use href="#iso-sym-knaus" x="2799.4mm" y="3482.31mm" width="1.2mm" height="1.2mm"/>
    <use href="#iso-sym-knaus" x="2919.4mm" y="3482.31mm" width="1.2mm" height="1.2mm"/>
    <use href="#iso-sym-knaus" x="1859.4mm" y="3422.31mm" width="1.2mm" height="1.2mm"/>
    <use href="#iso-sym-knaus" x="1979.4mm" y="3422.31mm" width="1.2mm" height="1.2mm"/>
    <use href="#iso-sym-knaus" x="2099.4mm" y="3422.31mm" width="1.2mm" height="1.2mm"/>
    <use href="#iso-sym-knaus" x="2239.4mm" y="3422.31mm" width="1.2mm" height="1.2mm"/>
    <use href="#iso-sym-knaus" x="2359.4mm" y="3422.31mm" width="1.2mm" height="1.2mm"/>
    <use href="#iso-sym-knaus" x="2479.4mm" y="3422.31mm" width="1.2mm" height="1.2mm"/>
    <use href="#iso-sym-knaus" x="2599.4mm" y="3422.31mm" width="1.2mm" height="1.2mm"/>
    <use href="#iso-sym-knaus" x="2739.4mm" y="3422.31mm" width="1.2mm" height="1.2mm"/>
    <use href="#iso-sym-knaus" x="2859.4mm" y="3422.31mm" width="1.2mm" height="1.2mm"/>
    <use href="#iso-sym-knaus" x="2979.4mm" y="3422.31mm" width="1.2mm" height="1.2mm"/>
    <use href="#iso-sym-knaus" x="1919.4mm" y="3362.31mm" width="1.2mm" height="1.2mm"/>
    <use href="#iso-sym-knaus" x="2039.4mm" y="3362.31mm" width="1.2mm" height="1.2mm"/>
    <use href="#iso-sym-knaus" x="2159.4mm" y="3362.31mm" width="1.2mm" height="1.2mm"/>
    <use href="#iso-sym-knaus" x="2299.4mm" y="3362.31mm" width="1.2mm" height="1.2mm"/>
    <use href="#iso-sym-knaus" x="2419.4mm" y="3362.31mm" width="1.2mm" height="1.2mm"/>
    <use href="#iso-sym-knaus" x="2539.4mm" y="3362.31mm" width="1.2mm" height="1.2mm"/>
    <use href="#iso-sym-knaus" x="2679.4mm" y="3362.31mm" width="1.2mm" height="1.2mm"/>
    <use href="#iso-sym-knaus" x="2799.4mm" y="3362.31mm" width="1.2mm" height="1.2mm"/>
    <use href="#iso-sym-knaus" x="2919.4mm" y="3362.31mm" width="1.2mm" height="1.2mm"/>
    <use href="#iso-sym-knaus" x="3039.4mm" y="3362.31mm" width="1.2mm" height="1.2mm"/>
    <use href="#iso-sym-knaus" x="1859.4mm" y="3302.31mm" width="1.2mm" height="1.2mm"/>
    <use href="#iso-sym-knaus" x="1979.4mm" y="3302.31mm" width="1.2mm" height="1.2mm"/>
    <use href="#iso-sym-knaus" x="2099.4mm" y="3302.31mm" width="1.2mm" height="1.2mm"/>
    <use href="#iso-sym-knaus" x="2239.4mm" y="3302.31mm" width="1.2mm" height="1.2mm"/>
    <use href="#iso-sym-knaus" x="2359.4mm" y="3302.31mm" width="1.2mm" height="1.2mm"/>
    <use href="#iso-sym-knaus" x="2479.4mm" y="3302.31mm" width="1.2mm" height="1.2mm"/>
    <use href="#iso-sym-knaus" x="2599.4mm" y="3302.31mm" width="1.2mm" height="1.2mm"/>
    <use href="#iso-sym-knaus" x="2739.4mm" y="3302.31mm" width="1.2mm" height="1.2mm"/>
    <use href="#iso-sym-knaus" x="2859.4mm" y="3302.31mm" width="1.2mm" height="1.2mm"/>
    <use href="#iso-sym-knaus" x="2979.4mm" y="3302.31mm" width="1.2mm" height="1.2mm"/>
    <use href="#iso-sym-knaus" x="3239.4mm" y="3302.31mm" width="1.2mm" height="1.2mm"/>
    <use href="#iso-sym-knaus" x="1659.4mm" y="3242.31mm" width="1.2mm" height="1.2mm"/>
    <use href="#iso-sym-knaus" x="1799.4mm" y="3242.31mm" width="1.2mm" height="1.2mm"/>
    <use href="#iso-sym-knaus" x="1919.4mm" y="3242.31mm" width="1.2mm" height="1.2mm"/>
    <use href="#iso-sym-knaus" x="2039.4mm" y="3242.31mm" width="1.2mm" height="1.2mm"/>
    <use href="#iso-sym-knaus" x="2159.4mm" y="3242.31mm" width="1.2mm" height="1.2mm"/>
    <use href="#iso-sym-knaus" x="2299.4mm" y="3242.31mm" width="1.2mm" height="1.2mm"/>
    <use href="#iso-sym-knaus" x="2419.4mm" y="3242.31mm" width="1.2mm" height="1.2mm"/>
    <use href="#iso-sym-knaus" x="2539.4mm" y="3242.31mm" width="1.2mm" height="1.2mm"/>
    <use href="#iso-sym-knaus" x="2679.4mm" y="3242.31mm" width="1.2mm" height="1.2mm"/>
    <use href="#iso-sym-knaus" x="2799.4mm" y="3242.31mm" width="1.2mm" height="1.2mm"/>
    <use href="#iso-sym-knaus" x="2919.4mm" y="3242.31mm" width="1.2mm" height="1.2mm"/>
    <use href="#iso-sym-knaus" x="3039.4mm" y="3242.31mm" width="1.2mm" height="1.2mm"/>
    <use href="#iso-sym-knaus" x="3179.4mm" y="3242.31mm" width="1.2mm" height="1.2mm"/>
    <use href="#iso-sym-knaus" x="1719.4mm" y="3182.31mm" width="1.2mm" height="1.2mm"/>
    <use href="#iso-sym-knaus" x="1859.4mm" y="3182.31mm" width="1.2mm" height="1.2mm"/>
    <use href="#iso-sym-knaus" x="1979.4mm" y="3182.31mm" width="1.2mm" height="1.2mm"/>
    <use href="#iso-sym-knaus" x="2099.4mm" y="3182.31mm" width="1.2mm" height="1.2mm"/>
    <use href="#iso-sym-knaus" x="2239.4mm" y="3182.31mm" width="1.2mm" height="1.2mm"/>
    <use href="#iso-sym-knaus" x="2359.4mm" y="3182.31mm" width="1.2mm" height="1.2mm"/>
    <use href="#iso-sym-knaus" x="2479.4mm" y="3182.31mm" width="1.2mm" height="1.2mm"/>
    <use href="#iso-sym-knaus" x="2599.4mm" y="3182.31mm" width="1.2mm" height="1.2mm"/>
    <use href="#iso-sym-knaus" x="2739.4mm" y="3182.31mm" width="1.2mm" height="1.2mm"/>
    <use href="#iso-sym-knaus" x="2859.4mm" y="3182.31mm" width="1.2mm" height="1.2mm"/>
    <use href="#iso-sym-knaus" x="2979.4mm" y="3182.31mm" width="1.2mm" height="1.2mm"/>
    <use href="#iso-sym-knaus" x="3099.4mm" y="3182.31mm" width="1.2mm" height="1.2mm"/>
    <use href="#iso-sym-knaus" x="3239.4mm" y="3182.31mm" width="1.2mm" height="1.2mm"/>
    <use href="#iso-sym-knaus" x="1659.4mm" y="3102.31mm" width="1.2mm" height="1.2mm"/>
    <use href="#iso-sym-knaus" x="1799.4mm" y="3102.31mm" width="1.2mm" height="1.2mm"/>
    <use href="#iso-sym-knaus" x="1919.4mm" y="3102.31mm" width="1.2mm" height="1.2mm"/>
    <use href="#iso-sym-knaus" x="2039.4mm" y="3102.31mm" width="1.2mm" height="1.2mm"/>
    <use href="#iso-sym-knaus" x="2159.4mm" y="3102.31mm" width="1.2mm" height="1.2mm"/>
    <use href="#iso-sym-knaus" x="2299.4mm" y="3102.31mm" width="1.2mm" height="1.2mm"/>
    <use href="#iso-sym-knaus" x="2419.4mm" y="3102.31mm" width="1.2mm" height="1.2mm"/>
    <use href="#iso-sym-knaus" x="2539.4mm" y="3102.31mm" width="1.2mm" height="1.2mm"/>
    <use href="#iso-sym-knaus" x="2679.4mm" y="3102.31mm" width="1.2mm" height="1.2mm"/>
    <use href="#iso-sym-knaus" x="2799.4mm" y="3102.31mm" width="1.2mm" height="1.2mm"/>
    <use href="#iso-sym-knaus" x="2919.4mm" y="3102.31mm" width="1.2mm" height="1.2mm"/>
    <use href="#iso-sym-knaus" x="3039.4mm" y="3102.31mm" width="1.2mm" height="1.2mm"/>
    <use href="#iso-sym-knaus" x="3179.4mm" y="3102.31mm" width="1.2mm" height="1.2mm"/>
    <use href="#iso-sym-knaus" x="1599.4mm" y="3042.31mm" width="1.2mm" height="1.2mm"/>
    <use href="#iso-sym-knaus" x="1719.4mm" y="3042.31mm" width="1.2mm" height="1.2mm"/>
    <use href="#iso-sym-knaus" x="1859.4mm" y="3042.31mm" width="1.2mm" height="1.2mm"/>
    <use href="#iso-sym-knaus" x="1979.4mm" y="3042.31mm" width="1.2mm" height="1.2mm"/>
    <use href="#iso-sym-knaus" x="2099.4mm" y="3042.31mm" width="1.2mm" height="1.2mm"/>
    <use href="#iso-sym-knaus" x="2239.4mm" y="3042.31mm" width="1.2mm" height="1.2mm"/>
    <use href="#iso-sym-knaus" x="2359.4mm" y="3042.31mm" width="1.2mm" height="1.2mm"/>
    <use href="#iso-sym-knaus" x="2479.4mm" y="3042.31mm" width="1.2mm" height="1.2mm"/>
    <use href="#iso-sym-knaus" x="2599.4mm" y="3042.31mm" width="1.2mm" height="1.2mm"/>
    <use href="#iso-sym-knaus" x="2739.4mm" y="3042.31mm" width="1.2mm" height="1.2mm"/>
    <use href="#iso-sym-knaus" x="2859.4mm" y="3042.31mm" width="1.2mm" height="1.2mm"/>
    <use href="#iso-sym-knaus" x="2979.4mm" y="3042.31mm" width="1.2mm" height="1.2mm"/>
    <use href="#iso-sym-knaus" x="3099.4mm" y="3042.31mm" width="1.2mm" height="1.2mm"/>
    <use href="#iso-sym-knaus" x="3239.4mm" y="3042.31mm" width="1.2mm" height="1.2mm"/>
    <use href="#iso-sym-knaus" x="3359.4mm" y="3042.31mm" width="1.2mm" height="1.2mm"/>
    <use href="#iso-sym-knaus" x="1539.4mm" y="2982.31mm" width="1.2mm" height="1.2mm"/>
    <use href="#iso-sym-knaus" x="1659.4mm" y="2982.31mm" width="1.2mm" height="1.2mm"/>
    <use href="#iso-sym-knaus" x="1799.4mm" y="2982.31mm" width="1.2mm" height="1.2mm"/>
    <use href="#iso-sym-knaus" x="1919.4mm" y="2982.31mm" width="1.2mm" height="1.2mm"/>
    <use href="#iso-sym-knaus" x="2039.4mm" y="2982.31mm" width="1.2mm" height="1.2mm"/>
    <use href="#iso-sym-knaus" x="2159.4mm" y="2982.31mm" width="1.2mm" height="1.2mm"/>
    <use href="#iso-sym-knaus" x="2299.4mm" y="2982.31mm" width="1.2mm" height="1.2mm"/>
    <use href="#iso-sym-knaus" x="2419.4mm" y="2982.31mm" width="1.2mm" height="1.2mm"/>
    <use href="#iso-sym-knaus" x="2539.4mm" y="2982.31mm" width="1.2mm" height="1.2mm"/>
    <use href="#iso-sym-knaus" x="2679.4mm" y="2982.31mm" width="1.2mm" height="1.2mm"/>
    <use href="#iso-sym-knaus" x="2799.4mm" y="2982.31mm" width="1.2mm" height="1.2mm"/>
    <use href="#iso-sym-knaus" x="2919.4mm" y="2982.31mm" width="1.2mm" height="1.2mm"/>
    <use href="#iso-sym-knaus" x="3039.4mm" y="2982.31mm" width="1.2mm" height="1.2mm"/>
    <use href="#iso-sym-knaus" x="3179.4mm" y="2982.31mm" width="1.2mm" height="1.2mm"/>
    <use href="#iso-sym-knaus" x="3299.4mm" y="2982.31mm" width="1.2mm" height="1.2mm"/>
    <use href="#iso-sym-knaus" x="3419.4mm" y="2982.31mm" width="1.2mm" height="1.2mm"/>
    <use href="#iso-sym-knaus" x="1479.4mm" y="2922.31mm" width="1.2mm" height="1.2mm"/>
    <use href="#iso-sym-knaus" x="1599.4mm" y="2922.31mm" width="1.2mm" height="1.2mm"/>
    <use href="#iso-sym-knaus" x="1719.4mm" y="2922.31mm" width="1.2mm" height="1.2mm"/>
    <use href="#iso-sym-knaus" x="1859.4mm" y="2922.31mm" width="1.2mm" height="1.2mm"/>
    <use href="#iso-sym-knaus" x="1979.4mm" y="2922.31mm" width="1.2mm" height="1.2mm"/>
    <use href="#iso-sym-knaus" x="2099.4mm" y="2922.31mm" width="1.2mm" height="1.2mm"/>
    <use href="#iso-sym-knaus" x="2239.4mm" y="2922.31mm" width="1.2mm" height="1.2mm"/>
    <use href="#iso-sym-knaus" x="2359.4mm" y="2922.31mm" width="1.2mm" height="1.2mm"/>
    <use href="#iso-sym-knaus" x="2479.4mm" y="2922.31mm" width="1.2mm" height="1.2mm"/>
    <use href="#iso-sym-knaus" x="2599.4mm" y="2922.31mm" width="1.2mm" height="1.2mm"/>
    <use href="#iso-sym-knaus" x="2739.4mm" y="2922.31mm" width="1.2mm" height="1.2mm"/>
    <use href="#iso-sym-knaus" x="2859.4mm" y="2922.31mm" width="1.2mm" height="1.2mm"/>
    <use href="#iso-sym-knaus" x="2979.4mm" y="2922.31mm" width="1.2mm" height="1.2mm"/>
    <use href="#iso-sym-knaus" x="3099.4mm" y="2922.31mm" width="1.2mm" height="1.2mm"/>
    <use href="#iso-sym-knaus" x="3239.4mm" y="2922.31mm" width="1.2mm" height="1.2mm"/>
    <use href="#iso-sym-knaus" x="3359.4mm" y="2922.31mm" width="1.2mm" height="1.2mm"/>
    <use href="#iso-sym-knaus" x="1419.4mm" y="2862.31mm" width="1.2mm" height="1.2mm"/>
    <use href="#iso-sym-knaus" x="1539.4mm" y="2862.31mm" width="1.2mm" height="1.2mm"/>
    <use href="#iso-sym-knaus" x="1659.4mm" y="2862.31mm" width="1.2mm" height="1.2mm"/>
    <use href="#iso-sym-knaus" x="1799.4mm" y="2862.31mm" width="1.2mm" height="1.2mm"/>
    <use href="#iso-sym-knaus" x="1919.4mm" y="2862.31mm" width="1.2mm" height="1.2mm"/>
    <use href="#iso-sym-knaus" x="2039.4mm" y="2862.31mm" width="1.2mm" height="1.2mm"/>
    <use href="#iso-sym-knaus" x="2159.4mm" y="2862.31mm" width="1.2mm" height="1.2mm"/>
    <use href="#iso-sym-knaus" x="2299.4mm" y="2862.31mm" width="1.2mm" height="1.2mm"/>
    <use href="#iso-sym-knaus" x="2419.4mm" y="2862.31mm" width="1.2mm" height="1.2mm"/>
    <use href="#iso-sym-knaus" x="2539.4mm" y="2862.31mm" width="1.2mm" height="1.2mm"/>
    <use href="#iso-sym-knaus" x="2679.4mm" y="2862.31mm" width="1.2mm" height="1.2mm"/>
    <use href="#iso-sym-knaus" x="2799.4mm" y="2862.31mm" width="1.2mm" height="1.2mm"/>
    <use href="#iso-sym-knaus" x="2919.4mm" y="2862.31mm" width="1.2mm" height="1.2mm"/>
    <use href="#iso-sym-knaus" x="3039.4mm" y="2862.31mm" width="1.2mm" height="1.2mm"/>
    <use href="#iso-sym-knaus" x="3179.4mm" y="2862.31mm" width="1.2mm" height="1.2mm"/>
    <use href="#iso-sym-knaus" x="3299.4mm" y="2862.31mm" width="1.2mm" height="1.2mm"/>
    <use href="#iso-sym-knaus" x="3419.4mm" y="2862.31mm" width="1.2mm" height="1.2mm"/>
    <use href="#iso-sym-knaus" x="1479.4mm" y="2802.31mm" width="1.2mm" height="1.2mm"/>
    <use href="#iso-sym-knaus" x="1599.4mm" y="2802.31mm" width="1.2mm" height="1.2mm"/>
    <use href="#iso-sym-knaus" x="1719.4mm" y="2802.31mm" width="1.2mm" height="1.2mm"/>
    <use href="#iso-sym-knaus" x="1859.4mm" y="2802.31mm" width="1.2mm" height="1.2mm"/>
    <use href="#iso-sym-knaus" x="1979.4mm" y="2802.31mm" width="1.2mm" height="1.2mm"/>
    <use href="#iso-sym-knaus" x="2099.4mm" y="2802.31mm" width="1.2mm" height="1.2mm"/>
    <use href="#iso-sym-knaus" x="2239.4mm" y="2802.31mm" width="1.2mm" height="1.2mm"/>
    <use href="#iso-sym-knaus" x="2359.4mm" y="2802.31mm" width="1.2mm" height="1.2mm"/>
    <use href="#iso-sym-knaus" x="2479.4mm" y="2802.31mm" width="1.2mm" height="1.2mm"/>
    <use href="#iso-sym-knaus" x="2599.4mm" y="2802.31mm" width="1.2mm" height="1.2mm"/>
    <use href="#iso-sym-knaus" x="2739.4mm" y="2802.31mm" width="1.2mm" height="1.2mm"/>
    <use href="#iso-sym-knaus" x="2859.4mm" y="2802.31mm" width="1.2mm" height="1.2mm"/>
    <use href="#iso-sym-knaus" x="2979.4mm" y="2802.31mm" width="1.2mm" height="1.2mm"/>
    <use href="#iso-sym-knaus" x="3099.4mm" y="2802.31mm" width="1.2mm" height="1.2mm"/>
    <use href="#iso-sym-knaus" x="3239.4mm" y="2802.31mm" width="1.2mm" height="1.2mm"/>
    <use href="#iso-sym-knaus" x="3359.4mm" y="2802.31mm" width="1.2mm" height="1.2mm"/>
    <use href="#iso-sym-knaus" x="1539.4mm" y="2742.31mm" width="1.2mm" height="1.2mm"/>
    <use href="#iso-sym-knaus" x="1659.4mm" y="2742.31mm" width="1.2mm" height="1.2mm"/>
    <use href="#iso-sym-knaus" x="1799.4mm" y="2742.31mm" width="1.2mm" height="1.2mm"/>
    <use href="#iso-sym-knaus" x="1919.4mm" y="2742.31mm" width="1.2mm" height="1.2mm"/>
    <use href="#iso-sym-knaus" x="2039.4mm" y="2742.31mm" width="1.2mm" height="1.2mm"/>
    <use href="#iso-sym-knaus" x="2159.4mm" y="2742.31mm" width="1.2mm" height="1.2mm"/>
    <use href="#iso-sym-knaus" x="2299.4mm" y="2742.31mm" width="1.2mm" height="1.2mm"/>
    <use href="#iso-sym-knaus" x="2419.4mm" y="2742.31mm" width="1.2mm" height="1.2mm"/>
    <use href="#iso-sym-knaus" x="2539.4mm" y="2742.31mm" width="1.2mm" height="1.2mm"/>
    <use href="#iso-sym-knaus" x="2679.4mm" y="2742.31mm" width="1.2mm" height="1.2mm"/>
    <use href="#iso-sym-knaus" x="2799.4mm" y="2742.31mm" width="1.2mm" height="1.2mm"/>
    <use href="#iso-sym-knaus" x="2919.4mm" y="2742.31mm" width="1.2mm" height="1.2mm"/>
    <use href="#iso-sym-knaus" x="3039.4mm" y="2742.31mm" width="1.2mm" height="1.2mm"/>
    <use href="#iso-sym-knaus" x="3179.4mm" y="2742.31mm" width="1.2mm" height="1.2mm"/>
    <use href="#iso-sym-knaus" x="3299.4mm" y="2742.31mm" width="1.2mm" height="1.2mm"/>
    <use href="#iso-sym-knaus" x="3419.4mm" y="2742.31mm" width="1.2mm" height="1.2mm"/>
    <use href="#iso-sym-knaus" x="1599.4mm" y="2662.31mm" width="1.2mm" height="1.2mm"/>
    <use href="#iso-sym-knaus" x="1719.4mm" y="2662.31mm" width="1.2mm" height="1.2mm"/>
    <use href="#iso-sym-knaus" x="1859.4mm" y="2662.31mm" width="1.2mm" height="1.2mm"/>
    <use href="#iso-sym-knaus" x="1979.4mm" y="2662.31mm" width="1.2mm" height="1.2mm"/>
    <use href="#iso-sym-knaus" x="2099.4mm" y="2662.31mm" width="1.2mm" height="1.2mm"/>
    <use href="#iso-sym-knaus" x="2239.4mm" y="2662.31mm" width="1.2mm" height="1.2mm"/>
    <use href="#iso-sym-knaus" x="2359.4mm" y="2662.31mm" width="1.2mm" height="1.2mm"/>
    <use href="#iso-sym-knaus" x="2479.4mm" y="2662.31mm" width="1.2mm" height="1.2mm"/>
    <use href="#iso-sym-knaus" x="2599.4mm" y="2662.31mm" width="1.2mm" height="1.2mm"/>
    <use href="#iso-sym-knaus" x="2739.4mm" y="2662.31mm" width="1.2mm" height="1.2mm"/>
    <use href="#iso-sym-knaus" x="2859.4mm" y="2662.31mm" width="1.2mm" height="1.2mm"/>
    <use href="#iso-sym-knaus" x="2979.4mm" y="2662.31mm" width="1.2mm" height="1.2mm"/>
    <use href="#iso-sym-knaus" x="3099.4mm" y="2662.31mm" width="1.2mm" height="1.2mm"/>
    <use href="#iso-sym-knaus" x="3239.4mm" y="2662.31mm" width="1.2mm" height="1.2mm"/>
    <use href="#iso-sym-knaus" x="3359.4mm" y="2662.31mm" width="1.2mm" height="1.2mm"/>
    <use href="#iso-sym-knaus" x="1539.4mm" y="2602.31mm" width="1.2mm" height="1.2mm"/>
    <use href="#iso-sym-knaus" x="1659.4mm" y="2602.31mm" width="1.2mm" height="1.2mm"/>
    <use href="#iso-sym-knaus" x="1799.4mm" y="2602.31mm" width="1.2mm" height="1.2mm"/>
    <use href="#iso-sym-knaus" x="1919.4mm" y="2602.31mm" width="1.2mm" height="1.2mm"/>
    <use href="#iso-sym-knaus" x="2039.4mm" y="2602.31mm" width="1.2mm" height="1.2mm"/>
    <use href="#iso-sym-knaus" x="2159.4mm" y="2602.31mm" width="1.2mm" height="1.2mm"/>
    <use href="#iso-sym-knaus" x="2299.4mm" y="2602.31mm" width="1.2mm" height="1.2mm"/>
    <use href="#iso-sym-knaus" x="2419.4mm" y="2602.31mm" width="1.2mm" height="1.2mm"/>
    <use href="#iso-sym-knaus" x="2539.4mm" y="2602.31mm" width="1.2mm" height="1.2mm"/>
    <use href="#iso-sym-knaus" x="2679.4mm" y="2602.31mm" width="1.2mm" height="1.2mm"/>
    <use href="#iso-sym-knaus" x="2799.4mm" y="2602.31mm" width="1.2mm" height="1.2mm"/>
    <use href="#iso-sym-knaus" x="2919.4mm" y="2602.31mm" width="1.2mm" height="1.2mm"/>
    <use href="#iso-sym-knaus" x="3039.4mm" y="2602.31mm" width="1.2mm" height="1.2mm"/>
    <use href="#iso-sym-knaus" x="3179.4mm" y="2602.31mm" width="1.2mm" height="1.2mm"/>
    <use href="#iso-sym-knaus" x="3299.4mm" y="2602.31mm" width="1.2mm" height="1.2mm"/>
    <use href="#iso-sym-knaus" x="3419.4mm" y="2602.31mm" width="1.2mm" height="1.2mm"/>
    <use href="#iso-sym-knaus" x="1479.4mm" y="2542.31mm" width="1.2mm" height="1.2mm"/>
    <use href="#iso-sym-knaus" x="1599.4mm" y="2542.31mm" width="1.2mm" height="1.2mm"/>
    <use href="#iso-sym-knaus" x="1719.4mm" y="2542.31mm" width="1.2mm" height="1.2mm"/>
    <use href="#iso-sym-knaus" x="1859.4mm" y="2542.31mm" width="1.2mm" height="1.2mm"/>
    <use href="#iso-sym-knaus" x="1979.4mm" y="2542.31mm" width="1.2mm" height="1.2mm"/>
    <use href="#iso-sym-knaus" x="2099.4mm" y="2542.31mm" width="1.2mm" height="1.2mm"/>
    <use href="#iso-sym-knaus" x="2239.4mm" y="2542.31mm" width="1.2mm" height="1.2mm"/>
    <use href="#iso-sym-knaus" x="2359.4mm" y="2542.31mm" width="1.2mm" height="1.2mm"/>
    <use href="#iso-sym-knaus" x="2479.4mm" y="2542.31mm" width="1.2mm" height="1.2mm"/>
    <use href="#iso-sym-knaus" x="2599.4mm" y="2542.31mm" width="1.2mm" height="1.2mm"/>
    <use href="#iso-sym-knaus" x="2739.4mm" y="2542.31mm" width="1.2mm" height="1.2mm"/>
    <use href="#iso-sym-knaus" x="2859.4mm" y="2542.31mm" width="1.2mm" height="1.2mm"/>
    <use href="#iso-sym-knaus" x="2979.4mm" y="2542.31mm" width="1.2mm" height="1.2mm"/>
    <use href="#iso-sym-knaus" x="3099.4mm" y="2542.31mm" width="1.2mm" height="1.2mm"/>
    <use href="#iso-sym-knaus" x="3239.4mm" y="2542.31mm" width="1.2mm" height="1.2mm"/>
    <use href="#iso-sym-knaus" x="3359.4mm" y="2542.31mm" width="1.2mm" height="1.2mm"/>
    <use href="#iso-sym-knaus" x="3479.4mm" y="2542.31mm" width="1.2mm" height="1.2mm"/>
    <use href="#iso-sym-knaus" x="1539.4mm" y="2482.31mm" width="1.2mm" height="1.2mm"/>
    <use href="#iso-sym-knaus" x="1659.4mm" y="2482.31mm" width="1.2mm" height="1.2mm"/>
    <use href="#iso-sym-knaus" x="1799.4mm" y="2482.31mm" width="1.2mm" height="1.2mm"/>
    <use href="#iso-sym-knaus" x="1919.4mm" y="2482.31mm" width="1.2mm" height="1.2mm"/>
    <use href="#iso-sym-knaus" x="2039.4mm" y="2482.31mm" width="1.2mm" height="1.2mm"/>
    <use href="#iso-sym-knaus" x="2159.4mm" y="2482.31mm" width="1.2mm" height="1.2mm"/>
    <use href="#iso-sym-knaus" x="2299.4mm" y="2482.31mm" width="1.2mm" height="1.2mm"/>
    <use href="#iso-sym-knaus" x="2419.4mm" y="2482.31mm" width="1.2mm" height="1.2mm"/>
    <use href="#iso-sym-knaus" x="2539.4mm" y="2482.31mm" width="1.2mm" height="1.2mm"/>
    <use href="#iso-sym-knaus" x="2679.4mm" y="2482.31mm" width="1.2mm" height="1.2mm"/>
    <use href="#iso-sym-knaus" x="2799.4mm" y="2482.31mm" width="1.2mm" height="1.2mm"/>
    <use href="#iso-sym-knaus" x="2919.4mm" y="2482.31mm" width="1.2mm" height="1.2mm"/>
    <use href="#iso-sym-knaus" x="3039.4mm" y="2482.31mm" width="1.2mm" height="1.2mm"/>
    <use href="#iso-sym-knaus" x="3179.4mm" y="2482.31mm" width="1.2mm" height="1.2mm"/>
    <use href="#iso-sym-knaus" x="3299.4mm" y="2482.31mm" width="1.2mm" height="1.2mm"/>
    <use href="#iso-sym-knaus" x="3419.4mm" y="2482.31mm" width="1.2mm" height="1.2mm"/>
    <use href="#iso-sym-knaus" x="1479.4mm" y="2422.31mm" width="1.2mm" height="1.2mm"/>
    <use href="#iso-sym-knaus" x="1599.4mm" y="2422.31mm" width="1.2mm" height="1.2mm"/>
    <use href="#iso-sym-knaus" x="1719.4mm" y="2422.31mm" width="1.2mm" height="1.2mm"/>
    <use href="#iso-sym-knaus" x="1859.4mm" y="2422.31mm" width="1.2mm" height="1.2mm"/>
    <use href="#iso-sym-knaus" x="1979.4mm" y="2422.31mm" width="1.2mm" height="1.2mm"/>
    <use href="#iso-sym-knaus" x="2099.4mm" y="2422.31mm" width="1.2mm" height="1.2mm"/>
    <use href="#iso-sym-knaus" x="2239.4mm" y="2422.31mm" width="1.2mm" height="1.2mm"/>
    <use href="#iso-sym-knaus" x="2359.4mm" y="2422.31mm" width="1.2mm" height="1.2mm"/>
    <use href="#iso-sym-knaus" x="2479.4mm" y="2422.31mm" width="1.2mm" height="1.2mm"/>
    <use href="#iso-sym-knaus" x="2599.4mm" y="2422.31mm" width="1.2mm" height="1.2mm"/>
    <use href="#iso-sym-knaus" x="2739.4mm" y="2422.31mm" width="1.2mm" height="1.2mm"/>
    <use href="#iso-sym-knaus" x="2859.4mm" y="2422.31mm" width="1.2mm" height="1.2mm"/>
    <use href="#iso-sym-knaus" x="2979.4mm" y="2422.31mm" width="1.2mm" height="1.2mm"/>
    <use href="#iso-sym-knaus" x="3099.4mm" y="2422.31mm" width="1.2mm" height="1.2mm"/>
    <use href="#iso-sym-knaus" x="3239.4mm" y="2422.31mm" width="1.2mm" height="1.2mm"/>
    <use href="#iso-sym-knaus" x="3359.4mm" y="2422.31mm" width="1.2mm" height="1.2mm"/>
    <use href="#iso-sym-knaus" x="3479.4mm" y="2422.31mm" width="1.2mm" height="1.2mm"/>
    <use href="#iso-sym-knaus" x="1539.4mm" y="2362.31mm" width="1.2mm" height="1.2mm"/>
    <use href="#iso-sym-knaus" x="1659.4mm" y="2362.31mm" width="1.2mm" height="1.2mm"/>
    <use href="#iso-sym-knaus" x="1799.4mm" y="2362.31mm" width="1.2mm" height="1.2mm"/>
    <use href="#iso-sym-knaus" x="1919.4mm" y="2362.31mm" width="1.2mm" height="1.2mm"/>
    <use href="#iso-sym-knaus" x="2039.4mm" y="2362.31mm" width="1.2mm" height="1.2mm"/>
    <use href="#iso-sym-knaus" x="2159.4mm" y="2362.31mm" width="1.2mm" height="1.2mm"/>
    <use href="#iso-sym-knaus" x="2299.4mm" y="2362.31mm" width="1.2mm" height="1.2mm"/>
    <use href="#iso-sym-knaus" x="2419.4mm" y="2362.31mm" width="1.2mm" height="1.2mm"/>
    <use href="#iso-sym-knaus" x="2539.4mm" y="2362.31mm" width="1.2mm" height="1.2mm"/>
    <use href="#iso-sym-knaus" x="2679.4mm" y="2362.31mm" width="1.2mm" height="1.2mm"/>
    <use href="#iso-sym-knaus" x="2799.4mm" y="2362.31mm" width="1.2mm" height="1.2mm"/>
    <use href="#iso-sym-knaus" x="2919.4mm" y="2362.31mm" width="1.2mm" height="1.2mm"/>
    <use href="#iso-sym-knaus" x="3039.4mm" y="2362.31mm" width="1.2mm" height="1.2mm"/>
    <use href="#iso-sym-knaus" x="3179.4mm" y="2362.31mm" width="1.2mm" height="1.2mm"/>
    <use href="#iso-sym-knaus" x="3299.4mm" y="2362.31mm" width="1.2mm" height="1.2mm"/>
    <use href="#iso-sym-knaus" x="3419.4mm" y="2362.31mm" width="1.2mm" height="1.2mm"/>
    <use href="#iso-sym-knaus" x="1599.4mm" y="2302.31mm" width="1.2mm" height="1.2mm"/>
    <use href="#iso-sym-knaus" x="1719.4mm" y="2302.31mm" width="1.2mm" height="1.2mm"/>
    <use href="#iso-sym-knaus" x="1859.4mm" y="2302.31mm" width="1.2mm" height="1.2mm"/>
    <use href="#iso-sym-knaus" x="1979.4mm" y="2302.31mm" width="1.2mm" height="1.2mm"/>
    <use href="#iso-sym-knaus" x="2099.4mm" y="2302.31mm" width="1.2mm" height="1.2mm"/>
    <use href="#iso-sym-knaus" x="2239.4mm" y="2302.31mm" width="1.2mm" height="1.2mm"/>
    <use href="#iso-sym-knaus" x="2359.4mm" y="2302.31mm" width="1.2mm" height="1.2mm"/>
    <use href="#iso-sym-knaus" x="2479.4mm" y="2302.31mm" width="1.2mm" height="1.2mm"/>
    <use href="#iso-sym-knaus" x="2599.4mm" y="2302.31mm" width="1.2mm" height="1.2mm"/>
    <use href="#iso-sym-knaus" x="2739.4mm" y="2302.31mm" width="1.2mm" height="1.2mm"/>
    <use href="#iso-sym-knaus" x="2859.4mm" y="2302.31mm" width="1.2mm" height="1.2mm"/>
    <use href="#iso-sym-knaus" x="2979.4mm" y="2302.31mm" width="1.2mm" height="1.2mm"/>
    <use href="#iso-sym-knaus" x="3099.4mm" y="2302.31mm" width="1.2mm" height="1.2mm"/>
    <use href="#iso-sym-knaus" x="3239.4mm" y="2302.31mm" width="1.2mm" height="1.2mm"/>
    <use href="#iso-sym-knaus" x="3359.4mm" y="2302.31mm" width="1.2mm" height="1.2mm"/>
    <use href="#iso-sym-knaus" x="1799.4mm" y="2242.31mm" width="1.2mm" height="1.2mm"/>
    <use href="#iso-sym-knaus" x="1919.4mm" y="2242.31mm" width="1.2mm" height="1.2mm"/>
    <use href="#iso-sym-knaus" x="2039.4mm" y="2242.31mm" width="1.2mm" height="1.2mm"/>
    <use href="#iso-sym-knaus" x="2159.4mm" y="2242.31mm" width="1.2mm" height="1.2mm"/>
    <use href="#iso-sym-knaus" x="2299.4mm" y="2242.31mm" width="1.2mm" height="1.2mm"/>
    <use href="#iso-sym-knaus" x="2419.4mm" y="2242.31mm" width="1.2mm" height="1.2mm"/>
    <use href="#iso-sym-knaus" x="2539.4mm" y="2242.31mm" width="1.2mm" height="1.2mm"/>
    <use href="#iso-sym-knaus" x="2679.4mm" y="2242.31mm" width="1.2mm" height="1.2mm"/>
    <use href="#iso-sym-knaus" x="2799.4mm" y="2242.31mm" width="1.2mm" height="1.2mm"/>
    <use href="#iso-sym-knaus" x="2919.4mm" y="2242.31mm" width="1.2mm" height="1.2mm"/>
    <use href="#iso-sym-knaus" x="3039.4mm" y="2242.31mm" width="1.2mm" height="1.2mm"/>
    <use href="#iso-sym-knaus" x="3179.4mm" y="2222.31mm" width="1.2mm" height="1.2mm"/>
    <use href="#iso-sym-knaus" x="3299.4mm" y="2222.31mm" width="1.2mm" height="1.2mm"/>
    <use href="#iso-sym-knaus" x="1859.4mm" y="2162.31mm" width="1.2mm" height="1.2mm"/>
    <use href="#iso-sym-knaus" x="1979.4mm" y="2162.31mm" width="1.2mm" height="1.2mm"/>
    <use href="#iso-sym-knaus" x="2099.4mm" y="2162.31mm" width="1.2mm" height="1.2mm"/>
    <use href="#iso-sym-knaus" x="2239.4mm" y="2162.31mm" width="1.2mm" height="1.2mm"/>
    <use href="#iso-sym-knaus" x="2359.4mm" y="2162.31mm" width="1.2mm" height="1.2mm"/>
    <use href="#iso-sym-knaus" x="2479.4mm" y="2162.31mm" width="1.2mm" height="1.2mm"/>
    <use href="#iso-sym-knaus" x="2599.4mm" y="2162.31mm" width="1.2mm" height="1.2mm"/>
    <use href="#iso-sym-knaus" x="2739.4mm" y="2162.31mm" width="1.2mm" height="1.2mm"/>
    <use href="#iso-sym-knaus" x="2859.4mm" y="2162.31mm" width="1.2mm" height="1.2mm"/>
    <use href="#iso-sym-knaus" x="2979.4mm" y="2162.31mm" width="1.2mm" height="1.2mm"/>
    <use href="#iso-sym-knaus" x="3099.4mm" y="2162.31mm" width="1.2mm" height="1.2mm"/>
    <use href="#iso-sym-knaus" x="3239.4mm" y="2162.31mm" width="1.2mm" height="1.2mm"/>
    <use href="#iso-sym-knaus" x="3359.4mm" y="2162.31mm" width="1.2mm" height="1.2mm"/>
    <use href="#iso-sym-knaus" x="1799.4mm" y="2102.31mm" width="1.2mm" height="1.2mm"/>
    <use href="#iso-sym-knaus" x="1919.4mm" y="2102.31mm" width="1.2mm" height="1.2mm"/>
    <use href="#iso-sym-knaus" x="2039.4mm" y="2102.31mm" width="1.2mm" height="1.2mm"/>
    <use href="#iso-sym-knaus" x="2159.4mm" y="2102.31mm" width="1.2mm" height="1.2mm"/>
    <use href="#iso-sym-knaus" x="2299.4mm" y="2102.31mm" width="1.2mm" height="1.2mm"/>
    <use href="#iso-sym-knaus" x="2419.4mm" y="2102.31mm" width="1.2mm" height="1.2mm"/>
    <use href="#iso-sym-knaus" x="2539.4mm" y="2102.31mm" width="1.2mm" height="1.2mm"/>
    <use href="#iso-sym-knaus" x="2679.4mm" y="2102.31mm" width="1.2mm" height="1.2mm"/>
    <use href="#iso-sym-knaus" x="2799.4mm" y="2102.31mm" width="1.2mm" height="1.2mm"/>
    <use href="#iso-sym-knaus" x="2919.4mm" y="2102.31mm" width="1.2mm" height="1.2mm"/>
    <use href="#iso-sym-knaus" x="3039.4mm" y="2102.31mm" width="1.2mm" height="1.2mm"/>
    <use href="#iso-sym-knaus" x="3179.4mm" y="2102.31mm" width="1.2mm" height="1.2mm"/>
    <use href="#iso-sym-knaus" x="3299.4mm" y="2102.31mm" width="1.2mm" height="1.2mm"/>
    <use href="#iso-sym-knaus" x="3419.4mm" y="2102.31mm" width="1.2mm" height="1.2mm"/>
    <use href="#iso-sym-knaus" x="1859.4mm" y="2042.31mm" width="1.2mm" height="1.2mm"/>
    <use href="#iso-sym-knaus" x="1979.4mm" y="2042.31mm" width="1.2mm" height="1.2mm"/>
    <use href="#iso-sym-knaus" x="2099.4mm" y="2042.31mm" width="1.2mm" height="1.2mm"/>
    <use href="#iso-sym-knaus" x="2239.4mm" y="2042.31mm" width="1.2mm" height="1.2mm"/>
    <use href="#iso-sym-knaus" x="2359.4mm" y="2042.31mm" width="1.2mm" height="1.2mm"/>
    <use href="#iso-sym-knaus" x="2479.4mm" y="2042.31mm" width="1.2mm" height="1.2mm"/>
    <use href="#iso-sym-knaus" x="2599.4mm" y="2042.31mm" width="1.2mm" height="1.2mm"/>
    <use href="#iso-sym-knaus" x="2739.4mm" y="2042.31mm" width="1.2mm" height="1.2mm"/>
    <use href="#iso-sym-knaus" x="2859.4mm" y="2042.31mm" width="1.2mm" height="1.2mm"/>
    <use href="#iso-sym-knaus" x="2979.4mm" y="2042.31mm" width="1.2mm" height="1.2mm"/>
    <use href="#iso-sym-knaus" x="3099.4mm" y="2042.31mm" width="1.2mm" height="1.2mm"/>
    <use href="#iso-sym-knaus" x="3239.4mm" y="2042.31mm" width="1.2mm" height="1.2mm"/>
    <use href="#iso-sym-knaus" x="3359.4mm" y="2042.31mm" width="1.2mm" height="1.2mm"/>
    <use href="#iso-sym-knaus" x="1919.4mm" y="1982.31mm" width="1.2mm" height="1.2mm"/>
    <use href="#iso-sym-knaus" x="2039.4mm" y="1982.31mm" width="1.2mm" height="1.2mm"/>
    <use href="#iso-sym-knaus" x="2159.4mm" y="1982.31mm" width="1.2mm" height="1.2mm"/>
    <use href="#iso-sym-knaus" x="2299.4mm" y="1982.31mm" width="1.2mm" height="1.2mm"/>
    <use href="#iso-sym-knaus" x="2419.4mm" y="1982.31mm" width="1.2mm" height="1.2mm"/>
    <use href="#iso-sym-knaus" x="2539.4mm" y="1982.31mm" width="1.2mm" height="1.2mm"/>
    <use href="#iso-sym-knaus" x="2679.4mm" y="1982.31mm" width="1.2mm" height="1.2mm"/>
    <use href="#iso-sym-knaus" x="2799.4mm" y="1982.31mm" width="1.2mm" height="1.2mm"/>
    <use href="#iso-sym-knaus" x="2919.4mm" y="1982.31mm" width="1.2mm" height="1.2mm"/>
    <use href="#iso-sym-knaus" x="3039.4mm" y="1982.31mm" width="1.2mm" height="1.2mm"/>
    <use href="#iso-sym-knaus" x="3179.4mm" y="1982.31mm" width="1.2mm" height="1.2mm"/>
    <use href="#iso-sym-knaus" x="3299.4mm" y="1982.31mm" width="1.2mm" height="1.2mm"/>
    <use href="#iso-sym-knaus" x="1979.4mm" y="1922.31mm" width="1.2mm" height="1.2mm"/>
    <use href="#iso-sym-knaus" x="2099.4mm" y="1922.31mm" width="1.2mm" height="1.2mm"/>
    <use href="#iso-sym-knaus" x="2239.4mm" y="1922.31mm" width="1.2mm" height="1.2mm"/>
    <use href="#iso-sym-knaus" x="2359.4mm" y="1922.31mm" width="1.2mm" height="1.2mm"/>
    <use href="#iso-sym-knaus" x="2479.4mm" y="1922.31mm" width="1.2mm" height="1.2mm"/>
    <use href="#iso-sym-knaus" x="2599.4mm" y="1922.31mm" width="1.2mm" height="1.2mm"/>
    <use href="#iso-sym-knaus" x="2739.4mm" y="1922.31mm" width="1.2mm" height="1.2mm"/>
    <use href="#iso-sym-knaus" x="2859.4mm" y="1922.31mm" width="1.2mm" height="1.2mm"/>
    <use href="#iso-sym-knaus" x="2979.4mm" y="1922.31mm" width="1.2mm" height="1.2mm"/>
    <use href="#iso-sym-knaus" x="3099.4mm" y="1922.31mm" width="1.2mm" height="1.2mm"/>
    <use href="#iso-sym-knaus" x="3239.4mm" y="1922.31mm" width="1.2mm" height="1.2mm"/>
    <use href="#iso-sym-knaus" x="2039.4mm" y="1862.31mm" width="1.2mm" height="1.2mm"/>
    <use href="#iso-sym-knaus" x="2159.4mm" y="1862.31mm" width="1.2mm" height="1.2mm"/>
    <use href="#iso-sym-knaus" x="2299.4mm" y="1862.31mm" width="1.2mm" height="1.2mm"/>
    <use href="#iso-sym-knaus" x="2419.4mm" y="1862.31mm" width="1.2mm" height="1.2mm"/>
    <use href="#iso-sym-knaus" x="2539.4mm" y="1862.31mm" width="1.2mm" height="1.2mm"/>
    <use href="#iso-sym-knaus" x="2679.4mm" y="1862.31mm" width="1.2mm" height="1.2mm"/>
    <use href="#iso-sym-knaus" x="2799.4mm" y="1862.31mm" width="1.2mm" height="1.2mm"/>
    <use href="#iso-sym-knaus" x="2919.4mm" y="1862.31mm" width="1.2mm" height="1.2mm"/>
    <use href="#iso-sym-knaus" x="3039.4mm" y="1862.31mm" width="1.2mm" height="1.2mm"/>
    <use href="#iso-sym-knaus" x="2099.4mm" y="1802.31mm" width="1.2mm" height="1.2mm"/>
    <use href="#iso-sym-knaus" x="2239.4mm" y="1802.31mm" width="1.2mm" height="1.2mm"/>
    <use href="#iso-sym-knaus" x="2359.4mm" y="1802.31mm" width="1.2mm" height="1.2mm"/>
    <use href="#iso-sym-knaus" x="2479.4mm" y="1802.31mm" width="1.2mm" height="1.2mm"/>
    <use href="#iso-sym-knaus" x="2599.4mm" y="1802.31mm" width="1.2mm" height="1.2mm"/>
    <use href="#iso-sym-knaus" x="2739.4mm" y="1802.31mm" width="1.2mm" height="1.2mm"/>
    <use href="#iso-sym-knaus" x="2859.4mm" y="1802.31mm" width="1.2mm" height="1.2mm"/>
    <use href="#iso-sym-knaus" x="2979.4mm" y="1802.31mm" width="1.2mm" height="1.2mm"/>
    <use href="#iso-sym-knaus" x="2159.4mm" y="1722.31mm" width="1.2mm" height="1.2mm"/>
    <use href="#iso-sym-knaus" x="2299.4mm" y="1722.31mm" width="1.2mm" height="1.2mm"/>
    <use href="#iso-sym-knaus" x="2419.4mm" y="1722.31mm" width="1.2mm" height="1.2mm"/>
    <use href="#iso-sym-knaus" x="2539.4mm" y="1722.31mm" width="1.2mm" height="1.2mm"/>
    <use href="#iso-sym-knaus" x="2679.4mm" y="1722.31mm" width="1.2mm" height="1.2mm"/>
    <use href="#iso-sym-knaus" x="2799.4mm" y="1722.31mm" width="1.2mm" height="1.2mm"/>
    <use href="#iso-sym-knaus" x="2919.4mm" y="1722.31mm" width="1.2mm" height="1.2mm"/>
    <use href="#iso-sym-knaus" x="2099.4mm" y="1662.31mm" width="1.2mm" height="1.2mm"/>
    <use href="#iso-sym-knaus" x="2239.4mm" y="1662.31mm" width="1.2mm" height="1.2mm"/>
    <use href="#iso-sym-knaus" x="2359.4mm" y="1662.31mm" width="1.2mm" height="1.2mm"/>
    <use href="#iso-sym-knaus" x="2479.4mm" y="1662.31mm" width="1.2mm" height="1.2mm"/>
    <use href="#iso-sym-knaus" x="2599.4mm" y="1662.31mm" width="1.2mm" height="1.2mm"/>
    <use href="#iso-sym-knaus" x="2739.4mm" y="1662.31mm" width="1.2mm" height="1.2mm"/>
    <use href="#iso-sym-knaus" x="2859.4mm" y="1662.31mm" width="1.2mm" height="1.2mm"/>
    <use href="#iso-sym-knaus" x="2979.4mm" y="1662.31mm" width="1.2mm" height="1.2mm"/>
    <use href="#iso-sym-knaus" x="2299.4mm" y="1602.31mm" width="1.2mm" height="1.2mm"/>
    <use href="#iso-sym-knaus" x="2419.4mm" y="1602.31mm" width="1.2mm" height="1.2mm"/>
    <use href="#iso-sym-knaus" x="2539.4mm" y="1602.31mm" width="1.2mm" height="1.2mm"/>
    <use href="#iso-sym-knaus" x="2679.4mm" y="1602.31mm" width="1.2mm" height="1.2mm"/>
    <use href="#iso-sym-knaus" x="2799.4mm" y="1602.31mm" width="1.2mm" height="1.2mm"/>
    <use href="#iso-sym-knaus" x="2919.4mm" y="1602.31mm" width="1.2mm" height="1.2mm"/>
    <use href="#iso-sym-knaus" x="2359.4mm" y="1542.31mm" width="1.2mm" height="1.2mm"/>
    <use href="#iso-sym-knaus" x="2479.4mm" y="1542.31mm" width="1.2mm" height="1.2mm"/>
    <use href="#iso-sym-knaus" x="2599.4mm" y="1542.31mm" width="1.2mm" height="1.2mm"/>
    <use href="#iso-sym-knaus" x="2739.4mm" y="1542.31mm" width="1.2mm" height="1.2mm"/>
    <use href="#iso-sym-knaus" x="2859.4mm" y="1542.31mm" width="1.2mm" height="1.2mm"/>
    <use href="#iso-sym-knaus" x="2419.4mm" y="1482.31mm" width="1.2mm" height="1.2mm"/>
    <use href="#iso-sym-knaus" x="2539.4mm" y="1482.31mm" width="1.2mm" height="1.2mm"/>
  </g>

  <g data-layer="navn" pointer-events="none">
    <text x="2459" y="2361" text-anchor="middle"
          font-size="120" font-weight="700" fill="#7f4f24" opacity="0.45">
      Kart genereres av CI
    </text>
    <text x="2459" y="2501" text-anchor="middle"
          font-size="60" fill="#7f4f24" opacity="0.4">
      Trigge "Build map and deploy" i GitHub Actions
    </text>
    <text x="2459" y="256120" text-anchor="middle"
          font-size="60" fill="#7f4f24" opacity="0.4">
      eller vent på neste push til feature-branchen
    </text>
    <text x="2459" y="2561200" text-anchor="middle"
          font-size="50" fill="#7f4f24" opacity="0.5" font-weight="600">
      Vardåsen i Asker
    </text>
  </g>
</svg>
