<?xml version="1.0" encoding="UTF-8"?>
<svg xmlns="http://www.w3.org/2000/svg" class="isom-map" viewBox="0 0 4917.15 5122.91" width="491.71mm" height="512.29mm" data-meta='{"bbox":{"south":59.79122347747748,"north":59.83626852252252,"west":10.369822923306415,"east":10.459409076693586},"utmBbox":{"minE":576882.8265180711,"minN":6628954.897738419,"maxE":581799.9733845863,"maxN":6634077.809742244},"widthM":4917.146866515162,"heightM":5122.912003825419,"scaleDenom":10000,"equidistance":20,"elevationRange":{"min":43,"max":327},"isomVersion":"2017-2-derived","source":"Stub — venter på CI-generert OSM-data (men inkluderer syntetisk DEM-konturer)","generated":"2026-05-07T09:53:46.920Z"}'>
  <defs><pattern id="iso-pat-myr" patternUnits="userSpaceOnUse" width="1.5mm" height="1.2mm"><line x1="0mm" y1="0.6mm" x2="1.5mm" y2="0.6mm" stroke="#0099cc" stroke-width="0.18mm"/></pattern><pattern id="iso-pat-myr-utrygg" patternUnits="userSpaceOnUse" width="1mm" height="0.6mm"><line x1="0mm" y1="0.3mm" x2="1mm" y2="0.3mm" stroke="#0099cc" stroke-width="0.18mm"/></pattern><pattern id="iso-pat-kratt" patternUnits="userSpaceOnUse" width="2mm" height="2mm"><rect width="2mm" height="2mm" fill="#94d473"/><circle cx="0.5mm" cy="0.5mm" r="0.18mm" fill="#3e8c2c"/><circle cx="1.4mm" cy="1.5mm" r="0.18mm" fill="#3e8c2c"/></pattern><pattern id="iso-pat-halv-aapen" patternUnits="userSpaceOnUse" width="2.5mm" height="2.5mm"><rect width="2.5mm" height="2.5mm" fill="#ffd966"/><circle cx="1.25mm" cy="1.25mm" r="0.18mm" fill="#cae8a3"/></pattern><pattern id="iso-pat-hugst" patternUnits="userSpaceOnUse" width="2mm" height="2mm"><rect width="2mm" height="2mm" fill="#cae8a3"/><line x1="0.5mm" y1="0.3mm" x2="0.7mm" y2="1.7mm" stroke="#5cb348" stroke-width="0.2mm"/></pattern><pattern id="iso-pat-blokkmark" patternUnits="userSpaceOnUse" width="2.5mm" height="2.5mm"><polygon points="1.25mm,0.7mm 1.7mm,1.5mm 0.8mm,1.5mm" fill="#000"/></pattern><pattern id="iso-pat-bebyggelse" patternUnits="userSpaceOnUse" width="1.5mm" height="1.5mm"><rect width="1.5mm" height="1.5mm" fill="#d9b89a"/><rect x="0.2mm" y="0.2mm" width="1.1mm" height="1.1mm" fill="#7a5a3a"/></pattern><symbol id="iso-sym-knaus" viewBox="-1 -1 2 2"><path d="M-0.6 0.4 A0.6 0.4 0 0 0 0.6 0.4" fill="none" stroke="#7f4f24" stroke-width="0.14mm"/></symbol><symbol id="iso-sym-stein" viewBox="-1 -1 2 2"><polygon points="0,-0.6 0.6,0.5 -0.6,0.5" fill="#000"/></symbol><symbol id="iso-sym-brønn" viewBox="-1 -1 2 2"><circle cx="0" cy="0" r="0.6" fill="none" stroke="#0099cc" stroke-width="0.18mm"/><line x1="-0.6" y1="0" x2="0.6" y2="0" stroke="#0099cc" stroke-width="0.18mm" /><line x1="0" y1="-0.6" x2="0" y2="0.6" stroke="#0099cc" stroke-width="0.18mm" /></symbol><symbol id="iso-sym-bro" viewBox="-1 -1 2 2"><line x1="-0.6" y1="-0.3" x2="0.6" y2="-0.3" stroke="#000" stroke-width="0.2mm" /><line x1="-0.6" y1="0.3" x2="0.6" y2="0.3" stroke="#000" stroke-width="0.2mm" /></symbol><symbol id="iso-sym-peak" viewBox="-1 -1 2 2"><circle cx="0" cy="0" r="0.5" fill="#7f4f24" /></symbol></defs>
  <style>.isom-map { background: var(--bg, #fefae0); font-family: ui-sans-serif, system-ui, sans-serif; } .isom-map [data-layer] path { vector-effect: non-scaling-stroke; } .isom-map [data-iso="401"] { fill: var(--iso-401-fill, #ffd966) } .isom-map [data-iso="403"] { fill: url(#iso-pat-halv-aapen) } .isom-map [data-iso="404"] { fill: url(#iso-pat-hugst) } .isom-map [data-iso="405"] { fill: var(--iso-405-fill, #ffffff) } .isom-map [data-iso="406"] { fill: var(--iso-406-fill, #cae8a3) } .isom-map [data-iso="407"] { fill: var(--iso-407-fill, #94d473) } .isom-map [data-iso="408"] { fill: var(--iso-408-fill, #5cb348) } .isom-map [data-iso="409"] { fill: url(#iso-pat-kratt) } .isom-map [data-iso="301"] { fill: var(--iso-301-fill, #a8d4e8); stroke: var(--iso-301-stroke, #0099cc); stroke-width: 0.18mm } .isom-map [data-iso="302"] { fill: var(--iso-302-fill, #a8d4e8); stroke: var(--iso-302-stroke, #0099cc); stroke-width: 0.18mm } .isom-map [data-iso="304"] { stroke: var(--iso-304-stroke, #0099cc); stroke-width: 0.25mm; stroke-linecap: round; fill: none } .isom-map [data-iso="305"] { stroke: var(--iso-305-stroke, #0099cc); stroke-width: 0.18mm; stroke-dasharray: 1.5mm 0.6mm; fill: none } .isom-map [data-iso="308"] { fill: url(#iso-pat-myr) } .isom-map [data-iso="309"] { fill: url(#iso-pat-myr-utrygg) } .isom-map [data-iso="310"] { fill: none } .isom-map [data-iso="201"] { stroke: var(--iso-201-stroke, #000); stroke-width: 0.35mm; stroke-linecap: round; fill: none } .isom-map [data-iso="203"] { stroke: var(--iso-203-stroke, #000); stroke-width: 0.5mm; stroke-linecap: round; fill: none } .isom-map [data-iso="210"] { fill: url(#iso-pat-blokkmark) } .isom-map [data-iso="212"] { fill: none } .isom-map [data-iso="213"] { fill: none } .isom-map [data-iso="101"] { stroke: var(--iso-101-stroke, #dc2626); stroke-width: 0.1mm; fill: none } .isom-map [data-iso="102"] { stroke: var(--iso-102-stroke, #dc2626); stroke-width: 0.16mm; fill: none } .isom-map [data-iso="103"] { stroke: var(--iso-103-stroke, #dc2626); stroke-width: 0.1mm; stroke-dasharray: 1.5mm 1mm; fill: none } .isom-map [data-iso="104"] { stroke: var(--iso-104-stroke, #dc2626); stroke-width: 0.1mm; stroke-linecap: round; fill: none } .isom-map [data-iso="501"] { stroke: var(--iso-501-stroke, #d97a5a); stroke-width: 0.6mm; fill: none } .isom-map [data-iso="502"] { stroke: var(--iso-502-stroke, #d97a5a); stroke-width: 0.5mm; fill: none } .isom-map [data-iso="503"] { stroke: var(--iso-503-stroke, #d4b08a); stroke-width: 0.35mm; fill: none } .isom-map [data-iso="504"] { stroke: var(--iso-504-stroke, #000); stroke-width: 0.25mm; stroke-dasharray: 2mm 0.8mm; fill: none } .isom-map [data-iso="505"] { stroke: var(--iso-505-stroke, #000); stroke-width: 0.18mm; stroke-dasharray: 1.5mm 0.6mm; fill: none } .isom-map [data-iso="506"] { stroke: var(--iso-506-stroke, #000); stroke-width: 0.14mm; stroke-dasharray: 0.8mm 0.6mm; fill: none } .isom-map [data-iso="507"] { stroke: var(--iso-507-stroke, #000); stroke-width: 0.14mm; stroke-dasharray: 0.4mm 0.8mm; fill: none } .isom-map [data-iso="509"] { fill: none } .isom-map [data-iso="521"] { fill: var(--iso-521-fill, #7a5a3a); stroke: var(--iso-521-stroke, #000); stroke-width: 0.15mm } .isom-map [data-iso="522"] { fill: url(#iso-pat-bebyggelse) } .isom-map [data-iso="525"] { stroke: var(--iso-525-stroke, #000); stroke-width: 0.15mm; stroke-dasharray: 1mm 0.5mm; fill: none } .isom-map [data-iso="528"] { stroke: var(--iso-528-stroke, #000); stroke-width: 0.18mm; fill: none } .isom-map [data-label] { font-size: 2.5mm; fill: #2a2a2a; paint-order: stroke; stroke: #fff; stroke-width: 0.5mm; stroke-linejoin: round; } .isom-map [data-label="peak"] { font-size: 2.8mm; fill: #7f4f24; font-weight: 600; } .isom-map [data-label="kontur-tall"] { font-size: 1.6mm; fill: #dc2626; font-style: italic; }</style>
  <g id="bakgrunn"><rect width="4917.15" height="5122.91" fill="#fefae0"/></g>
  <g data-layer="aapen" data-iso="401"></g>
  <g data-layer="aapen" data-iso="403"></g>
  <g data-layer="aker" data-iso="404"></g>
  <g data-layer="skog" data-iso="406"></g>
  <g data-layer="skog" data-iso="407"></g>
  <g data-layer="skog" data-iso="408"></g>
  <g data-layer="skog" data-iso="409"></g>
  <g data-layer="stein" data-iso="210"></g>
  <g data-layer="myr" data-iso="308"></g>
  <g data-layer="myr" data-iso="309"></g>
  <g data-layer="vann" data-iso="301"></g>
  <g data-layer="vann" data-iso="302"></g>
  <g data-layer="bekk" data-iso="304"></g>
  <g data-layer="bekk" data-iso="305"></g>
  <g data-layer="kontur" data-iso="101"></g>
  <g data-layer="kontur" data-iso="103"></g>
  <g data-layer="kontur" data-iso="104"></g>
  <g data-layer="kontur" data-iso="102"></g>
  <g data-layer="vei-stor" data-iso="501"></g>
  <g data-layer="vei-stor" data-iso="502"></g>
  <g data-layer="vei-liten" data-iso="503"></g>
  <g data-layer="vei-liten" data-iso="504"></g>
  <g data-layer="sti" data-iso="505"></g>
  <g data-layer="sti" data-iso="506"></g>
  <g data-layer="sti" data-iso="507"></g>
  <g data-layer="bygning" data-iso="521"></g>
  <g data-layer="bygning" data-iso="522"></g>
  <g data-layer="linje" data-iso="525"></g>
  <g data-layer="linje" data-iso="528"></g>
  <g data-layer="stupkant" data-iso="201"></g>
  <g data-layer="stupkant" data-iso="203"></g>
  <g data-layer="navn"></g>
  <g data-layer="kontur">
    <g data-iso="101"><path d="M4920,1925.41L4919.38,4157.29L4918.13,4796.04L4916.25,5116.66L4913.75,5119.16L3991.88,5122.29L1847.5,5122.91L314.38,5121.04L6.25,5119.16L3.75,5116.66L0.63,4157.29L0,1925.41L1.88,329.79L3.75,9.16L6.25,6.66L1847.5,2.91L3991.88,3.54L4913.75,6.66L4920,12.91L4920,969.16Z M2069.88,4600.41L2061.93,4612.48L2049.63,4616.2L2045.85,4614.56L2042.86,4609.44L2040.08,4596.06L2045.66,4586.9L2062.5,4582.51L2071.29,4586.12L2073.43,4592.91L2071.66,4596.66Z M3132.85,4539.71L3126.54,4550.63L3113.01,4552.8L3105.53,4546.65L3101.06,4531.51L3109.02,4521.3L3117.5,4520.58L3131.71,4527.76L3134.56,4532.91L3133.71,4536.31Z M4254.22,3660.41L4252.71,3674.26L4237.68,3674.26L4227.94,3665.41L4225.54,3652.43L4227.76,3647.15L4234.16,3645.99L4254.16,3652.91L4254.19,3656.66Z M504,3160.41L501.68,3169.48L497.33,3174.81L489.01,3176.7L482.54,3172.61L481.01,3160.41L484.46,3150.9L495.76,3149.56L505.37,3152.91L504.68,3156.66Z M4565.53,2720.41L4567.56,2729.53L4565.98,2732.77L4553.31,2737.34L4545.18,2735.13L4542.48,2725.41L4545.49,2711.41L4554.76,2710.4L4562.7,2712.91L4564.12,2716.66Z M4572.15,2600.48L4566.47,2613L4552.88,2617.77L4541.26,2615.32L4535.62,2605.41L4537.84,2591.71L4548.64,2583.1L4558.79,2584.73L4573.44,2592.91L4572.8,2596.7Z M4572.48,2476.79L4564.4,2486.88L4552.91,2492.31L4541.55,2491.66L4537.59,2485.41L4538.65,2470.72L4548.59,2458.66L4557.5,2458.46L4566.5,2463.49L4571.49,2467.93L4573.22,2474.85Z M4193.37,1355.66L4186.59,1361.39L4173.24,1366.21L4166.95,1362.85L4163.9,1350.76L4169.73,1339.16L4182.5,1335.01L4186.59,1335.84L4192.02,1341.31L4194.38,1354.28Z M3692.67,840.41L3694.58,853.29L3689.88,860.53L3677.5,867.3L3673.15,867.9L3666.41,864.05L3662.83,850.29L3669.5,836.73L3677.74,832.97L3690.65,832.91L3691.66,836.66Z M3376.37,660.41L3375.41,665.41L3370.22,671.66L3360.67,672.91L3354.98,669.16L3355.89,660.41L3362.39,650.75L3372.93,649.31L3377.8,652.91L3377.09,656.66Z M2258.6,540.41L2256.96,551.94L2250.36,553.52L2233.55,545.98L2228.8,540.45L2227.6,532.59L2233.55,526.54L2246.79,523.61L2253.24,526.06L2258.63,532.91L2258.62,536.66Z M2893.71,526.85L2906.36,543.39L2917.5,551.71L2943.3,553.85L2965.07,549.26L2980.72,527.52L2988.47,522.02L2992.82,521.81L3002.5,526.44L3010,534.46L3008.18,541.82L3001.47,550.69L2984.43,562.52L2977.6,575.62L2982.21,589.45L2990,596.51L3007.5,593.79L3027.5,571.42L3042.5,564.47L3062.5,565.03L3074.12,568.58L3082.25,576.23L3098.36,599.66L3107.37,607.66L3118.61,612.16L3133.61,611.03L3146.33,607.08L3172.5,581.81L3186.84,581.12L3195.91,588.23L3199.89,605.41L3194.45,614.89L3181.3,623.66L3172.59,633.31L3172.35,644.36L3176.57,652.49L3183.91,656.25L3193.3,656.25L3209.66,636.22L3222.76,628.5L3237.5,626.32L3252.5,629.08L3267.46,638.2L3282.15,659.85L3295.83,672.09L3330.73,682.1L3340.88,688.13L3347.18,695.87L3355.06,714.7L3363.24,723.04L3372.62,727.71L3387.5,725.82L3407.5,706.23L3417.5,699.7L3427.5,697.71L3442.5,701.69L3450.62,709.73L3466.24,741.26L3476.87,746.8L3503.5,753.41L3515.98,760.82L3536.73,793.67L3549.31,802.2L3580.73,813.96L3594.99,829.64L3612.25,855.79L3622.5,861.06L3647.38,863.41L3661.29,869.08L3666.43,876.02L3668.76,900.41L3673.73,909.59L3680.29,915.49L3688.34,918.28L3702.5,917.62L3712.5,911.55L3732.5,891.22L3742.5,889.16L3754.13,891.38L3762.33,905.41L3763.38,915.41L3756.63,930.41L3743.16,945.41L3738.16,955.41L3740.3,965.41L3745.78,974.48L3753.33,976.18L3767.01,973.02L3782.92,953.25L3789.79,948.7L3810.93,948.33L3822.48,954.86L3828.43,964.85L3830,984.66L3825.29,997.49L3809.92,1011.18L3807.42,1016L3806.81,1021.15L3810.29,1030.67L3817.5,1034.3L3826.87,1032.33L3833.7,1025.66L3841.15,1013.07L3849.35,1008.1L3867.5,1007.79L3882.5,1013.81L3892.94,1030.96L3895.87,1053.32L3890.58,1064.59L3875.57,1076.28L3872.03,1085.41L3873.93,1092.01L3886.76,1093.06L3893.34,1086.58L3900.42,1073.3L3909.17,1068.72L3927.5,1068.81L3942.5,1073.44L3953.24,1082.62L3959.93,1105.41L3955.34,1119.16L3939.08,1145.75L3939.23,1154.94L3943.54,1156.3L3951.58,1153.22L3964.38,1134.22L3973.39,1131.44L3987.5,1131.65L4002.5,1135.69L4010.54,1140.68L4017.9,1151.44L4020.87,1165.41L4019.35,1171.66L3997.94,1206.17L3996.49,1212.7L3998.13,1217.49L4007.69,1221.42L4012.56,1220.14L4032.5,1202.89L4047.5,1197.94L4062.5,1200.06L4075.54,1208.92L4079.73,1220.41L4078.74,1231.66L4061.21,1257.91L4054.21,1274.16L4055.19,1280.41L4063.08,1289.16L4070.73,1292.91L4079.14,1291.11L4111.88,1266.43L4122.5,1266.05L4133.71,1270.8L4137.99,1285.41L4136.78,1291L4108.96,1326.32L4111.2,1345.41L4123.1,1355.41L4146.6,1365.41L4162.65,1375.41L4165.49,1380.41L4166.24,1402.3L4171.37,1414.57L4213.36,1444.13L4230.5,1485.26L4237.03,1492.76L4263.98,1511.31L4270.19,1519.05L4281.1,1553.33L4286.14,1562.63L4293.49,1568.33L4314.35,1576.38L4324.3,1585.41L4330.12,1595.49L4328.69,1610.72L4304.61,1635.44L4300.4,1645.41L4300.18,1655.41L4303.6,1665.41L4310.64,1673.21L4336.12,1685.56L4343.64,1693.21L4352.3,1726.49L4358.95,1739.4L4372.65,1750.9L4386.82,1758.71L4395.7,1767.94L4398.97,1787.91L4396.99,1806.61L4393.35,1814.02L4372.01,1834.84L4370.43,1839.93L4372.11,1849.5L4382.93,1857.69L4395.18,1857.69L4401.78,1853.1L4415.36,1833.26L4427.47,1829.3L4439.85,1832.85L4448.4,1844.4L4450,1849.98L4448.57,1855.32L4430.7,1871.01L4419.87,1885.41L4416.41,1895.41L4416.12,1905.41L4420.32,1920.41L4426.84,1930.41L4458.48,1955.41L4462.74,1965.41L4464.17,1985.41L4459.93,1995.41L4437.8,2019.04L4430,2033.11L4442.5,2046.69L4457.5,2051.72L4469.58,2046.15L4477.07,2031.31L4488.44,2022.51L4493.1,2022.51L4503.57,2027.71L4507.79,2035.8L4499.14,2050.41L4479.27,2070.41L4474.94,2085.41L4476.65,2105.41L4479.82,2114.51L4488.94,2125.86L4513.89,2143.47L4520.34,2160.41L4516.41,2178.02L4490.1,2201.5L4486.17,2208.03L4484.38,2220.41L4487.56,2231.66L4519.18,2266.66L4527.51,2280.41L4527.93,2285.41L4526.83,2300.41L4523.02,2310.41L4500.17,2330.41L4491.7,2345.41L4497.57,2357.96L4527.97,2389.36L4531.64,2403.01L4529.24,2439.53L4522.5,2448.22L4504.46,2460.82L4500.77,2465.66L4498.69,2475.45L4507.55,2489.47L4526.26,2497.91L4532.4,2507.29L4532.08,2574.74L4505.39,2586.22L4499.28,2595.99L4502.97,2609.88L4519.51,2620.14L4528.79,2632.83L4531.78,2654.75L4531.58,2680.41L4528.05,2690.41L4502.5,2710.41L4497.8,2715.41L4493.65,2725.41L4497.2,2735.41L4522.74,2760.41L4527.38,2770.41L4529.43,2785.41L4527.35,2800.41L4522.85,2810.41L4492.27,2835.41L4486.6,2850.41L4487.42,2860.41L4492.01,2870.41L4514.5,2890.41L4520.95,2900.41L4521.01,2920.41L4511.38,2935.41L4485.24,2955.41L4478.94,2970.41L4477.55,2985.41L4479.84,2995.29L4485.3,3005.01L4511.53,3028.11L4511.87,3040.41L4505.15,3052.89L4496.82,3057.01L4487.39,3057.87L4473.39,3053.04L4464.47,3036.28L4458.93,3030.42L4448.87,3027.93L4441.33,3032.92L4439.74,3040.41L4442.04,3050.41L4457.52,3065.41L4465.62,3079.16L4465.22,3106.66L4460.52,3120.41L4453.08,3129.81L4425.12,3149.32L4419.88,3170.41L4421.36,3180.41L4426.01,3190.41L4451.38,3215.41L4453.26,3220.41L4452.39,3235.3L4416.76,3257.3L4410.29,3266.51L4398.21,3303.71L4392.33,3313.18L4363.5,3335.41L4357.32,3345.41L4353.63,3365.41L4360,3379.16L4380.56,3406.67L4382.63,3414.2L4381.38,3420.49L4372.17,3428.76L4362.5,3429.75L4350.24,3422.6L4342.21,3411.29L4331.49,3403.25L4322.5,3402.9L4308.28,3409.12L4305.89,3420.41L4308.14,3430.41L4328.77,3450.41L4334.75,3460.41L4333.74,3485.41L4324.42,3496.04L4305.75,3507.51L4290.75,3521.68L4273.75,3563.58L4237.48,3591.11L4231.92,3598.98L4225.46,3626.2L4219.7,3637.66L4205.81,3646.15L4186.89,3652.78L4175.08,3665.41L4172.6,3675.41L4174.68,3685.41L4181.29,3695.41L4197.04,3710.41L4201.81,3720.41L4201.3,3729.99L4197.61,3737.91L4187.01,3745.99L4172.5,3747.38L4142.5,3724.66L4133.02,3722.74L4125.62,3725.36L4120.45,3735.91L4123,3745.41L4143.01,3770.41L4146.76,3780.41L4145.64,3790.41L4138.21,3805.41L4129.78,3812.85L4113.22,3818.91L4098.38,3827.79L4090.39,3839.56L4079.22,3866.66L4072.27,3874.16L4043.25,3891.66L4036.06,3899.16L4017.66,3936.99L3977.21,3957.89L3971.68,3965.36L3957.65,3997.95L3949.79,4004.94L3925,4017.45L3910.71,4028.4L3893.93,4061.81L3856.25,4081.65L3848.75,4088.91L3831.25,4117.96L3823.75,4125.13L3785.39,4144.24L3777.03,4156.94L3770.38,4175L3759.35,4187.71L3726.11,4200.33L3711.95,4209.31L3703.32,4234.6L3696.04,4244.39L3686.94,4250.44L3676.44,4252.3L3666.13,4249.06L3637.3,4226.02L3622.5,4225.45L3613.75,4231.22L3610,4241.04L3611.57,4253.29L3619.42,4263.05L3630.56,4271.2L3635.98,4280.41L3635.86,4293.74L3630.13,4302.13L3622.5,4305.33L3612.5,4305.37L3582.5,4280.34L3572.5,4277.48L3557.5,4279.16L3543.6,4288.52L3533.66,4311.28L3523.11,4322.48L3488.75,4335.31L3477.5,4342.85L3469.41,4352.29L3461.4,4368.96L3453.82,4378.68L3420.79,4388.87L3402.93,4399.74L3388.2,4425.84L3379.97,4435.48L3371.74,4438.27L3357.5,4437.77L3347.5,4431.74L3327.5,4410.72L3317.5,4407.5L3304.52,4408.71L3296.84,4414.15L3275.86,4445.89L3258,4455.78L3237.56,4459.9L3224.98,4465.19L3218.6,4471.85L3205.3,4494.16L3192.16,4503.83L3177.5,4507.25L3162.5,4504.31L3152.5,4498.59L3132.5,4478.4L3122.5,4475.64L3113.26,4479.2L3107.08,4484.54L3102.71,4495.83L3101.44,4509.72L3097.63,4516.27L3089.79,4520.19L3056.25,4522.58L3037.5,4528.28L3027.5,4537.55L3012.5,4558.86L3002.5,4566.47L2987.5,4568.23L2977.5,4566.34L2967.5,4559.7L2947.5,4538.09L2932.5,4534.16L2917.5,4542.71L2897.36,4568.89L2889.86,4572.76L2843.21,4584.89L2831.5,4595.86L2821.66,4613.52L2815.15,4619.1L2807.11,4621.52L2792.76,4618.27L2775.65,4597.37L2765.13,4590.02L2742.5,4585.84L2722.83,4590.66L2700.54,4618.74L2691.91,4625.58L2682.5,4628.71L2671.59,4626.75L2640.32,4599.53L2632.82,4594.66L2619.53,4591.19L2602.5,4595.92L2572.5,4626.26L2557.5,4632.5L2537.5,4628.62L2527.5,4620.72L2507.5,4597.39L2492.5,4592.81L2477.5,4597.05L2447.5,4628.3L2432.5,4632.86L2422.5,4632.49L2412.5,4628.94L2382.5,4597.58L2372.5,4592.84L2362.5,4591.5L2347.5,4598.07L2322.5,4624.81L2307.5,4630.44L2297.5,4630.02L2291.95,4627.29L2257.1,4594.15L2234.94,4588.83L2221,4590.87L2193.55,4618.51L2182.5,4624.54L2177.5,4624.64L2168.68,4622.54L2161.42,4617.37L2147.66,4596.04L2136.37,4586.65L2123.56,4583.1L2089.55,4579.38L2080.18,4575.83L2074.47,4569.3L2066.52,4549.95L2052.5,4541.1L2047.5,4540.98L2037.5,4545.51L2012.5,4568.4L2002.5,4572.89L1982.5,4571.49L1972.3,4567L1945.09,4533.77L1927.3,4526.21L1905.18,4528.51L1898.79,4532.84L1879.26,4556L1871.35,4559.09L1861.43,4558.06L1850.37,4552.13L1836.43,4529.64L1823.57,4517.18L1788.75,4508.76L1777.5,4501.96L1769.15,4492.9L1757.86,4473.1L1746.8,4465.85L1732.5,4463.47L1717.5,4465.44L1707.5,4472.22L1687.5,4493.9L1677.5,4496.02L1668.7,4491.89L1659.42,4476.05L1659.22,4465.41L1664.04,4455.41L1682.79,4435.5L1683.55,4430.67L1681.61,4425.92L1672.23,4419.17L1662.5,4422.73L1647.5,4437.34L1632.5,4445.09L1617.5,4446.3L1602.5,4442.37L1592.5,4436.07L1577.5,4413.87L1563.75,4400.66L1536.45,4391.2L1523.69,4383.89L1512.79,4370.26L1503.11,4352.04L1487.22,4342.12L1477.5,4340.95L1471.53,4342.77L1431.1,4372.91L1415.76,4366.4L1407.24,4356.5L1406.84,4340.41L1412.68,4330.41L1432.98,4310.41L1434.08,4305.41L1431.22,4296.43L1423.72,4291.52L1412.87,4291.57L1402.5,4299.21L1392.5,4311.07L1382.5,4317.09L1366.91,4317.76L1355.54,4315.24L1350.07,4311.58L1328.99,4279.16L1320.33,4271.66L1285.95,4254.16L1277.09,4246.66L1258.59,4219.27L1250.14,4212L1217.73,4195.42L1209.24,4187.75L1191.25,4158.9L1183.75,4152.04L1144.35,4135.5L1125.7,4099.16L1117.43,4091.66L1083.7,4074.16L1075.82,4066.66L1058.19,4029.53L1017.7,4012.47L1007.59,3997.91L1002.94,3979.74L997.52,3968.86L989.97,3963.56L959.59,3952.14L949.21,3937.91L943.51,3919.52L934.56,3904.01L897.07,3882.53L887.44,3870.44L881.19,3850.92L871.44,3836.24L837.76,3817.87L829.29,3806.24L817.75,3779.16L811.19,3771.66L774.95,3748.17L758.84,3706.9L747.13,3696.8L732.63,3691.09L723.3,3684.31L715.35,3674.96L711.34,3664.67L712.34,3652.68L715.95,3645.18L729.39,3627.17L737.4,3611.54L737.64,3605.41L732.31,3596.66L723.74,3592.9L713.49,3594.14L706.19,3600.39L696.16,3616.08L690.6,3619.69L677.5,3620.54L664.37,3615.59L659.81,3605.41L659.9,3595.41L686.79,3563.76L688.8,3548.76L686.35,3536.8L676.3,3524.2L649.13,3508.61L640.25,3494.16L629.13,3462L615,3448.13L597.11,3436.92L587.65,3426.09L584.88,3400.41L590.48,3390.41L611.53,3370.41L615.57,3355.99L612.56,3346.16L602.5,3339.24L592.5,3337.49L582.5,3344.08L567.5,3359.93L557.5,3364.78L548.52,3364.36L538.91,3354.41L542.66,3340.41L568.61,3311.66L569.21,3290.52L563.63,3275.31L535.96,3254.13L526.65,3244.34L522.71,3235.09L520.79,3220.41L526.48,3202.44L553.58,3176.78L553.39,3160.41L545.02,3150.41L520.52,3133.97L515.27,3126.09L506.12,3079.27L497.53,3070.22L474.79,3055.41L467.17,3045.41L466.3,3032.24L468.2,3026.51L498.37,2998.99L502.79,2990.18L504.15,2980.41L500.39,2960.41L492.38,2950.41L467.38,2930.41L462.59,2915.41L463.38,2905.41L467.72,2895.41L496.4,2870.41L500.75,2860.41L501.9,2850.41L498.42,2835.31L467.01,2804.41L464.02,2794.74L465.02,2783.19L474.35,2765.97L491.59,2754.3L499.43,2745.41L505.6,2725.41L505.21,2715.41L500.01,2700.41L492.11,2690.95L474.93,2677.55L471.56,2672.55L469.68,2661.48L477.01,2650.59L502.72,2632.91L509.26,2622.91L521.62,2582.91L527.44,2572.91L534.62,2565.41L549.99,2555.41L558.46,2545.41L561.06,2535.41L559.79,2520.41L553.62,2510.41L533.75,2489.9L530.99,2478.69L533.87,2468.35L547.31,2455.92L566.75,2448.91L573.28,2443.12L587.95,2399.16L600.73,2385.41L627.4,2367.64L637.61,2337.81L645.68,2322.75L681.36,2298.82L688.14,2286.4L691.83,2267.91L702.19,2251.66L731.63,2235.41L743.35,2225.41L748.31,2210.41L747.14,2200.41L742.92,2191.02L730.97,2175.45L731.25,2167.96L737.5,2163.07L747.5,2159.66L777.5,2172.71L787.25,2171.54L796.02,2165.36L802.85,2155.4L804.87,2145.41L802.6,2135.41L791.96,2115.41L792.65,2105.41L798.04,2096.48L803.37,2091.81L809.26,2091.24L827.5,2099.56L842.5,2103.11L851.19,2101.78L858.12,2097.07L862.19,2089.86L863.03,2080.41L853.33,2050.41L859.87,2033.16L870.26,2029.26L903.1,2036.43L916.03,2035.17L922.73,2020.41L922.66,2010.41L917.2,1990.41L918.32,1980.41L923.59,1970.4L937.72,1967.89L966.96,1970.41L978.97,1965.41L984.28,1950.41L980.3,1925.41L984.69,1910.03L996.97,1906.43L1023.53,1907.38L1036.16,1903.05L1040.27,1898.99L1044.65,1886.43L1043.63,1859.83L1047.15,1847.08L1062.5,1840.56L1087.02,1840.09L1097.66,1835.96L1101.45,1825.92L1102.59,1799.59L1107.02,1784.67L1122.5,1774.48L1142.5,1771.37L1147.45,1767.73L1168.1,1722.68L1175.6,1712.99L1203.2,1694.83L1210.03,1687.33L1224.09,1658.21L1231.59,1648.36L1270.86,1610.02L1288.27,1581.79L1317.42,1554.72L1345.46,1511.59L1366.89,1492.61L1401.39,1442.84L1429.94,1412.97L1452.76,1357.28L1457.5,1353.4L1472.25,1349.12L1481.67,1340.36L1485.36,1326.65L1479.79,1299.16L1481.46,1280.41L1489.97,1270.41L1512.47,1254.02L1522.58,1237.06L1528.78,1217.45L1536.06,1203.99L1566.78,1177.37L1593.84,1129.31L1625.18,1103.95L1637.28,1070.03L1646.24,1053.99L1674.89,1039.51L1683.15,1029.82L1685.94,1014.93L1668.57,980.62L1668.57,967.26L1682.5,956.46L1688.75,955.53L1723.06,967.62L1733.34,965.31L1735.56,950.4L1724.25,930.41L1721.72,920.41L1724.24,900.41L1734.33,891.51L1763.11,882.37L1777.5,884.54L1785.32,889.97L1778.45,874.4L1777.57,866.74L1780.01,847.91L1785.56,829.73L1791.17,825.19L1823.75,810.76L1831.25,803.08L1847.5,771.53L1857.5,759.64L1891.16,748.44L1900.91,734.83L1909.91,710.96L1917.5,702.31L1932.5,695.87L1942.5,695.81L1952.5,700.59L1972.5,718.25L1982.5,720.68L1990.46,719.78L1997.4,713.28L1999.05,700.41L1994.39,690.41L1978.98,675.41L1974.52,665.41L1977.66,651.71L1984.32,644.75L1992.8,641.6L2002.5,642.94L2012.5,649.04L2032.5,667.95L2042.5,670.33L2052.5,668.74L2066.88,659.88L2086.25,626.18L2117.68,616.37L2136.32,605.99L2160.2,574.39L2166.22,569.52L2182.5,566.47L2196.55,568.51L2208.78,576.22L2226.35,597.06L2242.5,598.06L2252.5,589.5L2268.75,563.17L2285,554.91L2303.75,553.85L2322.5,549.37L2332.24,540.72L2346.47,518.86L2356.64,510.76L2361.98,509.32L2372.41,509.06L2382.5,512.28L2392.5,520.01L2412.5,541.84L2427.5,545.11L2437.5,543.43L2447.5,538.27L2472.5,508.43L2477.5,505.51L2492.5,502.97L2506.96,504.4L2514.29,507.48L2534.97,533.35L2543.38,538.55L2552.65,540.71L2567.5,537.15L2592.5,508.56L2612.5,501.64L2627.39,502.3L2636.83,505.92L2649.14,515.96L2663.26,535.87L2677.5,541.04L2694.77,538.23L2720.34,509.43L2737.5,503.49L2747.48,503.93L2762.32,509.29L2772.28,517.95L2787.45,537.59L2802.5,545.42L2817.5,544.56L2827.5,540.02L2847.5,516.72L2857.5,510.08L2875.23,509.69L2883.94,512.91L2888.83,519.88Z M2770.36,902.05L2791.79,916.48L2807.5,920.3L2827.5,918.45L2857.5,906.22L2868.75,906.48L2905,926.94L2955,943.78L2983.75,963.46L2997.5,969.75L3016.25,967.8L3043.75,958.69L3057.5,958.29L3072.5,967L3094.95,988.4L3132.45,1002.48L3150.82,1011.99L3167.5,1029.17L3177.5,1036.22L3197.5,1040.33L3230.76,1032.01L3239.3,1032.92L3249.51,1039.2L3268.75,1063.54L3276.25,1068.02L3303.75,1074.11L3317.5,1079.8L3348.94,1111.33L3387.09,1132.06L3423.57,1166.62L3471.08,1196.89L3487.5,1218.43L3497.5,1227.45L3527.24,1236.24L3535.92,1242.03L3545.61,1255.57L3550.57,1270.09L3562.56,1282.18L3576.26,1286.76L3612.31,1289.51L3616.39,1300.07L3621.21,1332.6L3626.04,1340.21L3636.84,1344.02L3669.57,1346.82L3676.9,1350.13L3680.48,1359.95L3683.24,1392.95L3686.9,1401.38L3702.5,1410.6L3725.86,1412.97L3734.76,1416.67L3738.62,1425.41L3740.37,1450.41L3744.75,1465.41L3755.19,1475.04L3782.73,1490.16L3789.31,1497.66L3801.29,1527.54L3808.24,1537.79L3838.32,1567.91L3852.58,1587.91L3862.45,1606.66L3888.37,1631.69L3909.24,1668.03L3943.02,1705.99L3953.09,1726.25L3962.65,1759.83L3969.05,1768.46L3986.64,1779.5L3993.9,1788.23L3994.06,1799.63L3988.17,1834.16L3991.99,1850.41L4022.86,1885.41L4042.97,1934.16L4061.91,1955.41L4071.19,1970.41L4072.95,1985.41L4063.09,2015.41L4063.09,2031.45L4089.84,2075.31L4102.99,2120.41L4126.25,2150.41L4130.39,2160.41L4129.77,2171.66L4116.29,2206.66L4113.89,2220.41L4121.17,2239.16L4139.13,2267.91L4144.48,2287.91L4142.48,2314.16L4131.35,2345.41L4133.45,2355.41L4149.77,2380.41L4152.77,2392.91L4156.18,2442.91L4161.28,2475.41L4161.93,2570.41L4166.96,2591.66L4157.56,2641.66L4153.33,2684.16L4139.07,2734.16L4146.97,2767.91L4146.67,2800.41L4139.84,2815.41L4124.78,2835.41L4118.93,2850.41L4121.18,2870.41L4134.21,2900.41L4134.62,2914.49L4129.66,2926.72L4110.55,2951.99L4096.1,3003.81L4075.45,3043.63L4073.91,3064.35L4078.19,3085.59L4077.68,3105.41L4069.86,3119.16L4047.35,3148.34L4026.98,3199.84L4002.98,3226.42L4001.46,3239.33L4008.23,3274.16L4007.79,3285.41L4005.01,3291.36L3975.92,3324.35L3964.06,3344.94L3955.49,3365.77L3923.83,3402.91L3901,3442.91L3885.92,3460.41L3868.02,3475.41L3862,3491.66L3859.47,3517.91L3853.38,3531.26L3828.39,3540.07L3818.68,3547.12L3814.09,3559.45L3816.06,3586.42L3812.85,3603.03L3802.98,3610.83L3776.58,3624.04L3764.5,3642.16L3755.57,3664.94L3748.73,3673.59L3721.69,3691.66L3714.49,3699.16L3694.82,3736.06L3656.25,3759.64L3648.75,3767.07L3631.25,3794.25L3623.75,3801.18L3596.75,3814.37L3585.51,3822.48L3566.75,3856.31L3551.05,3865.77L3522.96,3870.98L3507.85,3880.09L3503.56,3887.91L3497.26,3911.59L3493.11,3916.83L3456.25,3914.7L3442.5,3916.83L3428.79,3928.31L3412.57,3956.6L3379.16,3967.62L3357.99,3978.72L3324.42,4009.23L3287.85,4028.31L3255.7,4058.98L3210.89,4072.44L3198.04,4081.67L3187.05,4096.38L3177.5,4101.53L3163.75,4102.17L3128.75,4096.08L3117.5,4098.57L3079.32,4127.76L3027.45,4149.72L2994.18,4175.57L2948.75,4163.6L2937.5,4162.63L2923.8,4168.27L2893.97,4187.92L2830.02,4206.63L2807.5,4220.5L2792.5,4220.93L2771.54,4214.51L2748.04,4212.91L2728.66,4218.3L2697.17,4236.36L2677.5,4242.66L2663.75,4239.37L2636.25,4226.81L2622.5,4223.04L2603.75,4227.83L2568.75,4247.35L2552.5,4250.44L2537.5,4247.85L2507.5,4230.97L2492.59,4227.72L2478.42,4230.51L2447.59,4248.27L2432.5,4251.57L2411.25,4247.82L2376.25,4229.34L2362.5,4225.6L2343.75,4230.7L2316.25,4243.3L2302.5,4246.13L2283.75,4239.4L2248.75,4218.82L2237.5,4216.37L2223.75,4219.34L2188.75,4233.16L2177.5,4233.92L2167.24,4229.75L2141.63,4210.17L2095,4199.23L2055,4177.5L2035,4176.52L2002.5,4185.51L1982.5,4182.51L1972.24,4177.21L1946.88,4156.66L1888.53,4136.02L1858.46,4111.92L1843.35,4112.52L1816.25,4118.92L1797.5,4117.81L1787.5,4111.5L1770,4094.31L1708.41,4060L1677.2,4031.2L1645,4027.87L1628.75,4020.39L1612.5,3996.08L1602.5,3988.25L1587.5,3988.28L1567.5,3992.04L1557.5,3991.13L1548.19,3987.01L1536.08,3974.87L1521.99,3955.41L1473.76,3927.5L1452.3,3902.79L1415.34,3878.33L1370.7,3831.94L1343.99,3814.16L1315.12,3779.16L1274.61,3746.66L1255.5,3719.16L1224.31,3693.69L1184.37,3642.53L1148.75,3609.23L1131.74,3581.33L1097.38,3546.82L1079.07,3507.12L1067.16,3496.53L1053.2,3488.33L1044.51,3478.32L1041.72,3465.41L1048.39,3435.41L1045.72,3420.41L1037.66,3410.41L1017.37,3394.16L1012.42,3386.66L996.57,3340.41L971.17,3313.21L945.94,3256.53L927.49,3236.32L921.47,3225.41L922.48,3206.66L932.17,3167.5L925.81,3154.6L910.26,3136.46L900.22,3120.41L889.77,3072.88L871.8,3037.9L870.42,3025.41L874.82,3014.16L878.73,2987.91L878.07,2965.41L871.78,2950.41L854.43,2925.41L850.95,2915.41L853.09,2900.41L870.15,2870.41L873.44,2855.41L870.29,2834.16L852.02,2799.16L848.62,2785.41L854.15,2769.69L872.24,2743L875.7,2730.17L875.28,2714.16L862.51,2679.16L861.04,2660.41L877.19,2632.91L892.45,2581.66L914.73,2537.91L916.39,2517.91L909.69,2485.41L912.03,2474.16L938.39,2437.91L962.47,2387.91L985.94,2356.66L991.22,2344.16L999.54,2302.91L1004.22,2292.91L1024.13,2274.16L1028.5,2266.66L1035.43,2231.66L1040.06,2220.41L1066.34,2193.53L1088.74,2156.21L1123.65,2117.53L1148.73,2078.22L1191.25,2030.12L1208.11,2002.78L1235.16,1974.98L1260.96,1930.53L1284.71,1908.36L1291.39,1898.36L1307.41,1861.78L1313.83,1852.53L1336.22,1834.16L1342.12,1826.66L1357.83,1792.02L1364.81,1781.6L1394.44,1754.52L1422.99,1710.56L1445.3,1689.57L1468.75,1654.81L1511.25,1609.42L1528.75,1582.4L1571.25,1536.74L1588.64,1510.48L1629.88,1467.8L1647.78,1440.44L1675.63,1414.48L1698.54,1379.16L1712.15,1365.41L1737.87,1345.41L1745.43,1335.41L1759.99,1306.17L1772.75,1294.63L1787.24,1287.85L1799.92,1278.32L1817.16,1247.91L1827.69,1233.92L1861.64,1217.44L1871.09,1206.17L1886.96,1179.49L1894.63,1172.63L1923.37,1158.79L1931.12,1152.78L1948.75,1129.88L1956.25,1123.45L1996.48,1101.51L2028.24,1068.51L2064.45,1048.25L2098.37,1018.35L2108.37,1012.07L2150.7,993.01L2167.5,975.01L2177.5,968.12L2188.75,966.21L2223.49,973.87L2239.9,974.2L2277.5,945.59L2331.42,928.22L2362.84,907.07L2376.31,907.14L2417.5,919.81L2432.5,919.11L2447.5,914.13L2477.5,892.78L2492.5,888.9L2508.75,891.15L2543.75,908.19L2557.5,910.82L2572.5,905L2592.5,891.62L2612.5,885.53L2628.75,887.2L2677.5,911.41L2696.25,907.93L2732.86,891.47L2758.57,892.91L2764.47,897.48Z M2786.61,1279.22L2795.97,1283.42L2818.91,1288.04L2847.5,1287.61L2873.75,1290.6L2915,1308.56L2945,1318.12L2997.5,1346.93L3035,1351.05L3052.45,1355.38L3074.79,1370.12L3134.15,1398.18L3175,1429.53L3211.61,1451.4L3237.79,1475.1L3277.78,1499.16L3308.81,1531L3345,1551.96L3384.23,1594.16L3410.92,1611.66L3443.13,1654.16L3465.87,1671.66L3496.87,1716.95L3531.3,1753.22L3553.61,1790.52L3573.2,1811.93L3605.05,1861.08L3634.75,1899.6L3648.52,1930.26L3672.74,1969.75L3689.35,2035.73L3706.21,2064.2L3722.86,2106.98L3750.98,2160.41L3750.49,2209.16L3757.52,2235.41L3773.08,2276.66L3786.43,2337.91L3789.93,2362.99L3791.28,2410.73L3803.88,2466.74L3803.01,2495.41L3795.08,2540.41L3804.55,2577.91L3805.46,2601.66L3793.83,2660.41L3794.66,2690.41L3792.14,2727.91L3778.29,2796.66L3761.2,2849.16L3756.9,2904.91L3748.07,2932.41L3729.62,2970.66L3714.84,3017.41L3699.67,3048.65L3686.11,3106.76L3663.14,3142.4L3634.19,3195.03L3607.97,3230.79L3592.15,3262.61L3568.35,3291.48L3550.33,3332.97L3543.75,3342.97L3511.35,3378.33L3492.26,3414.16L3471.5,3432.46L3425.18,3487.48L3397.3,3509.77L3363.84,3546.36L3328.75,3569.57L3302.5,3599.68L3259.79,3617.06L3231.25,3645.59L3215,3654.16L3183.38,3665.89L3151.66,3692.87L3114.57,3711.84L3074.89,3740.62L3035,3758.81L2993.75,3781.76L2926.25,3795.41L2882.06,3818.38L2833.26,3834.71L2807.77,3847.45L2791.25,3850.09L2742.5,3847.42L2682.97,3872.35L2622.5,3867.89L2585,3876.84L2557.5,3880.44L2437.5,3882.72L2362.5,3874.57L2297.5,3876.62L2237.5,3854.26L2188.75,3860.12L2177.5,3859.33L2135,3839.42L2085,3824.55L2053.75,3811.64L2012.5,3804.81L1985.49,3797.44L1939.24,3771.02L1903.37,3755.23L1871.03,3733.35L1810,3711.74L1781.23,3690.43L1734.92,3668.88L1702.02,3640.56L1656.43,3608.78L1624.29,3577.24L1596.25,3556.56L1571.25,3528.6L1528.75,3491.67L1511.35,3468.62L1469.45,3427.41L1449.51,3398.2L1415.74,3361.59L1386.49,3314.36L1364.7,3290.61L1357.76,3274.16L1352.76,3247.91L1346.99,3231.56L1332.53,3212.52L1311.23,3161.56L1279.66,3107.91L1270.49,3077.91L1253.38,3036.66L1245.2,2969.16L1224.17,2920.41L1227.87,2875.41L1227.41,2845.41L1214.66,2792.91L1213.75,2780.41L1222.29,2736.66L1217.64,2660.41L1231.84,2615.41L1237.53,2589.16L1235.5,2540.41L1258.66,2486.56L1273.04,2442.49L1286.94,2415.31L1297.59,2361.66L1307.15,2337.91L1324.95,2307.91L1338.33,2277.91L1372.07,2226.25L1393.57,2181.27L1411.7,2155.88L1434.6,2103.48L1461.02,2067.54L1482.95,2029L1505.28,2002.93L1528.75,1967.62L1563.75,1926.35L1595.3,1882.7L1619.94,1856.88L1653.15,1812.53L1678.53,1786.73L1699.34,1757.91L1746.86,1708.65L1767.27,1682.11L1797.57,1654.98L1834.37,1612.63L1865.79,1587.53L1887.39,1562.35L1931.25,1529.97L1958.49,1502.58L1993.95,1477.56L2027.24,1447.82L2073.35,1418L2098.18,1397.14L2148.21,1370.26L2177.5,1348.79L2196.25,1343.4L2237.5,1337.92L2270,1319.1L2321.25,1300.67L2366.25,1281.27L2378.75,1279.26L2433.75,1278.62L2482.5,1261.48L2557.5,1264.46L2617.5,1255.95L2693.75,1268.45L2742.5,1263.56L2779.6,1276.07Z M2759.67,1400.91L2801.97,1414.86L2868.75,1426.01L2940.35,1451.41L2994.99,1481.76L3035.27,1497.38L3065.54,1516.16L3120.61,1537.77L3155.47,1564.82L3184.25,1581.16L3225.98,1618.19L3270.5,1653.44L3288.75,1673.74L3331.25,1710.53L3356.25,1740.75L3383.75,1766.02L3414.77,1806.76L3437.82,1830.41L3473.66,1884.58L3494.13,1909.74L3509.64,1949.82L3533.34,1988.64L3549.36,2030.87L3579.07,2081.91L3600.36,2132.91L3615.24,2160.41L3619.9,2209.16L3640.2,2266.66L3649.74,2302.91L3659.38,2362.91L3665.31,2420.41L3675.5,2469.16L3670.89,2525.41L3676.7,2600.41L3666.78,2660.41L3665.55,2707.91L3659.29,2750.41L3648.92,2796.66L3630.74,2849.16L3622.47,2916.66L3600.56,2961.66L3579.5,3012.91L3562.67,3040.41L3554.94,3077.91L3548.03,3097.91L3523.2,3137.91L3509.64,3167.91L3471.5,3217.91L3453.75,3246.66L3424.55,3279.16L3405.45,3307.22L3364.55,3349.47L3335.7,3384.09L3304.7,3411.42L3265.45,3452.71L3240.25,3470.65L3204.08,3505.12L3167.57,3529.68L3145.26,3549.83L3097.87,3579.89L3058.65,3608.22L3005.3,3628.75L2965,3649.31L2925,3661.77L2881.25,3685.25L2830,3702.58L2807.5,3713.18L2791.25,3716.74L2742.5,3719.13L2696.25,3738.53L2677.5,3743.83L2633.75,3741.83L2558.75,3753.26L2483.75,3753.46L2437.5,3756.06L2358.75,3747.86L2302.5,3746.09L2275,3740.37L2237.5,3726.88L2196.25,3729.4L2177.5,3727.7L2134.63,3708.58L2090.52,3693.96L2052.63,3675.26L1986.25,3660.19L1905,3616.57L1875.2,3594.09L1827.34,3566.98L1785.2,3534.85L1756.25,3519.55L1723.44,3489.31L1694.35,3473.81L1654.85,3431.66L1629.78,3414.16L1596.76,3371L1561.81,3339.1L1540.79,3298.68L1508.08,3258.38L1492.18,3226.6L1463.04,3187.09L1442.51,3147.91L1414.33,3105.41L1403.06,3057.91L1387.82,3017.91L1378.03,2976.66L1356.72,2920.41L1353.97,2905.41L1353.04,2845.41L1345.86,2815.41L1341.91,2785.41L1345.24,2725.41L1340.53,2665.41L1355.94,2600.41L1360.91,2529.16L1374.18,2496.66L1394.31,2429.16L1406.85,2397.91L1419.48,2347.91L1464.14,2262.34L1487.04,2226.01L1506.39,2180.81L1532.96,2138.43L1555.15,2092.54L1653.82,1958.31L1684.95,1923.67L1715.65,1883.14L1748.84,1848.6L1768.15,1822.56L1803.81,1787.4L1836.99,1748.96L1864.08,1725.95L1898.05,1689.69L1924.81,1669L1963.82,1631.23L1988.21,1614.16L2038.3,1571.66L2066.15,1554.52L2105.09,1524.06L2155,1497.85L2185,1479.07L2235,1465.63L2278.75,1444.08L2366.25,1410.21L2422.5,1407.18L2482.5,1391.81L2497.5,1389.99L2553.75,1392.42L2605,1385.26L2638.75,1387.2L2681.97,1395.77L2709.3,1396.62L2741.48,1392.91L2750.57,1396.91Z M2774.78,1522.15L2817.73,1536.92L2873.75,1546.13L2945,1576.8L2985,1602.02L3034.9,1626.28L3064.61,1647.76L3112.43,1669.75L3133.84,1689L3178.41,1719.16L3206.16,1747.15L3251.63,1784.96L3270.14,1808.88L3304.1,1841.45L3334.76,1885.63L3356.97,1909.65L3376.32,1947.91L3403.65,1987.91L3427.91,2037.91L3459.75,2089.16L3482.17,2135.41L3497.18,2174.16L3504.85,2217.91L3521.62,2261.66L3544.72,2337.91L3548.92,2361.66L3548.85,2405.41L3561.83,2465.41L3562.82,2480.41L3558.03,2540.41L3567.05,2600.41L3553.94,2650.41L3550.27,2735.41L3517.17,2849.24L3507.36,2904.16L3498.48,2927.91L3480.43,2961.66L3462.26,3004.16L3438.06,3047.91L3420.15,3097.91L3399.15,3127.91L3372.41,3175.15L3347.66,3203.11L3330.37,3228.7L3286.26,3275.56L3261.55,3306.07L3224.82,3339.16L3191.7,3374.16L3167.95,3391.4L3124.64,3430.71L3095,3449.01L3045,3485.26L3015,3497.07L2965,3525.11L2925,3539.46L2885,3563.18L2845,3578.92L2808.75,3596.66L2791.25,3600.75L2753.75,3602.85L2677.5,3627.33L2520,3644.57L2467.5,3646.25L2340,3637.85L2301.25,3631.9L2226.25,3613.02L2177.5,3611.05L2134.52,3590L2079.29,3569.94L2052.32,3555.56L1986.84,3535.95L1947.35,3510.92L1908.83,3490.6L1889.55,3474.25L1829.96,3431.66L1811.25,3413.3L1767.6,3381.21L1739.16,3350.41L1714.78,3330.91L1679.89,3289.23L1654.6,3264.28L1615.48,3210.27L1594.18,3185.86L1572.14,3148.67L1547.79,3114.83L1522.59,3052.7L1511.85,3032.05L1498.23,2980.2L1474.21,2920.41L1467.76,2890.41L1464.01,2849.16L1457.27,2815.41L1451,2762.91L1451.84,2700.41L1464.02,2566.66L1475.24,2510.41L1490.5,2465.41L1500.14,2409.16L1529.47,2337.91L1557.82,2287.91L1569.61,2257.91L1592.06,2217.78L1614.5,2166.29L1658.33,2097.91L1697.39,2047.91L1723.84,2009.71L1745.57,1986.25L1776.21,1946.03L1811.07,1909.54L1828.71,1885.72L1864.15,1851.61L1901.1,1810.5L1925.67,1790.94L1965.19,1751.39L1997.72,1727.21L2025.42,1701.34L2073.93,1667.7L2104.73,1642.84L2170.01,1601.87L2189.01,1592.24L2223.5,1582.14L2275,1558.74L2306.25,1549.19L2347.5,1531.25L2377.5,1522.02L2433.75,1516.46L2486.25,1505.28L2562.73,1501.09L2638.87,1504.18L2753.65,1512.91L2764.21,1517.53Z M2730.03,1618.39L2773.5,1629.8L2806.25,1641.87L2847.5,1649.45L2873.75,1656.85L2915,1680.26L2945,1694L2985,1721.23L3025,1741.92L3065,1772.65L3113.25,1802.14L3145.06,1834.38L3169.67,1851.66L3197.66,1886.72L3231.93,1919.98L3248.53,1948.48L3287.39,1997.94L3302.21,2027.91L3336.58,2077.91L3351.13,2107.91L3376.47,2149.16L3408.19,2238.25L3422.81,2297.11L3442.62,2345.41L3444.52,2405.41L3456.98,2480.41L3458.47,2586.66L3448.39,2675.41L3449.36,2720.41L3427.75,2785.41L3412.17,2862.61L3393.11,2914.21L3358.82,2977.39L3341.49,3017.91L3317.21,3057.91L3305.68,3087.91L3269.01,3137.64L3246.51,3173.08L3227.46,3191.39L3188.61,3237.59L3157.24,3265.61L3131.25,3293.76L3095.74,3320.08L3063.92,3349L3009.49,3381.53L2990,3396.51L2926.25,3424.65L2895,3443.87L2855,3461.71L2813.75,3483.76L2746.25,3499.2L2705,3512.49L2617.5,3534.13L2542.5,3535.55L2497.5,3544.22L2482.5,3544.47L2422.5,3536.78L2377.5,3540.29L2347.5,3536.14L2302.5,3524.67L2238.75,3515.57L2200,3506.2L2166.62,3494.95L2117.75,3471.76L2065.96,3454.73L2035,3438.24L1995,3422.8L1915.23,3370.32L1870,3331.38L1846.07,3314.32L1806.3,3273.61L1783.45,3254.65L1709.54,3169.02L1663.64,3107.03L1625.58,3036.75L1606.27,2970.26L1589.17,2935.69L1570.32,2882.91L1562.46,2846.66L1558.33,2785.41L1548.74,2739.16L1549.23,2702.91L1554.27,2650.41L1549.34,2600.41L1565.97,2544.16L1573.32,2499.16L1586.56,2442.91L1598.91,2406.66L1625.82,2349.16L1641.1,2307.91L1657.03,2277.91L1676.48,2227.91L1719.08,2157.91L1756.82,2107.91L1775.89,2078.36L1811.78,2036.14L1828.55,2011.79L1868.87,1968.71L1888.16,1943.08L1932.25,1901.12L1952.75,1877.45L1994.24,1843.89L2028.27,1811.43L2053.18,1794.73L2095.46,1759.68L2125,1741.65L2175,1706.26L2246.25,1670.66L2301.25,1655.87L2347.5,1636L2400,1619.42L2436.25,1612.57L2482.5,1610.54L2527.5,1601.88L2557.5,1599.31L2617.5,1606.59L2673.01,1605.49L2718.03,1615.65Z M2651.36,1800.9L2813.75,1844.84L2885,1883.83L2935,1920.37L2964.4,1938.11L3004.55,1974.61L3028.38,1991.66L3064.96,2034.79L3085.92,2054.16L3115.89,2098.12L3147.24,2137.91L3163.45,2167.91L3190.34,2208.38L3223.95,2290.56L3235.24,2345.41L3254.63,2405.41L3258.5,2435.41L3259.66,2480.41L3266.47,2525.41L3260.22,2661.66L3253.61,2695.41L3241.71,2736.66L3238.41,2780.41L3206.09,2860.41L3178.37,2907.91L3160.8,2947.79L3134.58,2986.46L3109.82,3034.17L3083.94,3062.38L3055.36,3098.82L3013.09,3137.19L2992.34,3159.79L2955.84,3183.81L2915.52,3215L2880.27,3230.41L2838.45,3256.44L2751.25,3300.43L2687.5,3319.36L2613.75,3333.69L2557.5,3347.93L2527.5,3348.74L2497.5,3345.7L2437.5,3351.56L2422.5,3350.87L2362.5,3338.62L2298.5,3331.9L2240.25,3315.36L2166.17,3282.7L2135,3273.69L2045,3226.69L2005.75,3194.16L1979.25,3175.48L1944.28,3139.9L1917.37,3116.69L1848.75,3032.53L1832.45,3003.4L1812.14,2973.77L1795.71,2921.66L1771.36,2867.91L1747.73,2796.66L1743.46,2725.41L1731.31,2660.41L1742.57,2600.41L1745.72,2529.16L1769.08,2449.81L1786.72,2402.08L1798.77,2355.96L1813.59,2322.91L1834.3,2285.41L1873.09,2227.91L1889.78,2197.91L1921.14,2157.91L1951.85,2111.66L1970.12,2094.16L2008.16,2047.91L2041.59,2018.82L2068.64,1990.78L2113.76,1959.78L2148.85,1931.12L2186.05,1909.99L2211.3,1891.47L2272.5,1857.25L2311.25,1839.65L2355,1829.88L2427.5,1808.07L2475,1797.81L2512.5,1795.42L2558.66,1798.07L2616.17,1792.91L2633.76,1796.91Z M2648.42,1900.41L2672.99,1909.3L2730.56,1916.47L2750.39,1923.28L2818.4,1956.05L2895,2007.5L2925,2034.7L2963.75,2065.12L2995.82,2102.8L3022.01,2128.87L3079.7,2210.34L3099.57,2242.91L3124.82,2295.41L3134,2339.72L3147.78,2378.9L3164.16,2439.03L3170.1,2478.52L3168.3,2525.41L3172.52,2570.41L3172.78,2600.41L3141.63,2762.91L3130.93,2795.41L3107.17,2839.44L3092.04,2874.02L3063.68,2918.42L3040.63,2965.41L3015.43,2991.7L2983.91,3036.38L2948.15,3066.12L2928.63,3088.39L2881.99,3117.64L2844.77,3145.55L2805,3163.77L2765,3188.59L2688.75,3224.43L2670.1,3230.05L2619.98,3233.59L2569.06,3246.32L2482.5,3252.17L2427.5,3251.19L2362.5,3241.07L2297.5,3235.98L2255,3215.03L2205,3196.72L2165,3175.78L2128.75,3164.55L2112.34,3155.77L2089.35,3135.82L2045.7,3106.49L2011.6,3071.65L1990.32,3054.16L1921.82,2967.91L1903.95,2927.91L1886.55,2897.91L1873.56,2856.66L1849.13,2797.91L1839.54,2755.41L1833.7,2706.66L1830.12,2642.91L1834.47,2562.91L1840.91,2526.66L1858.24,2465.41L1865.19,2421.66L1873.59,2397.91L1908.06,2327.91L1928.42,2297.91L1949.24,2257.91L1985.47,2207.91L2001.89,2179.03L2063.86,2107.78L2136.01,2043.35L2164.93,2026.93L2214.19,1991.61L2244.1,1977.17L2279.11,1954.51L2313.01,1937.34L2356.65,1919.07L2392.5,1910.74L2437.5,1906.06L2467.5,1897.28L2497.5,1892.35L2557.5,1895L2617.53,1891.41L2639.26,1896.66Z M2610.97,1996.59L2653.6,2004.98L2686.25,2015.85L2740.63,2028.67L2761.28,2038.17L2785.61,2055.19L2814.87,2071.66L2897.44,2139.16L2920.19,2166.76L2952.77,2200.28L3002.42,2270.41L3019.87,2302.91L3036,2341.66L3044.68,2375.41L3048.87,2405.41L3063.47,2450.41L3069.74,2480.41L3068.23,2540.41L3074.89,2600.41L3056.43,2676.66L3055.32,2720.41L3048.51,2739.16L3011.59,2816.53L2993.52,2842.34L2967.05,2893.27L2944.68,2919.13L2919.07,2959.28L2904.48,2973.15L2880.55,2990.59L2852.33,3019.98L2805.92,3047.42L2778.7,3068.43L2677.5,3121.02L2640,3132.56L2603.75,3140.48L2557.5,3145.81L2497.5,3157.17L2467.5,3156L2422.5,3149.27L2392.5,3149.53L2358.75,3145.76L2301.25,3128.79L2226.25,3093.74L2195,3083.22L2116.25,3035.03L2083.75,3001.74L2056.25,2978.91L2026.53,2935.62L2000.74,2905.41L1984.23,2857.91L1958.51,2807.91L1949,2777.91L1927.92,2725.41L1929.6,2649.16L1920.7,2600.41L1935.48,2541.66L1941.09,2494.16L1960.09,2430.41L1975.76,2391.66L2001.43,2347.91L2015.21,2317.91L2049.94,2267.91L2064.79,2239.16L2094.84,2206.66L2116.85,2177.99L2188.87,2113.86L2236.45,2088.31L2275.12,2061.54L2305,2048.57L2362.5,2016.82L2438.75,1999.69L2544.85,1987.25L2564.08,1988.17L2599.26,1994.75Z M2583.29,2099.83L2618.58,2111.53L2670.72,2120.7L2729.95,2145.41L2755.19,2158.43L2819.74,2210.58L2853.88,2249.97L2874.95,2270.61L2924.07,2347.91L2930.41,2367.91L2934.32,2405.41L2948.39,2437.91L2956.65,2465.41L2964.33,2522.91L2965.05,2562.91L2962.25,2601.66L2947.13,2676.66L2942.93,2720.41L2938.76,2731.66L2915.73,2767.91L2895.78,2806.91L2836.49,2885.25L2804.57,2911.3L2773.33,2942.67L2727.51,2971.96L2702.53,2991.06L2668.36,3008.99L2623.76,3027.61L2587.5,3034.91L2546.25,3036.71L2497.5,3052.1L2437.5,3040.15L2375,3038.45L2332.5,3025.83L2286.79,3005.1L2258.21,2988.91L2241.57,2976.46L2191.05,2948.41L2171.69,2926.29L2136.37,2897.74L2123.24,2879.44L2108.98,2851.49L2083.01,2819.76L2065.79,2777.91L2041.06,2731.66L2037.93,2720.41L2037.75,2675.41L2030.73,2604.16L2033.63,2570.41L2042.81,2525.41L2045.9,2481.44L2054.03,2456.58L2087.74,2387.76L2110.37,2355.54L2137.04,2308.34L2163.89,2280.08L2182.5,2253.31L2196.25,2238.02L2235,2211.27L2265,2185.05L2315,2158.28L2355,2133.28L2426.25,2105.58L2497.5,2102.85L2556.47,2091.4L2575.27,2096.37Z M2533.22,2419.57L2547.47,2427.76L2575,2434.85L2591.25,2445.4L2608.5,2475.91L2632.47,2501.5L2646.34,2526.01L2651.21,2542.91L2655.91,2579.16L2654.8,2591.66L2651.38,2600.41L2645.66,2605.41L2638.67,2619.16L2635.29,2660.41L2629.67,2670.58L2586.84,2701.16L2559.62,2731.26L2553.56,2735.19L2532.5,2733.03L2512.5,2721.4L2497.5,2715.88L2483.75,2718.55L2448.75,2735.48L2437.5,2737.51L2427.5,2735.35L2412.5,2725.04L2391.25,2700.25L2365,2681.02L2351.45,2665.93L2347.91,2657.11L2346,2638.92L2352.68,2600.41L2339.2,2566.66L2339.19,2547.91L2342.78,2525.41L2352.19,2510.41L2377.57,2486.66L2402.13,2449.07L2451.25,2425.05L2477.5,2403.49L2487.5,2399.73L2502.5,2400.2L2511.22,2403.52L2528.18,2416.24Z" /></g>
    <g data-iso="102"><path d="M2574.32,1099.53L2600.54,1107.22L2622.5,1110.27L2663.75,1097.87L2682.5,1095.93L2715,1108.1L2738.75,1114.14L2793.75,1118.5L2873.12,1133.8L2910.93,1151.26L2938.07,1159.67L2981.25,1160.61L2993.75,1163.44L3035,1185.3L3065,1195.82L3118.75,1229.51L3170,1249.75L3188.75,1265.18L3205,1270.06L3223.75,1271.42L3242.5,1276.16L3269.7,1300.21L3326.38,1336.61L3347.85,1358.49L3383.86,1382.39L3417.58,1415.93L3445.33,1436.52L3484.91,1478.03L3530.18,1517.36L3548.26,1541.41L3588.55,1578.62L3613.85,1613.77L3640.97,1639.13L3659.8,1667.91L3703.21,1717.91L3724.82,1755.35L3752.27,1784.37L3757.79,1817.91L3764.51,1837.43L3784.73,1865.99L3804.35,1917.2L3825.46,1946.47L3847.69,1996.76L3868.8,2029.01L3873.66,2040.41L3871.36,2087.91L3878.39,2107.91L3895.94,2141.66L3908.2,2184.16L3925.43,2227.91L3926.37,2247.91L3922.57,2266.66L3921.95,2285.41L3948.35,2345.41L3939.48,2404.16L3942.56,2427.91L3953.68,2454.16L3956.85,2470.41L3956.8,2485.41L3947.89,2517.91L3945.97,2537.91L3954.76,2577.91L3956.45,2597.91L3953.91,2617.91L3941.04,2654.16L3939.37,2665.41L3951.21,2714.16L3951.69,2725.41L3926.01,2785.41L3930.85,2830.41L3929.77,2856.66L3910.35,2901.66L3894.48,2952.91L3880.58,2980.41L3880.82,3040.41L3871.64,3058.17L3853.96,3083.93L3831.41,3135.54L3808.38,3166.12L3806.43,3179.73L3807.07,3206.66L3804.25,3220.41L3779.92,3251.66L3759.11,3300.41L3730.63,3331.66L3710.04,3367.74L3668.69,3415.4L3651.85,3444.32L3618.05,3479.01L3596.92,3517.11L3562.9,3540.41L3551.91,3555.41L3540.02,3579.67L3527.25,3591.09L3512.58,3597.43L3498.33,3607.23L3491.1,3615.72L3478.69,3639.4L3470.11,3648.09L3436.25,3666.8L3403.75,3701.7L3375.68,3717.9L3333.18,3756.25L3297.72,3778.36L3254.57,3814.72L3215.11,3837L3187.97,3861.04L3171.25,3867.77L3136.25,3873.11L3128.75,3876.34L3110,3891.42L3046.25,3912.87L3014.38,3934.14L2967.53,3951.72L2931.88,3970.7L2920.63,3972.89L2878.75,3972.89L2866.25,3975.43L2817.5,3999.9L2750,4006.68L2730,4012.01L2678.75,4019.51L2617.5,4038.86L2557.5,4027.14L2498.75,4042.95L2475,4041.7L2448.75,4031.75L2427.5,4028.55L2411.25,4030.49L2385,4039.01L2361.25,4039.51L2317.5,4027.22L2302.5,4025.02L2246.25,4024.13L2205,4013.46L2168.75,4007.74L2151.25,4002.51L2125,3989.19L2105,3983.87L2057.5,3988.18L2043.75,3982.72L2001.25,3958.54L1950,3938.36L1922.5,3921.45L1863.43,3918.44L1831.24,3894.12L1789.26,3874.41L1744.52,3841.11L1715,3827.22L1675,3795.52L1655,3786.6L1624.78,3779.22L1615.32,3769.79L1604.67,3751.97L1596.52,3745.61L1555.86,3731.47L1540.16,3717.5L1526.09,3699.04L1517.63,3691.62L1488.37,3674.16L1450.29,3631.66L1425.12,3614.16L1391.81,3571.66L1355.49,3542.33L1334.75,3502.09L1302.58,3477.57L1289.12,3433.82L1275.58,3414.5L1258.22,3396.89L1252.34,3387.57L1237.3,3349L1215.03,3322.26L1192.93,3279L1170.52,3247.91L1158.51,3227.07L1150.04,3194.52L1128.48,3147.63L1123.89,3100.41L1095.54,3051.66L1091.63,3040.41L1089.25,2972.91L1082.24,2952.91L1073.96,2901.66L1062.71,2856.66L1063.68,2830.41L1070.58,2784.73L1063.73,2747.23L1062.78,2727.8L1078.7,2641.66L1091.3,2596.66L1095.48,2540.41L1105.6,2510.41L1124.85,2469.16L1130.71,2437.91L1151.94,2387.91L1157.61,2359.16L1163.86,2340.41L1186.99,2309.72L1207.85,2268.37L1232.17,2234.51L1255.26,2182.91L1276.69,2152.91L1306.31,2091.65L1332.04,2060.27L1348.3,2031.26L1385.01,1987.46L1408.81,1951.27L1435.98,1921.43L1471.87,1873.21L1490.29,1854.27L1520.31,1809.41L1544.71,1784.38L1575.06,1737.84L1598.48,1715.58L1628.79,1667.91L1663.88,1631.66L1681.81,1600.41L1712.81,1574.16L1743.93,1531.63L1765.98,1514.03L1793.77,1478.98L1835.42,1442.79L1865,1409.65L1903.75,1381.79L1929.03,1353.38L1937.08,1347.56L1968.31,1333.35L2015.28,1293.56L2053.04,1277.76L2077.15,1257.1L2123.04,1232.61L2175,1196.64L2205,1185L2245,1162.66L2265,1159.15L2291.25,1161.26L2302.5,1159.92L2335,1142.06L2358.75,1131.95L2400,1123.37L2431.25,1114.04L2497.68,1111.07L2526.09,1105.03L2552.9,1092.91L2563.61,1096.22Z M2722.6,1719.53L2744.43,1727.4L2804.3,1738.53L2858.14,1759.73L2949,1811.05L2986.59,1839.3L3043.78,1877.03L3075.73,1908.04L3103.75,1929.39L3135.15,1967.85L3159.01,1990.09L3188.21,2035.16L3214.04,2066.89L3274.87,2165.41L3301.41,2220.41L3309.35,2247.91L3315.03,2281.66L3342.78,2362.91L3351.36,2401.66L3355.11,2465.41L3364.86,2525.41L3363.85,2555.41L3358.07,2600.41L3359.84,2660.41L3341.64,2740.41L3326.44,2789.16L3315.92,2844.38L3306.26,2869.22L3287.88,2903L3272.42,2938.43L3246.54,2981.08L3226.57,3027.3L3208.9,3050.26L3180.97,3097.21L3148.54,3132.72L3131.25,3156.45L3086.12,3198.83L3060.19,3226.78L3017.5,3257.51L2993.34,3279.26L2945,3304.48L2905,3330.29L2864.05,3348.08L2813.72,3376.98L2742.5,3406.95L2673.93,3416.55L2618.4,3435.27L2572.5,3436.57L2497.5,3442.93L2415,3442.26L2366.25,3437.75L2302.5,3424.36L2237.5,3418.47L2195,3398.51L2145,3379.83L2115,3363.86L2057.5,3346.05L1971.48,3290.61L1951.62,3272.47L1907.68,3239.27L1886.98,3216.92L1847.61,3181.29L1784.43,3107.91L1737.28,3037.91L1717.89,2987.91L1702.64,2957.88L1689.9,2916.26L1666.61,2860.31L1660.22,2830.41L1658.15,2801.66L1650.07,2751.66L1647.17,2665.41L1648.2,2597.91L1661.03,2536.66L1664.93,2495.41L1670.35,2467.37L1742,2280.41L1773.57,2225.41L1814.69,2167.91L1832.9,2138.03L1864.67,2099.74L1894.44,2057.36L1916.42,2035.56L1954.46,1989.06L1983.45,1963.76L2008.75,1936.13L2053.84,1902.03L2088.43,1871.28L2114.95,1854.98L2155.61,1823.73L2233.04,1776.78L2294.64,1751.45L2331.61,1739.63L2366.25,1732.31L2422.5,1712.55L2452.5,1708.63L2497.5,1707.71L2527.5,1702.42L2561.25,1700.43L2632.5,1706.54L2674.28,1706.08L2714.38,1716.22Z M2611.8,2240.2L2653.68,2257.27L2685,2279.63L2715,2292.07L2731.25,2303.27L2748.73,2331.84L2782.75,2368.74L2788.82,2378.19L2803.89,2419.89L2824.77,2458.33L2830.02,2473.33L2836.62,2506.87L2839.15,2543.57L2838.01,2582.91L2833.76,2625.41L2814.14,2677.91L2810.51,2720.41L2805.56,2730.41L2786.15,2752.46L2754.17,2797.49L2691.92,2856.75L2613.75,2899.21L2601.25,2902.66L2546.25,2908.62L2508.75,2923.79L2492.5,2926.92L2477.5,2925.56L2433.75,2910.99L2378.75,2910.62L2366.25,2907.87L2295.54,2869.36L2255.17,2831.38L2233.36,2814.16L2177.09,2739.16L2169.13,2725.41L2166.88,2706.66L2168.07,2677.91L2154.97,2627.91L2151.39,2591.66L2153.54,2574.16L2165.14,2536.66L2167.59,2495.41L2172.9,2469.16L2214.06,2398.39L2251.59,2356.82L2269.48,2333.51L2355.73,2264.14L2415,2235.3L2438.75,2229.25L2497.5,2229.95L2540,2219.61L2557.5,2217.84L2600.35,2236.56Z" /></g>
    <g data-label="kontur-tall">
      <text x="2617.5" y="4038.86" text-anchor="middle">100</text>
      <text x="2302.5" y="3424.36" text-anchor="middle">200</text>
      <text x="2477.5" y="2925.56" text-anchor="middle">300</text>
    </g>
  </g>
  <g data-layer="stein" data-iso="213">
    <use href="#iso-sym-knaus" x="2359.4mm" y="3542.31mm" width="1.2mm" height="1.2mm"/>
    <use href="#iso-sym-knaus" x="2479.4mm" y="3542.31mm" width="1.2mm" height="1.2mm"/>
    <use href="#iso-sym-knaus" x="2039.4mm" y="3482.31mm" width="1.2mm" height="1.2mm"/>
    <use href="#iso-sym-knaus" x="2159.4mm" y="3482.31mm" width="1.2mm" height="1.2mm"/>
    <use href="#iso-sym-knaus" x="2299.4mm" y="3482.31mm" width="1.2mm" height="1.2mm"/>
    <use href="#iso-sym-knaus" x="2419.4mm" y="3482.31mm" width="1.2mm" height="1.2mm"/>
    <use href="#iso-sym-knaus" x="2539.4mm" y="3482.31mm" width="1.2mm" height="1.2mm"/>
    <use href="#iso-sym-knaus" x="2679.4mm" y="3482.31mm" width="1.2mm" height="1.2mm"/>
    <use href="#iso-sym-knaus" x="2799.4mm" y="3482.31mm" width="1.2mm" height="1.2mm"/>
    <use href="#iso-sym-knaus" x="2919.4mm" y="3482.31mm" width="1.2mm" height="1.2mm"/>
    <use href="#iso-sym-knaus" x="1859.4mm" y="3422.31mm" width="1.2mm" height="1.2mm"/>
    <use href="#iso-sym-knaus" x="1979.4mm" y="3422.31mm" width="1.2mm" height="1.2mm"/>
    <use href="#iso-sym-knaus" x="2099.4mm" y="3422.31mm" width="1.2mm" height="1.2mm"/>
    <use href="#iso-sym-knaus" x="2239.4mm" y="3422.31mm" width="1.2mm" height="1.2mm"/>
    <use href="#iso-sym-knaus" x="2359.4mm" y="3422.31mm" width="1.2mm" height="1.2mm"/>
    <use href="#iso-sym-knaus" x="2479.4mm" y="3422.31mm" width="1.2mm" height="1.2mm"/>
    <use href="#iso-sym-knaus" x="2599.4mm" y="3422.31mm" width="1.2mm" height="1.2mm"/>
    <use href="#iso-sym-knaus" x="2739.4mm" y="3422.31mm" width="1.2mm" height="1.2mm"/>
    <use href="#iso-sym-knaus" x="2859.4mm" y="3422.31mm" width="1.2mm" height="1.2mm"/>
    <use href="#iso-sym-knaus" x="2979.4mm" y="3422.31mm" width="1.2mm" height="1.2mm"/>
    <use href="#iso-sym-knaus" x="1919.4mm" y="3362.31mm" width="1.2mm" height="1.2mm"/>
    <use href="#iso-sym-knaus" x="2039.4mm" y="3362.31mm" width="1.2mm" height="1.2mm"/>
    <use href="#iso-sym-knaus" x="2159.4mm" y="3362.31mm" width="1.2mm" height="1.2mm"/>
    <use href="#iso-sym-knaus" x="2299.4mm" y="3362.31mm" width="1.2mm" height="1.2mm"/>
    <use href="#iso-sym-knaus" x="2419.4mm" y="3362.31mm" width="1.2mm" height="1.2mm"/>
    <use href="#iso-sym-knaus" x="2539.4mm" y="3362.31mm" width="1.2mm" height="1.2mm"/>
    <use href="#iso-sym-knaus" x="2679.4mm" y="3362.31mm" width="1.2mm" height="1.2mm"/>
    <use href="#iso-sym-knaus" x="2799.4mm" y="3362.31mm" width="1.2mm" height="1.2mm"/>
    <use href="#iso-sym-knaus" x="2919.4mm" y="3362.31mm" width="1.2mm" height="1.2mm"/>
    <use href="#iso-sym-knaus" x="3039.4mm" y="3362.31mm" width="1.2mm" height="1.2mm"/>
    <use href="#iso-sym-knaus" x="1859.4mm" y="3302.31mm" width="1.2mm" height="1.2mm"/>
    <use href="#iso-sym-knaus" x="1979.4mm" y="3302.31mm" width="1.2mm" height="1.2mm"/>
    <use href="#iso-sym-knaus" x="2099.4mm" y="3302.31mm" width="1.2mm" height="1.2mm"/>
    <use href="#iso-sym-knaus" x="2239.4mm" y="3302.31mm" width="1.2mm" height="1.2mm"/>
    <use href="#iso-sym-knaus" x="2359.4mm" y="3302.31mm" width="1.2mm" height="1.2mm"/>
    <use href="#iso-sym-knaus" x="2479.4mm" y="3302.31mm" width="1.2mm" height="1.2mm"/>
    <use href="#iso-sym-knaus" x="2599.4mm" y="3302.31mm" width="1.2mm" height="1.2mm"/>
    <use href="#iso-sym-knaus" x="2739.4mm" y="3302.31mm" width="1.2mm" height="1.2mm"/>
    <use href="#iso-sym-knaus" x="2859.4mm" y="3302.31mm" width="1.2mm" height="1.2mm"/>
    <use href="#iso-sym-knaus" x="2979.4mm" y="3302.31mm" width="1.2mm" height="1.2mm"/>
    <use href="#iso-sym-knaus" x="3239.4mm" y="3302.31mm" width="1.2mm" height="1.2mm"/>
    <use href="#iso-sym-knaus" x="1659.4mm" y="3242.31mm" width="1.2mm" height="1.2mm"/>
    <use href="#iso-sym-knaus" x="1799.4mm" y="3242.31mm" width="1.2mm" height="1.2mm"/>
    <use href="#iso-sym-knaus" x="1919.4mm" y="3242.31mm" width="1.2mm" height="1.2mm"/>
    <use href="#iso-sym-knaus" x="2039.4mm" y="3242.31mm" width="1.2mm" height="1.2mm"/>
    <use href="#iso-sym-knaus" x="2159.4mm" y="3242.31mm" width="1.2mm" height="1.2mm"/>
    <use href="#iso-sym-knaus" x="2299.4mm" y="3242.31mm" width="1.2mm" height="1.2mm"/>
    <use href="#iso-sym-knaus" x="2419.4mm" y="3242.31mm" width="1.2mm" height="1.2mm"/>
    <use href="#iso-sym-knaus" x="2539.4mm" y="3242.31mm" width="1.2mm" height="1.2mm"/>
    <use href="#iso-sym-knaus" x="2679.4mm" y="3242.31mm" width="1.2mm" height="1.2mm"/>
    <use href="#iso-sym-knaus" x="2799.4mm" y="3242.31mm" width="1.2mm" height="1.2mm"/>
    <use href="#iso-sym-knaus" x="2919.4mm" y="3242.31mm" width="1.2mm" height="1.2mm"/>
    <use href="#iso-sym-knaus" x="3039.4mm" y="3242.31mm" width="1.2mm" height="1.2mm"/>
    <use href="#iso-sym-knaus" x="3179.4mm" y="3242.31mm" width="1.2mm" height="1.2mm"/>
    <use href="#iso-sym-knaus" x="1719.4mm" y="3182.31mm" width="1.2mm" height="1.2mm"/>
    <use href="#iso-sym-knaus" x="1859.4mm" y="3182.31mm" width="1.2mm" height="1.2mm"/>
    <use href="#iso-sym-knaus" x="1979.4mm" y="3182.31mm" width="1.2mm" height="1.2mm"/>
    <use href="#iso-sym-knaus" x="2099.4mm" y="3182.31mm" width="1.2mm" height="1.2mm"/>
    <use href="#iso-sym-knaus" x="2239.4mm" y="3182.31mm" width="1.2mm" height="1.2mm"/>
    <use href="#iso-sym-knaus" x="2359.4mm" y="3182.31mm" width="1.2mm" height="1.2mm"/>
    <use href="#iso-sym-knaus" x="2479.4mm" y="3182.31mm" width="1.2mm" height="1.2mm"/>
    <use href="#iso-sym-knaus" x="2599.4mm" y="3182.31mm" width="1.2mm" height="1.2mm"/>
    <use href="#iso-sym-knaus" x="2739.4mm" y="3182.31mm" width="1.2mm" height="1.2mm"/>
    <use href="#iso-sym-knaus" x="2859.4mm" y="3182.31mm" width="1.2mm" height="1.2mm"/>
    <use href="#iso-sym-knaus" x="2979.4mm" y="3182.31mm" width="1.2mm" height="1.2mm"/>
    <use href="#iso-sym-knaus" x="3099.4mm" y="3182.31mm" width="1.2mm" height="1.2mm"/>
    <use href="#iso-sym-knaus" x="3239.4mm" y="3182.31mm" width="1.2mm" height="1.2mm"/>
    <use href="#iso-sym-knaus" x="1659.4mm" y="3102.31mm" width="1.2mm" height="1.2mm"/>
    <use href="#iso-sym-knaus" x="1799.4mm" y="3102.31mm" width="1.2mm" height="1.2mm"/>
    <use href="#iso-sym-knaus" x="1919.4mm" y="3102.31mm" width="1.2mm" height="1.2mm"/>
    <use href="#iso-sym-knaus" x="2039.4mm" y="3102.31mm" width="1.2mm" height="1.2mm"/>
    <use href="#iso-sym-knaus" x="2159.4mm" y="3102.31mm" width="1.2mm" height="1.2mm"/>
    <use href="#iso-sym-knaus" x="2299.4mm" y="3102.31mm" width="1.2mm" height="1.2mm"/>
    <use href="#iso-sym-knaus" x="2419.4mm" y="3102.31mm" width="1.2mm" height="1.2mm"/>
    <use href="#iso-sym-knaus" x="2539.4mm" y="3102.31mm" width="1.2mm" height="1.2mm"/>
    <use href="#iso-sym-knaus" x="2679.4mm" y="3102.31mm" width="1.2mm" height="1.2mm"/>
    <use href="#iso-sym-knaus" x="2799.4mm" y="3102.31mm" width="1.2mm" height="1.2mm"/>
    <use href="#iso-sym-knaus" x="2919.4mm" y="3102.31mm" width="1.2mm" height="1.2mm"/>
    <use href="#iso-sym-knaus" x="3039.4mm" y="3102.31mm" width="1.2mm" height="1.2mm"/>
    <use href="#iso-sym-knaus" x="3179.4mm" y="3102.31mm" width="1.2mm" height="1.2mm"/>
    <use href="#iso-sym-knaus" x="1599.4mm" y="3042.31mm" width="1.2mm" height="1.2mm"/>
    <use href="#iso-sym-knaus" x="1719.4mm" y="3042.31mm" width="1.2mm" height="1.2mm"/>
    <use href="#iso-sym-knaus" x="1859.4mm" y="3042.31mm" width="1.2mm" height="1.2mm"/>
    <use href="#iso-sym-knaus" x="1979.4mm" y="3042.31mm" width="1.2mm" height="1.2mm"/>
    <use href="#iso-sym-knaus" x="2099.4mm" y="3042.31mm" width="1.2mm" height="1.2mm"/>
    <use href="#iso-sym-knaus" x="2239.4mm" y="3042.31mm" width="1.2mm" height="1.2mm"/>
    <use href="#iso-sym-knaus" x="2359.4mm" y="3042.31mm" width="1.2mm" height="1.2mm"/>
    <use href="#iso-sym-knaus" x="2479.4mm" y="3042.31mm" width="1.2mm" height="1.2mm"/>
    <use href="#iso-sym-knaus" x="2599.4mm" y="3042.31mm" width="1.2mm" height="1.2mm"/>
    <use href="#iso-sym-knaus" x="2739.4mm" y="3042.31mm" width="1.2mm" height="1.2mm"/>
    <use href="#iso-sym-knaus" x="2859.4mm" y="3042.31mm" width="1.2mm" height="1.2mm"/>
    <use href="#iso-sym-knaus" x="2979.4mm" y="3042.31mm" width="1.2mm" height="1.2mm"/>
    <use href="#iso-sym-knaus" x="3099.4mm" y="3042.31mm" width="1.2mm" height="1.2mm"/>
    <use href="#iso-sym-knaus" x="3239.4mm" y="3042.31mm" width="1.2mm" height="1.2mm"/>
    <use href="#iso-sym-knaus" x="3359.4mm" y="3042.31mm" width="1.2mm" height="1.2mm"/>
    <use href="#iso-sym-knaus" x="1539.4mm" y="2982.31mm" width="1.2mm" height="1.2mm"/>
    <use href="#iso-sym-knaus" x="1659.4mm" y="2982.31mm" width="1.2mm" height="1.2mm"/>
    <use href="#iso-sym-knaus" x="1799.4mm" y="2982.31mm" width="1.2mm" height="1.2mm"/>
    <use href="#iso-sym-knaus" x="1919.4mm" y="2982.31mm" width="1.2mm" height="1.2mm"/>
    <use href="#iso-sym-knaus" x="2039.4mm" y="2982.31mm" width="1.2mm" height="1.2mm"/>
    <use href="#iso-sym-knaus" x="2159.4mm" y="2982.31mm" width="1.2mm" height="1.2mm"/>
    <use href="#iso-sym-knaus" x="2299.4mm" y="2982.31mm" width="1.2mm" height="1.2mm"/>
    <use href="#iso-sym-knaus" x="2419.4mm" y="2982.31mm" width="1.2mm" height="1.2mm"/>
    <use href="#iso-sym-knaus" x="2539.4mm" y="2982.31mm" width="1.2mm" height="1.2mm"/>
    <use href="#iso-sym-knaus" x="2679.4mm" y="2982.31mm" width="1.2mm" height="1.2mm"/>
    <use href="#iso-sym-knaus" x="2799.4mm" y="2982.31mm" width="1.2mm" height="1.2mm"/>
    <use href="#iso-sym-knaus" x="2919.4mm" y="2982.31mm" width="1.2mm" height="1.2mm"/>
    <use href="#iso-sym-knaus" x="3039.4mm" y="2982.31mm" width="1.2mm" height="1.2mm"/>
    <use href="#iso-sym-knaus" x="3179.4mm" y="2982.31mm" width="1.2mm" height="1.2mm"/>
    <use href="#iso-sym-knaus" x="3299.4mm" y="2982.31mm" width="1.2mm" height="1.2mm"/>
    <use href="#iso-sym-knaus" x="3419.4mm" y="2982.31mm" width="1.2mm" height="1.2mm"/>
    <use href="#iso-sym-knaus" x="1479.4mm" y="2922.31mm" width="1.2mm" height="1.2mm"/>
    <use href="#iso-sym-knaus" x="1599.4mm" y="2922.31mm" width="1.2mm" height="1.2mm"/>
    <use href="#iso-sym-knaus" x="1719.4mm" y="2922.31mm" width="1.2mm" height="1.2mm"/>
    <use href="#iso-sym-knaus" x="1859.4mm" y="2922.31mm" width="1.2mm" height="1.2mm"/>
    <use href="#iso-sym-knaus" x="1979.4mm" y="2922.31mm" width="1.2mm" height="1.2mm"/>
    <use href="#iso-sym-knaus" x="2099.4mm" y="2922.31mm" width="1.2mm" height="1.2mm"/>
    <use href="#iso-sym-knaus" x="2239.4mm" y="2922.31mm" width="1.2mm" height="1.2mm"/>
    <use href="#iso-sym-knaus" x="2359.4mm" y="2922.31mm" width="1.2mm" height="1.2mm"/>
    <use href="#iso-sym-knaus" x="2479.4mm" y="2922.31mm" width="1.2mm" height="1.2mm"/>
    <use href="#iso-sym-knaus" x="2599.4mm" y="2922.31mm" width="1.2mm" height="1.2mm"/>
    <use href="#iso-sym-knaus" x="2739.4mm" y="2922.31mm" width="1.2mm" height="1.2mm"/>
    <use href="#iso-sym-knaus" x="2859.4mm" y="2922.31mm" width="1.2mm" height="1.2mm"/>
    <use href="#iso-sym-knaus" x="2979.4mm" y="2922.31mm" width="1.2mm" height="1.2mm"/>
    <use href="#iso-sym-knaus" x="3099.4mm" y="2922.31mm" width="1.2mm" height="1.2mm"/>
    <use href="#iso-sym-knaus" x="3239.4mm" y="2922.31mm" width="1.2mm" height="1.2mm"/>
    <use href="#iso-sym-knaus" x="3359.4mm" y="2922.31mm" width="1.2mm" height="1.2mm"/>
    <use href="#iso-sym-knaus" x="1419.4mm" y="2862.31mm" width="1.2mm" height="1.2mm"/>
    <use href="#iso-sym-knaus" x="1539.4mm" y="2862.31mm" width="1.2mm" height="1.2mm"/>
    <use href="#iso-sym-knaus" x="1659.4mm" y="2862.31mm" width="1.2mm" height="1.2mm"/>
    <use href="#iso-sym-knaus" x="1799.4mm" y="2862.31mm" width="1.2mm" height="1.2mm"/>
    <use href="#iso-sym-knaus" x="1919.4mm" y="2862.31mm" width="1.2mm" height="1.2mm"/>
    <use href="#iso-sym-knaus" x="2039.4mm" y="2862.31mm" width="1.2mm" height="1.2mm"/>
    <use href="#iso-sym-knaus" x="2159.4mm" y="2862.31mm" width="1.2mm" height="1.2mm"/>
    <use href="#iso-sym-knaus" x="2299.4mm" y="2862.31mm" width="1.2mm" height="1.2mm"/>
    <use href="#iso-sym-knaus" x="2419.4mm" y="2862.31mm" width="1.2mm" height="1.2mm"/>
    <use href="#iso-sym-knaus" x="2539.4mm" y="2862.31mm" width="1.2mm" height="1.2mm"/>
    <use href="#iso-sym-knaus" x="2679.4mm" y="2862.31mm" width="1.2mm" height="1.2mm"/>
    <use href="#iso-sym-knaus" x="2799.4mm" y="2862.31mm" width="1.2mm" height="1.2mm"/>
    <use href="#iso-sym-knaus" x="2919.4mm" y="2862.31mm" width="1.2mm" height="1.2mm"/>
    <use href="#iso-sym-knaus" x="3039.4mm" y="2862.31mm" width="1.2mm" height="1.2mm"/>
    <use href="#iso-sym-knaus" x="3179.4mm" y="2862.31mm" width="1.2mm" height="1.2mm"/>
    <use href="#iso-sym-knaus" x="3299.4mm" y="2862.31mm" width="1.2mm" height="1.2mm"/>
    <use href="#iso-sym-knaus" x="3419.4mm" y="2862.31mm" width="1.2mm" height="1.2mm"/>
    <use href="#iso-sym-knaus" x="1479.4mm" y="2802.31mm" width="1.2mm" height="1.2mm"/>
    <use href="#iso-sym-knaus" x="1599.4mm" y="2802.31mm" width="1.2mm" height="1.2mm"/>
    <use href="#iso-sym-knaus" x="1719.4mm" y="2802.31mm" width="1.2mm" height="1.2mm"/>
    <use href="#iso-sym-knaus" x="1859.4mm" y="2802.31mm" width="1.2mm" height="1.2mm"/>
    <use href="#iso-sym-knaus" x="1979.4mm" y="2802.31mm" width="1.2mm" height="1.2mm"/>
    <use href="#iso-sym-knaus" x="2099.4mm" y="2802.31mm" width="1.2mm" height="1.2mm"/>
    <use href="#iso-sym-knaus" x="2239.4mm" y="2802.31mm" width="1.2mm" height="1.2mm"/>
    <use href="#iso-sym-knaus" x="2359.4mm" y="2802.31mm" width="1.2mm" height="1.2mm"/>
    <use href="#iso-sym-knaus" x="2479.4mm" y="2802.31mm" width="1.2mm" height="1.2mm"/>
    <use href="#iso-sym-knaus" x="2599.4mm" y="2802.31mm" width="1.2mm" height="1.2mm"/>
    <use href="#iso-sym-knaus" x="2739.4mm" y="2802.31mm" width="1.2mm" height="1.2mm"/>
    <use href="#iso-sym-knaus" x="2859.4mm" y="2802.31mm" width="1.2mm" height="1.2mm"/>
    <use href="#iso-sym-knaus" x="2979.4mm" y="2802.31mm" width="1.2mm" height="1.2mm"/>
    <use href="#iso-sym-knaus" x="3099.4mm" y="2802.31mm" width="1.2mm" height="1.2mm"/>
    <use href="#iso-sym-knaus" x="3239.4mm" y="2802.31mm" width="1.2mm" height="1.2mm"/>
    <use href="#iso-sym-knaus" x="3359.4mm" y="2802.31mm" width="1.2mm" height="1.2mm"/>
    <use href="#iso-sym-knaus" x="1539.4mm" y="2742.31mm" width="1.2mm" height="1.2mm"/>
    <use href="#iso-sym-knaus" x="1659.4mm" y="2742.31mm" width="1.2mm" height="1.2mm"/>
    <use href="#iso-sym-knaus" x="1799.4mm" y="2742.31mm" width="1.2mm" height="1.2mm"/>
    <use href="#iso-sym-knaus" x="1919.4mm" y="2742.31mm" width="1.2mm" height="1.2mm"/>
    <use href="#iso-sym-knaus" x="2039.4mm" y="2742.31mm" width="1.2mm" height="1.2mm"/>
    <use href="#iso-sym-knaus" x="2159.4mm" y="2742.31mm" width="1.2mm" height="1.2mm"/>
    <use href="#iso-sym-knaus" x="2299.4mm" y="2742.31mm" width="1.2mm" height="1.2mm"/>
    <use href="#iso-sym-knaus" x="2419.4mm" y="2742.31mm" width="1.2mm" height="1.2mm"/>
    <use href="#iso-sym-knaus" x="2539.4mm" y="2742.31mm" width="1.2mm" height="1.2mm"/>
    <use href="#iso-sym-knaus" x="2679.4mm" y="2742.31mm" width="1.2mm" height="1.2mm"/>
    <use href="#iso-sym-knaus" x="2799.4mm" y="2742.31mm" width="1.2mm" height="1.2mm"/>
    <use href="#iso-sym-knaus" x="2919.4mm" y="2742.31mm" width="1.2mm" height="1.2mm"/>
    <use href="#iso-sym-knaus" x="3039.4mm" y="2742.31mm" width="1.2mm" height="1.2mm"/>
    <use href="#iso-sym-knaus" x="3179.4mm" y="2742.31mm" width="1.2mm" height="1.2mm"/>
    <use href="#iso-sym-knaus" x="3299.4mm" y="2742.31mm" width="1.2mm" height="1.2mm"/>
    <use href="#iso-sym-knaus" x="3419.4mm" y="2742.31mm" width="1.2mm" height="1.2mm"/>
    <use href="#iso-sym-knaus" x="1599.4mm" y="2662.31mm" width="1.2mm" height="1.2mm"/>
    <use href="#iso-sym-knaus" x="1719.4mm" y="2662.31mm" width="1.2mm" height="1.2mm"/>
    <use href="#iso-sym-knaus" x="1859.4mm" y="2662.31mm" width="1.2mm" height="1.2mm"/>
    <use href="#iso-sym-knaus" x="1979.4mm" y="2662.31mm" width="1.2mm" height="1.2mm"/>
    <use href="#iso-sym-knaus" x="2099.4mm" y="2662.31mm" width="1.2mm" height="1.2mm"/>
    <use href="#iso-sym-knaus" x="2239.4mm" y="2662.31mm" width="1.2mm" height="1.2mm"/>
    <use href="#iso-sym-knaus" x="2359.4mm" y="2662.31mm" width="1.2mm" height="1.2mm"/>
    <use href="#iso-sym-knaus" x="2479.4mm" y="2662.31mm" width="1.2mm" height="1.2mm"/>
    <use href="#iso-sym-knaus" x="2599.4mm" y="2662.31mm" width="1.2mm" height="1.2mm"/>
    <use href="#iso-sym-knaus" x="2739.4mm" y="2662.31mm" width="1.2mm" height="1.2mm"/>
    <use href="#iso-sym-knaus" x="2859.4mm" y="2662.31mm" width="1.2mm" height="1.2mm"/>
    <use href="#iso-sym-knaus" x="2979.4mm" y="2662.31mm" width="1.2mm" height="1.2mm"/>
    <use href="#iso-sym-knaus" x="3099.4mm" y="2662.31mm" width="1.2mm" height="1.2mm"/>
    <use href="#iso-sym-knaus" x="3239.4mm" y="2662.31mm" width="1.2mm" height="1.2mm"/>
    <use href="#iso-sym-knaus" x="3359.4mm" y="2662.31mm" width="1.2mm" height="1.2mm"/>
    <use href="#iso-sym-knaus" x="1539.4mm" y="2602.31mm" width="1.2mm" height="1.2mm"/>
    <use href="#iso-sym-knaus" x="1659.4mm" y="2602.31mm" width="1.2mm" height="1.2mm"/>
    <use href="#iso-sym-knaus" x="1799.4mm" y="2602.31mm" width="1.2mm" height="1.2mm"/>
    <use href="#iso-sym-knaus" x="1919.4mm" y="2602.31mm" width="1.2mm" height="1.2mm"/>
    <use href="#iso-sym-knaus" x="2039.4mm" y="2602.31mm" width="1.2mm" height="1.2mm"/>
    <use href="#iso-sym-knaus" x="2159.4mm" y="2602.31mm" width="1.2mm" height="1.2mm"/>
    <use href="#iso-sym-knaus" x="2299.4mm" y="2602.31mm" width="1.2mm" height="1.2mm"/>
    <use href="#iso-sym-knaus" x="2419.4mm" y="2602.31mm" width="1.2mm" height="1.2mm"/>
    <use href="#iso-sym-knaus" x="2539.4mm" y="2602.31mm" width="1.2mm" height="1.2mm"/>
    <use href="#iso-sym-knaus" x="2679.4mm" y="2602.31mm" width="1.2mm" height="1.2mm"/>
    <use href="#iso-sym-knaus" x="2799.4mm" y="2602.31mm" width="1.2mm" height="1.2mm"/>
    <use href="#iso-sym-knaus" x="2919.4mm" y="2602.31mm" width="1.2mm" height="1.2mm"/>
    <use href="#iso-sym-knaus" x="3039.4mm" y="2602.31mm" width="1.2mm" height="1.2mm"/>
    <use href="#iso-sym-knaus" x="3179.4mm" y="2602.31mm" width="1.2mm" height="1.2mm"/>
    <use href="#iso-sym-knaus" x="3299.4mm" y="2602.31mm" width="1.2mm" height="1.2mm"/>
    <use href="#iso-sym-knaus" x="3419.4mm" y="2602.31mm" width="1.2mm" height="1.2mm"/>
    <use href="#iso-sym-knaus" x="1479.4mm" y="2542.31mm" width="1.2mm" height="1.2mm"/>
    <use href="#iso-sym-knaus" x="1599.4mm" y="2542.31mm" width="1.2mm" height="1.2mm"/>
    <use href="#iso-sym-knaus" x="1719.4mm" y="2542.31mm" width="1.2mm" height="1.2mm"/>
    <use href="#iso-sym-knaus" x="1859.4mm" y="2542.31mm" width="1.2mm" height="1.2mm"/>
    <use href="#iso-sym-knaus" x="1979.4mm" y="2542.31mm" width="1.2mm" height="1.2mm"/>
    <use href="#iso-sym-knaus" x="2099.4mm" y="2542.31mm" width="1.2mm" height="1.2mm"/>
    <use href="#iso-sym-knaus" x="2239.4mm" y="2542.31mm" width="1.2mm" height="1.2mm"/>
    <use href="#iso-sym-knaus" x="2359.4mm" y="2542.31mm" width="1.2mm" height="1.2mm"/>
    <use href="#iso-sym-knaus" x="2479.4mm" y="2542.31mm" width="1.2mm" height="1.2mm"/>
    <use href="#iso-sym-knaus" x="2599.4mm" y="2542.31mm" width="1.2mm" height="1.2mm"/>
    <use href="#iso-sym-knaus" x="2739.4mm" y="2542.31mm" width="1.2mm" height="1.2mm"/>
    <use href="#iso-sym-knaus" x="2859.4mm" y="2542.31mm" width="1.2mm" height="1.2mm"/>
    <use href="#iso-sym-knaus" x="2979.4mm" y="2542.31mm" width="1.2mm" height="1.2mm"/>
    <use href="#iso-sym-knaus" x="3099.4mm" y="2542.31mm" width="1.2mm" height="1.2mm"/>
    <use href="#iso-sym-knaus" x="3239.4mm" y="2542.31mm" width="1.2mm" height="1.2mm"/>
    <use href="#iso-sym-knaus" x="3359.4mm" y="2542.31mm" width="1.2mm" height="1.2mm"/>
    <use href="#iso-sym-knaus" x="3479.4mm" y="2542.31mm" width="1.2mm" height="1.2mm"/>
    <use href="#iso-sym-knaus" x="1539.4mm" y="2482.31mm" width="1.2mm" height="1.2mm"/>
    <use href="#iso-sym-knaus" x="1659.4mm" y="2482.31mm" width="1.2mm" height="1.2mm"/>
    <use href="#iso-sym-knaus" x="1799.4mm" y="2482.31mm" width="1.2mm" height="1.2mm"/>
    <use href="#iso-sym-knaus" x="1919.4mm" y="2482.31mm" width="1.2mm" height="1.2mm"/>
    <use href="#iso-sym-knaus" x="2039.4mm" y="2482.31mm" width="1.2mm" height="1.2mm"/>
    <use href="#iso-sym-knaus" x="2159.4mm" y="2482.31mm" width="1.2mm" height="1.2mm"/>
    <use href="#iso-sym-knaus" x="2299.4mm" y="2482.31mm" width="1.2mm" height="1.2mm"/>
    <use href="#iso-sym-knaus" x="2419.4mm" y="2482.31mm" width="1.2mm" height="1.2mm"/>
    <use href="#iso-sym-knaus" x="2539.4mm" y="2482.31mm" width="1.2mm" height="1.2mm"/>
    <use href="#iso-sym-knaus" x="2679.4mm" y="2482.31mm" width="1.2mm" height="1.2mm"/>
    <use href="#iso-sym-knaus" x="2799.4mm" y="2482.31mm" width="1.2mm" height="1.2mm"/>
    <use href="#iso-sym-knaus" x="2919.4mm" y="2482.31mm" width="1.2mm" height="1.2mm"/>
    <use href="#iso-sym-knaus" x="3039.4mm" y="2482.31mm" width="1.2mm" height="1.2mm"/>
    <use href="#iso-sym-knaus" x="3179.4mm" y="2482.31mm" width="1.2mm" height="1.2mm"/>
    <use href="#iso-sym-knaus" x="3299.4mm" y="2482.31mm" width="1.2mm" height="1.2mm"/>
    <use href="#iso-sym-knaus" x="3419.4mm" y="2482.31mm" width="1.2mm" height="1.2mm"/>
    <use href="#iso-sym-knaus" x="1479.4mm" y="2422.31mm" width="1.2mm" height="1.2mm"/>
    <use href="#iso-sym-knaus" x="1599.4mm" y="2422.31mm" width="1.2mm" height="1.2mm"/>
    <use href="#iso-sym-knaus" x="1719.4mm" y="2422.31mm" width="1.2mm" height="1.2mm"/>
    <use href="#iso-sym-knaus" x="1859.4mm" y="2422.31mm" width="1.2mm" height="1.2mm"/>
    <use href="#iso-sym-knaus" x="1979.4mm" y="2422.31mm" width="1.2mm" height="1.2mm"/>
    <use href="#iso-sym-knaus" x="2099.4mm" y="2422.31mm" width="1.2mm" height="1.2mm"/>
    <use href="#iso-sym-knaus" x="2239.4mm" y="2422.31mm" width="1.2mm" height="1.2mm"/>
    <use href="#iso-sym-knaus" x="2359.4mm" y="2422.31mm" width="1.2mm" height="1.2mm"/>
    <use href="#iso-sym-knaus" x="2479.4mm" y="2422.31mm" width="1.2mm" height="1.2mm"/>
    <use href="#iso-sym-knaus" x="2599.4mm" y="2422.31mm" width="1.2mm" height="1.2mm"/>
    <use href="#iso-sym-knaus" x="2739.4mm" y="2422.31mm" width="1.2mm" height="1.2mm"/>
    <use href="#iso-sym-knaus" x="2859.4mm" y="2422.31mm" width="1.2mm" height="1.2mm"/>
    <use href="#iso-sym-knaus" x="2979.4mm" y="2422.31mm" width="1.2mm" height="1.2mm"/>
    <use href="#iso-sym-knaus" x="3099.4mm" y="2422.31mm" width="1.2mm" height="1.2mm"/>
    <use href="#iso-sym-knaus" x="3239.4mm" y="2422.31mm" width="1.2mm" height="1.2mm"/>
    <use href="#iso-sym-knaus" x="3359.4mm" y="2422.31mm" width="1.2mm" height="1.2mm"/>
    <use href="#iso-sym-knaus" x="3479.4mm" y="2422.31mm" width="1.2mm" height="1.2mm"/>
    <use href="#iso-sym-knaus" x="1539.4mm" y="2362.31mm" width="1.2mm" height="1.2mm"/>
    <use href="#iso-sym-knaus" x="1659.4mm" y="2362.31mm" width="1.2mm" height="1.2mm"/>
    <use href="#iso-sym-knaus" x="1799.4mm" y="2362.31mm" width="1.2mm" height="1.2mm"/>
    <use href="#iso-sym-knaus" x="1919.4mm" y="2362.31mm" width="1.2mm" height="1.2mm"/>
    <use href="#iso-sym-knaus" x="2039.4mm" y="2362.31mm" width="1.2mm" height="1.2mm"/>
    <use href="#iso-sym-knaus" x="2159.4mm" y="2362.31mm" width="1.2mm" height="1.2mm"/>
    <use href="#iso-sym-knaus" x="2299.4mm" y="2362.31mm" width="1.2mm" height="1.2mm"/>
    <use href="#iso-sym-knaus" x="2419.4mm" y="2362.31mm" width="1.2mm" height="1.2mm"/>
    <use href="#iso-sym-knaus" x="2539.4mm" y="2362.31mm" width="1.2mm" height="1.2mm"/>
    <use href="#iso-sym-knaus" x="2679.4mm" y="2362.31mm" width="1.2mm" height="1.2mm"/>
    <use href="#iso-sym-knaus" x="2799.4mm" y="2362.31mm" width="1.2mm" height="1.2mm"/>
    <use href="#iso-sym-knaus" x="2919.4mm" y="2362.31mm" width="1.2mm" height="1.2mm"/>
    <use href="#iso-sym-knaus" x="3039.4mm" y="2362.31mm" width="1.2mm" height="1.2mm"/>
    <use href="#iso-sym-knaus" x="3179.4mm" y="2362.31mm" width="1.2mm" height="1.2mm"/>
    <use href="#iso-sym-knaus" x="3299.4mm" y="2362.31mm" width="1.2mm" height="1.2mm"/>
    <use href="#iso-sym-knaus" x="3419.4mm" y="2362.31mm" width="1.2mm" height="1.2mm"/>
    <use href="#iso-sym-knaus" x="1599.4mm" y="2302.31mm" width="1.2mm" height="1.2mm"/>
    <use href="#iso-sym-knaus" x="1719.4mm" y="2302.31mm" width="1.2mm" height="1.2mm"/>
    <use href="#iso-sym-knaus" x="1859.4mm" y="2302.31mm" width="1.2mm" height="1.2mm"/>
    <use href="#iso-sym-knaus" x="1979.4mm" y="2302.31mm" width="1.2mm" height="1.2mm"/>
    <use href="#iso-sym-knaus" x="2099.4mm" y="2302.31mm" width="1.2mm" height="1.2mm"/>
    <use href="#iso-sym-knaus" x="2239.4mm" y="2302.31mm" width="1.2mm" height="1.2mm"/>
    <use href="#iso-sym-knaus" x="2359.4mm" y="2302.31mm" width="1.2mm" height="1.2mm"/>
    <use href="#iso-sym-knaus" x="2479.4mm" y="2302.31mm" width="1.2mm" height="1.2mm"/>
    <use href="#iso-sym-knaus" x="2599.4mm" y="2302.31mm" width="1.2mm" height="1.2mm"/>
    <use href="#iso-sym-knaus" x="2739.4mm" y="2302.31mm" width="1.2mm" height="1.2mm"/>
    <use href="#iso-sym-knaus" x="2859.4mm" y="2302.31mm" width="1.2mm" height="1.2mm"/>
    <use href="#iso-sym-knaus" x="2979.4mm" y="2302.31mm" width="1.2mm" height="1.2mm"/>
    <use href="#iso-sym-knaus" x="3099.4mm" y="2302.31mm" width="1.2mm" height="1.2mm"/>
    <use href="#iso-sym-knaus" x="3239.4mm" y="2302.31mm" width="1.2mm" height="1.2mm"/>
    <use href="#iso-sym-knaus" x="3359.4mm" y="2302.31mm" width="1.2mm" height="1.2mm"/>
    <use href="#iso-sym-knaus" x="1799.4mm" y="2242.31mm" width="1.2mm" height="1.2mm"/>
    <use href="#iso-sym-knaus" x="1919.4mm" y="2242.31mm" width="1.2mm" height="1.2mm"/>
    <use href="#iso-sym-knaus" x="2039.4mm" y="2242.31mm" width="1.2mm" height="1.2mm"/>
    <use href="#iso-sym-knaus" x="2159.4mm" y="2242.31mm" width="1.2mm" height="1.2mm"/>
    <use href="#iso-sym-knaus" x="2299.4mm" y="2242.31mm" width="1.2mm" height="1.2mm"/>
    <use href="#iso-sym-knaus" x="2419.4mm" y="2242.31mm" width="1.2mm" height="1.2mm"/>
    <use href="#iso-sym-knaus" x="2539.4mm" y="2242.31mm" width="1.2mm" height="1.2mm"/>
    <use href="#iso-sym-knaus" x="2679.4mm" y="2242.31mm" width="1.2mm" height="1.2mm"/>
    <use href="#iso-sym-knaus" x="2799.4mm" y="2242.31mm" width="1.2mm" height="1.2mm"/>
    <use href="#iso-sym-knaus" x="2919.4mm" y="2242.31mm" width="1.2mm" height="1.2mm"/>
    <use href="#iso-sym-knaus" x="3039.4mm" y="2242.31mm" width="1.2mm" height="1.2mm"/>
    <use href="#iso-sym-knaus" x="3179.4mm" y="2222.31mm" width="1.2mm" height="1.2mm"/>
    <use href="#iso-sym-knaus" x="3299.4mm" y="2222.31mm" width="1.2mm" height="1.2mm"/>
    <use href="#iso-sym-knaus" x="1859.4mm" y="2162.31mm" width="1.2mm" height="1.2mm"/>
    <use href="#iso-sym-knaus" x="1979.4mm" y="2162.31mm" width="1.2mm" height="1.2mm"/>
    <use href="#iso-sym-knaus" x="2099.4mm" y="2162.31mm" width="1.2mm" height="1.2mm"/>
    <use href="#iso-sym-knaus" x="2239.4mm" y="2162.31mm" width="1.2mm" height="1.2mm"/>
    <use href="#iso-sym-knaus" x="2359.4mm" y="2162.31mm" width="1.2mm" height="1.2mm"/>
    <use href="#iso-sym-knaus" x="2479.4mm" y="2162.31mm" width="1.2mm" height="1.2mm"/>
    <use href="#iso-sym-knaus" x="2599.4mm" y="2162.31mm" width="1.2mm" height="1.2mm"/>
    <use href="#iso-sym-knaus" x="2739.4mm" y="2162.31mm" width="1.2mm" height="1.2mm"/>
    <use href="#iso-sym-knaus" x="2859.4mm" y="2162.31mm" width="1.2mm" height="1.2mm"/>
    <use href="#iso-sym-knaus" x="2979.4mm" y="2162.31mm" width="1.2mm" height="1.2mm"/>
    <use href="#iso-sym-knaus" x="3099.4mm" y="2162.31mm" width="1.2mm" height="1.2mm"/>
    <use href="#iso-sym-knaus" x="3239.4mm" y="2162.31mm" width="1.2mm" height="1.2mm"/>
    <use href="#iso-sym-knaus" x="3359.4mm" y="2162.31mm" width="1.2mm" height="1.2mm"/>
    <use href="#iso-sym-knaus" x="1799.4mm" y="2102.31mm" width="1.2mm" height="1.2mm"/>
    <use href="#iso-sym-knaus" x="1919.4mm" y="2102.31mm" width="1.2mm" height="1.2mm"/>
    <use href="#iso-sym-knaus" x="2039.4mm" y="2102.31mm" width="1.2mm" height="1.2mm"/>
    <use href="#iso-sym-knaus" x="2159.4mm" y="2102.31mm" width="1.2mm" height="1.2mm"/>
    <use href="#iso-sym-knaus" x="2299.4mm" y="2102.31mm" width="1.2mm" height="1.2mm"/>
    <use href="#iso-sym-knaus" x="2419.4mm" y="2102.31mm" width="1.2mm" height="1.2mm"/>
    <use href="#iso-sym-knaus" x="2539.4mm" y="2102.31mm" width="1.2mm" height="1.2mm"/>
    <use href="#iso-sym-knaus" x="2679.4mm" y="2102.31mm" width="1.2mm" height="1.2mm"/>
    <use href="#iso-sym-knaus" x="2799.4mm" y="2102.31mm" width="1.2mm" height="1.2mm"/>
    <use href="#iso-sym-knaus" x="2919.4mm" y="2102.31mm" width="1.2mm" height="1.2mm"/>
    <use href="#iso-sym-knaus" x="3039.4mm" y="2102.31mm" width="1.2mm" height="1.2mm"/>
    <use href="#iso-sym-knaus" x="3179.4mm" y="2102.31mm" width="1.2mm" height="1.2mm"/>
    <use href="#iso-sym-knaus" x="3299.4mm" y="2102.31mm" width="1.2mm" height="1.2mm"/>
    <use href="#iso-sym-knaus" x="3419.4mm" y="2102.31mm" width="1.2mm" height="1.2mm"/>
    <use href="#iso-sym-knaus" x="1859.4mm" y="2042.31mm" width="1.2mm" height="1.2mm"/>
    <use href="#iso-sym-knaus" x="1979.4mm" y="2042.31mm" width="1.2mm" height="1.2mm"/>
    <use href="#iso-sym-knaus" x="2099.4mm" y="2042.31mm" width="1.2mm" height="1.2mm"/>
    <use href="#iso-sym-knaus" x="2239.4mm" y="2042.31mm" width="1.2mm" height="1.2mm"/>
    <use href="#iso-sym-knaus" x="2359.4mm" y="2042.31mm" width="1.2mm" height="1.2mm"/>
    <use href="#iso-sym-knaus" x="2479.4mm" y="2042.31mm" width="1.2mm" height="1.2mm"/>
    <use href="#iso-sym-knaus" x="2599.4mm" y="2042.31mm" width="1.2mm" height="1.2mm"/>
    <use href="#iso-sym-knaus" x="2739.4mm" y="2042.31mm" width="1.2mm" height="1.2mm"/>
    <use href="#iso-sym-knaus" x="2859.4mm" y="2042.31mm" width="1.2mm" height="1.2mm"/>
    <use href="#iso-sym-knaus" x="2979.4mm" y="2042.31mm" width="1.2mm" height="1.2mm"/>
    <use href="#iso-sym-knaus" x="3099.4mm" y="2042.31mm" width="1.2mm" height="1.2mm"/>
    <use href="#iso-sym-knaus" x="3239.4mm" y="2042.31mm" width="1.2mm" height="1.2mm"/>
    <use href="#iso-sym-knaus" x="3359.4mm" y="2042.31mm" width="1.2mm" height="1.2mm"/>
    <use href="#iso-sym-knaus" x="1919.4mm" y="1982.31mm" width="1.2mm" height="1.2mm"/>
    <use href="#iso-sym-knaus" x="2039.4mm" y="1982.31mm" width="1.2mm" height="1.2mm"/>
    <use href="#iso-sym-knaus" x="2159.4mm" y="1982.31mm" width="1.2mm" height="1.2mm"/>
    <use href="#iso-sym-knaus" x="2299.4mm" y="1982.31mm" width="1.2mm" height="1.2mm"/>
    <use href="#iso-sym-knaus" x="2419.4mm" y="1982.31mm" width="1.2mm" height="1.2mm"/>
    <use href="#iso-sym-knaus" x="2539.4mm" y="1982.31mm" width="1.2mm" height="1.2mm"/>
    <use href="#iso-sym-knaus" x="2679.4mm" y="1982.31mm" width="1.2mm" height="1.2mm"/>
    <use href="#iso-sym-knaus" x="2799.4mm" y="1982.31mm" width="1.2mm" height="1.2mm"/>
    <use href="#iso-sym-knaus" x="2919.4mm" y="1982.31mm" width="1.2mm" height="1.2mm"/>
    <use href="#iso-sym-knaus" x="3039.4mm" y="1982.31mm" width="1.2mm" height="1.2mm"/>
    <use href="#iso-sym-knaus" x="3179.4mm" y="1982.31mm" width="1.2mm" height="1.2mm"/>
    <use href="#iso-sym-knaus" x="3299.4mm" y="1982.31mm" width="1.2mm" height="1.2mm"/>
    <use href="#iso-sym-knaus" x="1979.4mm" y="1922.31mm" width="1.2mm" height="1.2mm"/>
    <use href="#iso-sym-knaus" x="2099.4mm" y="1922.31mm" width="1.2mm" height="1.2mm"/>
    <use href="#iso-sym-knaus" x="2239.4mm" y="1922.31mm" width="1.2mm" height="1.2mm"/>
    <use href="#iso-sym-knaus" x="2359.4mm" y="1922.31mm" width="1.2mm" height="1.2mm"/>
    <use href="#iso-sym-knaus" x="2479.4mm" y="1922.31mm" width="1.2mm" height="1.2mm"/>
    <use href="#iso-sym-knaus" x="2599.4mm" y="1922.31mm" width="1.2mm" height="1.2mm"/>
    <use href="#iso-sym-knaus" x="2739.4mm" y="1922.31mm" width="1.2mm" height="1.2mm"/>
    <use href="#iso-sym-knaus" x="2859.4mm" y="1922.31mm" width="1.2mm" height="1.2mm"/>
    <use href="#iso-sym-knaus" x="2979.4mm" y="1922.31mm" width="1.2mm" height="1.2mm"/>
    <use href="#iso-sym-knaus" x="3099.4mm" y="1922.31mm" width="1.2mm" height="1.2mm"/>
    <use href="#iso-sym-knaus" x="3239.4mm" y="1922.31mm" width="1.2mm" height="1.2mm"/>
    <use href="#iso-sym-knaus" x="2039.4mm" y="1862.31mm" width="1.2mm" height="1.2mm"/>
    <use href="#iso-sym-knaus" x="2159.4mm" y="1862.31mm" width="1.2mm" height="1.2mm"/>
    <use href="#iso-sym-knaus" x="2299.4mm" y="1862.31mm" width="1.2mm" height="1.2mm"/>
    <use href="#iso-sym-knaus" x="2419.4mm" y="1862.31mm" width="1.2mm" height="1.2mm"/>
    <use href="#iso-sym-knaus" x="2539.4mm" y="1862.31mm" width="1.2mm" height="1.2mm"/>
    <use href="#iso-sym-knaus" x="2679.4mm" y="1862.31mm" width="1.2mm" height="1.2mm"/>
    <use href="#iso-sym-knaus" x="2799.4mm" y="1862.31mm" width="1.2mm" height="1.2mm"/>
    <use href="#iso-sym-knaus" x="2919.4mm" y="1862.31mm" width="1.2mm" height="1.2mm"/>
    <use href="#iso-sym-knaus" x="3039.4mm" y="1862.31mm" width="1.2mm" height="1.2mm"/>
    <use href="#iso-sym-knaus" x="2099.4mm" y="1802.31mm" width="1.2mm" height="1.2mm"/>
    <use href="#iso-sym-knaus" x="2239.4mm" y="1802.31mm" width="1.2mm" height="1.2mm"/>
    <use href="#iso-sym-knaus" x="2359.4mm" y="1802.31mm" width="1.2mm" height="1.2mm"/>
    <use href="#iso-sym-knaus" x="2479.4mm" y="1802.31mm" width="1.2mm" height="1.2mm"/>
    <use href="#iso-sym-knaus" x="2599.4mm" y="1802.31mm" width="1.2mm" height="1.2mm"/>
    <use href="#iso-sym-knaus" x="2739.4mm" y="1802.31mm" width="1.2mm" height="1.2mm"/>
    <use href="#iso-sym-knaus" x="2859.4mm" y="1802.31mm" width="1.2mm" height="1.2mm"/>
    <use href="#iso-sym-knaus" x="2979.4mm" y="1802.31mm" width="1.2mm" height="1.2mm"/>
    <use href="#iso-sym-knaus" x="2159.4mm" y="1722.31mm" width="1.2mm" height="1.2mm"/>
    <use href="#iso-sym-knaus" x="2299.4mm" y="1722.31mm" width="1.2mm" height="1.2mm"/>
    <use href="#iso-sym-knaus" x="2419.4mm" y="1722.31mm" width="1.2mm" height="1.2mm"/>
    <use href="#iso-sym-knaus" x="2539.4mm" y="1722.31mm" width="1.2mm" height="1.2mm"/>
    <use href="#iso-sym-knaus" x="2679.4mm" y="1722.31mm" width="1.2mm" height="1.2mm"/>
    <use href="#iso-sym-knaus" x="2799.4mm" y="1722.31mm" width="1.2mm" height="1.2mm"/>
    <use href="#iso-sym-knaus" x="2919.4mm" y="1722.31mm" width="1.2mm" height="1.2mm"/>
    <use href="#iso-sym-knaus" x="2099.4mm" y="1662.31mm" width="1.2mm" height="1.2mm"/>
    <use href="#iso-sym-knaus" x="2239.4mm" y="1662.31mm" width="1.2mm" height="1.2mm"/>
    <use href="#iso-sym-knaus" x="2359.4mm" y="1662.31mm" width="1.2mm" height="1.2mm"/>
    <use href="#iso-sym-knaus" x="2479.4mm" y="1662.31mm" width="1.2mm" height="1.2mm"/>
    <use href="#iso-sym-knaus" x="2599.4mm" y="1662.31mm" width="1.2mm" height="1.2mm"/>
    <use href="#iso-sym-knaus" x="2739.4mm" y="1662.31mm" width="1.2mm" height="1.2mm"/>
    <use href="#iso-sym-knaus" x="2859.4mm" y="1662.31mm" width="1.2mm" height="1.2mm"/>
    <use href="#iso-sym-knaus" x="2979.4mm" y="1662.31mm" width="1.2mm" height="1.2mm"/>
    <use href="#iso-sym-knaus" x="2299.4mm" y="1602.31mm" width="1.2mm" height="1.2mm"/>
    <use href="#iso-sym-knaus" x="2419.4mm" y="1602.31mm" width="1.2mm" height="1.2mm"/>
    <use href="#iso-sym-knaus" x="2539.4mm" y="1602.31mm" width="1.2mm" height="1.2mm"/>
    <use href="#iso-sym-knaus" x="2679.4mm" y="1602.31mm" width="1.2mm" height="1.2mm"/>
    <use href="#iso-sym-knaus" x="2799.4mm" y="1602.31mm" width="1.2mm" height="1.2mm"/>
    <use href="#iso-sym-knaus" x="2919.4mm" y="1602.31mm" width="1.2mm" height="1.2mm"/>
    <use href="#iso-sym-knaus" x="2359.4mm" y="1542.31mm" width="1.2mm" height="1.2mm"/>
    <use href="#iso-sym-knaus" x="2479.4mm" y="1542.31mm" width="1.2mm" height="1.2mm"/>
    <use href="#iso-sym-knaus" x="2599.4mm" y="1542.31mm" width="1.2mm" height="1.2mm"/>
    <use href="#iso-sym-knaus" x="2739.4mm" y="1542.31mm" width="1.2mm" height="1.2mm"/>
    <use href="#iso-sym-knaus" x="2859.4mm" y="1542.31mm" width="1.2mm" height="1.2mm"/>
    <use href="#iso-sym-knaus" x="2419.4mm" y="1482.31mm" width="1.2mm" height="1.2mm"/>
    <use href="#iso-sym-knaus" x="2539.4mm" y="1482.31mm" width="1.2mm" height="1.2mm"/>
  </g>

  <g data-layer="navn" pointer-events="none">
    <text x="2459" y="2361" text-anchor="middle"
          font-size="120" font-weight="700" fill="#7f4f24" opacity="0.45">
      Kart genereres av CI
    </text>
    <text x="2459" y="2501" text-anchor="middle"
          font-size="60" fill="#7f4f24" opacity="0.4">
      Trigge "Build map and deploy" i GitHub Actions
    </text>
    <text x="2459" y="256120" text-anchor="middle"
          font-size="60" fill="#7f4f24" opacity="0.4">
      eller vent på neste push til feature-branchen
    </text>
    <text x="2459" y="2561200" text-anchor="middle"
          font-size="50" fill="#7f4f24" opacity="0.5" font-weight="600">
      Vardåsen i Asker
    </text>
  </g>
</svg>
